<svg width="1024" height="1024" viewBox="0 0 1024 1024" xmlns="http://www.w3.org/2000/svg">
<path d="M512 64C264.6 64 64 264.6 64 512C64 759.4 264.6 960 512 960C759.4 960 960 759.4 960 512C960 264.6 759.4 64 512 64ZM432 664C432 668.4 428.4 672 424 672H376C371.6 672 368 668.4 368 664V360C368 355.6 371.6 352 376 352H424C428.4 352 432 355.6 432 360V664ZM656 664C656 668.4 652.4 672 648 672H600C595.6 672 592 668.4 592 664V360C592 355.6 595.6 352 600 352H648C652.4 352 656 355.6 656 360V664Z"/>
</svg>
