<svg width="31" height="31" viewBox="0 0 31 31" fill="none" xmlns="http://www.w3.org/2000/svg">
<path d="M29.2778 3.44444H17.2222V1.72222C17.2222 1.26546 17.0408 0.827406 16.7178 0.504427C16.3948 0.181448 15.9568 0 15.5 0C15.0432 0 14.6052 0.181448 14.2822 0.504427C13.9592 0.827406 13.7778 1.26546 13.7778 1.72222V3.44444H1.72222C1.26546 3.44444 0.827406 3.62589 0.504427 3.94887C0.181448 4.27185 0 4.7099 0 5.16667C0 5.62343 0.181448 6.06148 0.504427 6.38446C0.827406 6.70744 1.26546 6.88889 1.72222 6.88889H22.1857C21.4115 12.0512 19.0384 16.8408 15.4001 20.584C12.8789 17.9982 10.9518 14.8939 9.75294 11.4872C9.60221 11.0558 9.28628 10.7019 8.87464 10.5035C8.463 10.305 7.98938 10.2782 7.55797 10.4289C7.12656 10.5796 6.7727 10.8956 6.57423 11.3072C6.37575 11.7189 6.34894 12.1925 6.49967 12.6239C7.84954 16.4603 10.0113 19.9603 12.8374 22.8849C9.92344 25.1835 6.52757 26.7937 2.90367 27.5952C2.48869 27.6857 2.12181 27.9265 1.87354 28.2711C1.62526 28.6157 1.5131 29.04 1.5586 29.4623C1.6041 29.8846 1.80405 30.2752 2.12003 30.559C2.43602 30.8428 2.84575 30.9999 3.2705 31C3.39498 31 3.51911 30.9867 3.64078 30.9604C7.95771 30.0081 11.9887 28.0496 15.4053 25.2443C18.8305 28.0473 22.867 30.0054 27.1887 30.9604C27.633 31.0526 28.0957 30.9657 28.4763 30.7186C28.8569 30.4715 29.1246 30.0843 29.2213 29.6409C29.3179 29.1976 29.2357 28.734 28.9925 28.351C28.7493 27.9679 28.3647 27.6963 27.9224 27.5952C24.2871 26.7954 20.8787 25.1866 17.9507 22.8883C22.1619 18.5157 24.86 12.9081 25.6491 6.88889H29.2778C29.7345 6.88889 30.1726 6.70744 30.4956 6.38446C30.8186 6.06148 31 5.62343 31 5.16667C31 4.7099 30.8186 4.27185 30.4956 3.94887C30.1726 3.62589 29.7345 3.44444 29.2778 3.44444Z" fill="black"/>
</svg>
