<svg width="38" height="38" viewBox="0 0 38 38" fill="none" xmlns="http://www.w3.org/2000/svg">
<path fill-rule="evenodd" clip-rule="evenodd" d="M38 0H0V38H38V0ZM5.54167 4.75H4.75V26.125H23.2647V24.5417H6.33333V6.33333H27.7083V8.70833H29.2917V4.75H5.54167ZM30.875 12.6667C30.875 13.2966 30.6248 13.9006 30.1794 14.346C29.734 14.7914 29.1299 15.0417 28.5 15.0417C27.8701 15.0417 27.266 14.7914 26.8206 14.346C26.3752 13.9006 26.125 13.2966 26.125 12.6667C26.125 12.0368 26.3752 11.4327 26.8206 10.9873C27.266 10.5419 27.8701 10.2917 28.5 10.2917C29.1299 10.2917 29.734 10.5419 30.1794 10.9873C30.6248 11.4327 30.875 12.0368 30.875 12.6667V12.6667ZM32.4821 17.8093C31.9501 17.0953 31.1362 16.6337 30.1079 16.6337H25.3579C25.0971 16.6366 24.8427 16.7144 24.6248 16.8578C24.5021 16.9369 24.4 17.0256 24.3271 17.0937C24.1737 17.2431 24.0301 17.4023 23.8973 17.5703C23.5978 17.9487 23.3126 18.3382 23.0423 18.738C22.7763 19.1259 22.5237 19.5122 22.3313 19.8099H19.0245C18.7096 19.8099 18.4076 19.935 18.1849 20.1577C17.9622 20.3804 17.837 20.6824 17.837 20.9974C17.837 21.3123 17.9622 21.6144 18.1849 21.8371C18.4076 22.0598 18.7096 22.1849 19.0245 22.1849H22.9829C23.393 22.1849 23.7745 21.9735 23.9915 21.6252V21.6236L23.9962 21.618L24.012 21.5927L24.073 21.4953C24.2271 21.2512 24.3833 21.0084 24.5417 20.767V32.0625C24.5421 32.3582 24.6528 32.643 24.8521 32.8614C25.0514 33.0798 25.325 33.216 25.6194 33.2433C25.9138 33.2706 26.2078 33.1871 26.4439 33.0092C26.6801 32.8312 26.8413 32.5715 26.8961 32.281L28.0503 26.125H28.2855L29.3075 32.258C29.3561 32.5524 29.5136 32.8177 29.7489 33.0012C29.9842 33.1847 30.2799 33.2729 30.5773 33.2482C30.8746 33.2236 31.1518 33.0879 31.3536 32.8682C31.5555 32.6485 31.6672 32.3609 31.6667 32.0625V24.2709C32.2858 23.7825 32.6863 23.07 32.9254 22.3804C33.1789 21.6375 33.2854 20.8523 33.2389 20.0688C33.1914 19.3056 32.9808 18.4775 32.4821 17.8093Z" fill="white"/>
</svg>
