<svg width="31" height="31" viewBox="0 0 31 31" fill="none" xmlns="http://www.w3.org/2000/svg">
<path d="M7.75016 23.9899C10.5996 23.9899 12.9168 21.6727 12.9168 18.8233V5.71931L24.5418 9.94565V19.5427C23.7602 19.077 22.8683 18.8286 21.9585 18.8233C19.1091 18.8233 16.7918 21.1405 16.7918 23.9899C16.7918 26.8394 19.1091 29.1566 21.9585 29.1566C24.8079 29.1566 27.1252 26.8394 27.1252 23.9899V9.04148C27.1253 8.77647 27.0439 8.51784 26.8918 8.30081C26.7397 8.08377 26.5244 7.91889 26.2752 7.8286L12.0669 2.66194C11.8719 2.59063 11.6625 2.56746 11.4566 2.59439C11.2506 2.62132 11.0543 2.69755 10.8841 2.81661C10.7139 2.93567 10.575 3.09404 10.4792 3.27827C10.3833 3.46249 10.3333 3.66714 10.3335 3.87481V14.3761C9.55187 13.9104 8.65999 13.662 7.75016 13.6566C4.90075 13.6566 2.5835 15.9739 2.5835 18.8233C2.5835 21.6727 4.90075 23.9899 7.75016 23.9899Z" fill="black"/>
</svg>
