<svg width="228" height="228" viewBox="0 0 228 228" fill="none" xmlns="http://www.w3.org/2000/svg">
<path d="M114 0C51.0455 0 0 51.0455 0 114C0 176.954 51.0455 228 114 228C176.954 228 228 176.954 228 114C228 51.0455 176.954 0 114 0ZM150.668 115.756L95.0933 156.19C94.7886 156.409 94.4295 156.54 94.0554 156.568C93.6812 156.596 93.3066 156.521 92.9726 156.35C92.6386 156.179 92.3582 155.919 92.1622 155.599C91.9662 155.279 91.8622 154.911 91.8616 154.536V73.7183C91.8604 73.3424 91.9633 72.9734 92.1589 72.6524C92.3545 72.3314 92.6352 72.0708 92.9698 71.8995C93.3045 71.7282 93.68 71.6529 94.0548 71.682C94.4297 71.7111 94.7891 71.8434 95.0933 72.0643L150.668 112.473C150.931 112.659 151.145 112.905 151.293 113.19C151.441 113.476 151.518 113.793 151.518 114.115C151.518 114.436 151.441 114.753 151.293 115.039C151.145 115.324 150.931 115.57 150.668 115.756V115.756Z" fill="#D65757"/>
</svg>
