<svg width="70" height="71" viewBox="0 0 70 71" fill="none" xmlns="http://www.w3.org/2000/svg">
<path d="M69.169 7.013C69.1667 6.73598 69.0885 6.4649 68.9429 6.22923C68.7972 5.99356 68.5898 5.80234 68.3431 5.67635C68.0963 5.55036 67.8198 5.49443 67.5435 5.51464C67.2672 5.53486 67.0018 5.63044 66.776 5.791L60.832 10.052L60.364 10.389C53.959 3.997 45.168 0 35.427 0C15.892 0 0 15.894 0 35.428C0 54.962 15.893 70.856 35.427 70.856C41.2277 70.857 46.9399 69.4334 52.0617 66.7102C57.1835 63.987 61.558 60.0475 64.801 55.238C64.9319 55.0453 65.0234 54.8286 65.0703 54.6005C65.1173 54.3723 65.1187 54.1371 65.0746 53.9084C65.0305 53.6797 64.9416 53.4619 64.8132 53.2676C64.6847 53.0733 64.5192 52.9062 64.326 52.776L55.463 46.625C55.0461 46.3462 54.5358 46.2435 54.0435 46.3395C53.5512 46.4354 53.1168 46.7221 52.835 47.137C48.917 52.929 42.425 56.387 35.46 56.387C23.902 56.387 14.498 46.985 14.498 35.43C14.498 23.875 23.902 14.473 35.46 14.473C40.338 14.473 44.812 16.169 48.374 18.973L47.373 19.693L41.425 23.953C41.2007 24.1156 41.0254 24.3367 40.9181 24.5922C40.8108 24.8476 40.7758 25.1276 40.8167 25.4016C40.8577 25.6756 40.9731 25.9331 41.1504 26.146C41.3276 26.3589 41.56 26.5191 41.822 26.609L67.268 35.278C67.729 35.439 68.234 35.361 68.636 35.075C69.035 34.785 69.265 34.328 69.263 33.844L69.169 7.013V7.013Z" fill="black"/>
</svg>
