<svg width="38" height="38" viewBox="0 0 38 38" fill="none" xmlns="http://www.w3.org/2000/svg">
<path d="M37.2969 0.703101C37.0861 0.493215 36.8197 0.347898 36.529 0.284236C36.2384 0.220574 35.9356 0.241212 35.6563 0.343726L1.28131 12.8437C0.984856 12.9562 0.729625 13.1561 0.549517 13.4171C0.369409 13.678 0.272949 13.9876 0.272949 14.3047C0.272949 14.6217 0.369409 14.9313 0.549517 15.1922C0.729625 15.4532 0.984856 15.6532 1.28131 15.7656L14.7032 21.125L24.6094 11.1875L26.8126 13.3906L16.8594 23.3437L22.2344 36.7656C22.3502 37.0563 22.5506 37.3056 22.8097 37.4811C23.0688 37.6566 23.3746 37.7503 23.6876 37.75C24.0033 37.7435 24.3097 37.6415 24.5663 37.4574C24.8229 37.2733 25.0178 37.0158 25.1251 36.7187L37.6251 2.34373C37.7315 2.06728 37.7572 1.76627 37.6991 1.47579C37.641 1.18531 37.5015 0.917335 37.2969 0.703101Z" fill="white"/>
</svg>
