<svg width="228" height="228" viewBox="0 0 228 228" fill="none" xmlns="http://www.w3.org/2000/svg">
<path d="M114 0C51.0455 0 0 51.0455 0 114C0 176.954 51.0455 228 114 228C176.954 228 228 176.954 228 114C228 51.0455 176.954 0 114 0ZM93.6429 152.679C93.6429 153.798 92.7268 154.714 91.6071 154.714H79.3929C78.2732 154.714 77.3571 153.798 77.3571 152.679V75.3214C77.3571 74.2018 78.2732 73.2857 79.3929 73.2857H91.6071C92.7268 73.2857 93.6429 74.2018 93.6429 75.3214V152.679ZM150.643 152.679C150.643 153.798 149.727 154.714 148.607 154.714H136.393C135.273 154.714 134.357 153.798 134.357 152.679V75.3214C134.357 74.2018 135.273 73.2857 136.393 73.2857H148.607C149.727 73.2857 150.643 74.2018 150.643 75.3214V152.679Z" fill="#D65757"/>
</svg>
