<svg width="30" height="31" viewBox="0 0 30 31" fill="none" xmlns="http://www.w3.org/2000/svg">
<path d="M29.0022 13.7778L25.2593 4.59259H27.5556V2.2963H16.0741V0H13.7778V2.2963H2.2963V4.59259H4.59259L0.872593 13.7778H0V16.0741H0.344445C0.702667 17.2176 1.43059 18.2096 2.41111 18.8985C3.37934 19.6006 4.54474 19.9787 5.74074 19.9787C6.93674 19.9787 8.10214 19.6006 9.07037 18.8985C10.0517 18.2054 10.7843 17.2152 11.16 16.0741H11.4815V13.7778H10.4481L6.61333 4.59259H13.7778V22.963H9.18519L8.28963 23.3763L3.69704 29.14L4.59259 31H25.2593L26.1548 29.14L21.5622 23.3763L20.6667 22.963H16.0741V4.59259H23.2615L19.4267 13.7778H18.3704V16.0741H18.7148C19.0904 17.2118 19.8152 18.202 20.7861 18.9039C21.757 19.6059 22.9245 19.9837 24.1226 19.9837C25.3207 19.9837 26.4882 19.6059 27.4591 18.9039C28.43 18.202 29.1548 17.2118 29.5304 16.0741H29.8519V13.7778H29.0022ZM7.39407 17.2452C6.88766 17.5255 6.3195 17.6754 5.74074 17.6815C5.16883 17.6785 4.60734 17.5282 4.11037 17.2452C3.6036 16.9674 3.17664 16.5642 2.87037 16.0741H8.61111C8.30742 16.5582 7.88951 16.9603 7.39407 17.2452V17.2452ZM7.96815 13.7778H3.37556L5.67185 8.26667L7.96815 13.7778ZM20.1156 25.2593L22.963 28.7037H6.88889L9.7363 25.2593H20.1156ZM24.203 8.31259L26.4993 13.8237H21.9067L24.203 8.31259V8.31259ZM25.7644 17.2911C25.2624 17.5821 24.6914 17.7328 24.1111 17.7274C23.5378 17.7356 22.9734 17.5845 22.4807 17.2911C21.9732 16.9941 21.5472 16.576 21.2407 16.0741H26.9815C26.6968 16.585 26.2754 17.0065 25.7644 17.2911V17.2911Z" fill="black"/>
</svg>
