<svg width="36" height="36" viewBox="0 0 36 36" fill="none" xmlns="http://www.w3.org/2000/svg">
<path fill-rule="evenodd" clip-rule="evenodd" d="M33 7C32.2044 7 31.4413 7.31607 30.8787 7.87868C30.3161 8.44129 30 9.20435 30 10V12H36V10C36 9.20435 35.6839 8.44129 35.1213 7.87868C34.5587 7.31607 33.7956 7 33 7ZM36 14H30V30.5L33 35L36 30.5V14ZM0 3V33C0 33.7956 0.316071 34.5587 0.87868 35.1213C1.44129 35.6839 2.20435 36 3 36H25C25.7956 36 26.5587 35.6839 27.1213 35.1213C27.6839 34.5587 28 33.7956 28 33V3C28 2.20435 27.6839 1.44129 27.1213 0.87868C26.5587 0.316071 25.7956 0 25 0H3C2.20435 0 1.44129 0.316071 0.87868 0.87868C0.316071 1.44129 0 2.20435 0 3ZM14 9C14 8.73478 14.1054 8.48043 14.2929 8.29289C14.4804 8.10536 14.7348 8 15 8H23C23.2652 8 23.5196 8.10536 23.7071 8.29289C23.8946 8.48043 24 8.73478 24 9C24 9.26522 23.8946 9.51957 23.7071 9.70711C23.5196 9.89464 23.2652 10 23 10H15C14.7348 10 14.4804 9.89464 14.2929 9.70711C14.1054 9.51957 14 9.26522 14 9ZM15 12C14.7348 12 14.4804 12.1054 14.2929 12.2929C14.1054 12.4804 14 12.7348 14 13C14 13.2652 14.1054 13.5196 14.2929 13.7071C14.4804 13.8946 14.7348 14 15 14H23C23.2652 14 23.5196 13.8946 23.7071 13.7071C23.8946 13.5196 24 13.2652 24 13C24 12.7348 23.8946 12.4804 23.7071 12.2929C23.5196 12.1054 23.2652 12 23 12H15ZM14 22C14 21.7348 14.1054 21.4804 14.2929 21.2929C14.4804 21.1054 14.7348 21 15 21H23C23.2652 21 23.5196 21.1054 23.7071 21.2929C23.8946 21.4804 24 21.7348 24 22C24 22.2652 23.8946 22.5196 23.7071 22.7071C23.5196 22.8946 23.2652 23 23 23H15C14.7348 23 14.4804 22.8946 14.2929 22.7071C14.1054 22.5196 14 22.2652 14 22ZM15 25C14.7348 25 14.4804 25.1054 14.2929 25.2929C14.1054 25.4804 14 25.7348 14 26C14 26.2652 14.1054 26.5196 14.2929 26.7071C14.4804 26.8946 14.7348 27 15 27H23C23.2652 27 23.5196 26.8946 23.7071 26.7071C23.8946 26.5196 24 26.2652 24 26C24 25.7348 23.8946 25.4804 23.7071 25.2929C23.5196 25.1054 23.2652 25 23 25H15ZM6 22V25H9V22H6ZM5 20H10C10.2652 20 10.5196 20.1054 10.7071 20.2929C10.8946 20.4804 11 20.7348 11 21V26C11 26.2652 10.8946 26.5196 10.7071 26.7071C10.5196 26.8946 10.2652 27 10 27H5C4.73478 27 4.48043 26.8946 4.29289 26.7071C4.10536 26.5196 4 26.2652 4 26V21C4 20.7348 4.10536 20.4804 4.29289 20.2929C4.48043 20.1054 4.73478 20 5 20V20ZM11.707 9.707C11.8892 9.5184 11.99 9.2658 11.9877 9.0036C11.9854 8.7414 11.8802 8.49059 11.6948 8.30518C11.5094 8.11977 11.2586 8.0146 10.9964 8.01233C10.7342 8.01005 10.4816 8.11084 10.293 8.293L7 11.586L5.707 10.293C5.5184 10.1108 5.2658 10.01 5.0036 10.0123C4.7414 10.0146 4.49059 10.1198 4.30518 10.3052C4.11977 10.4906 4.0146 10.7414 4.01233 11.0036C4.01005 11.2658 4.11084 11.5184 4.293 11.707L7 14.414L11.707 9.707Z" fill="white"/>
</svg>
