<svg width="94" height="94" viewBox="0 0 94 94" xmlns="http://www.w3.org/2000/svg">
<path d="M47 88.125C24.2895 88.125 5.875 69.7105 5.875 47C5.875 24.2895 24.2895 5.875 47 5.875C69.7105 5.875 88.125 24.2895 88.125 47C88.125 69.7105 69.7105 88.125 47 88.125ZM60.2279 46.3666L40.1795 31.7801C40.0696 31.7011 39.94 31.6539 39.8051 31.6438C39.6701 31.6337 39.5349 31.6609 39.4145 31.7226C39.294 31.7842 39.1928 31.8779 39.1221 31.9933C39.0514 32.1087 39.0139 32.2414 39.0137 32.3768V61.5314C39.0132 61.6671 39.0503 61.8002 39.1209 61.916C39.1915 62.0318 39.2927 62.1258 39.4135 62.1876C39.5342 62.2494 39.6697 62.2765 39.8049 62.266C39.9401 62.2555 40.0697 62.2078 40.1795 62.1281L60.2279 47.5508C60.3226 47.4838 60.3999 47.3951 60.4532 47.292C60.5066 47.189 60.5344 47.0747 60.5344 46.9587C60.5344 46.8427 60.5066 46.7284 60.4532 46.6253C60.3999 46.5223 60.3226 46.4336 60.2279 46.3666V46.3666Z" />
</svg>
