<svg width="60" height="60" viewBox="0 0 60 60" fill="none" xmlns="http://www.w3.org/2000/svg">
<path d="M20.625 7.5C19.1332 7.5 17.7024 8.09263 16.6475 9.14752C15.5926 10.2024 15 11.6332 15 13.125V15H11.25C9.26088 15 7.35322 15.7902 5.9467 17.1967C4.54018 18.6032 3.75 20.5109 3.75 22.5V39.375C3.75 40.8668 4.34263 42.2976 5.39752 43.3525C6.45242 44.4074 7.88316 45 9.375 45H15V46.875C15 48.3668 15.5926 49.7976 16.6475 50.8525C17.7024 51.9074 19.1332 52.5 20.625 52.5H39.75C41.2418 52.5 42.6726 51.9074 43.7275 50.8525C44.7824 49.7976 45.375 48.3668 45.375 46.875V45H50.625C52.1168 45 53.5476 44.4074 54.6025 43.3525C55.6574 42.2976 56.25 40.8668 56.25 39.375V22.5C56.25 20.5109 55.4598 18.6032 54.0533 17.1967C52.6468 15.7902 50.7391 15 48.75 15H45V13.125C45 11.6332 44.4074 10.2024 43.3525 9.14752C42.2976 8.09263 40.8668 7.5 39.375 7.5H20.625ZM41.25 15H18.75V13.125C18.75 12.6277 18.9475 12.1508 19.2992 11.7992C19.6508 11.4475 20.1277 11.25 20.625 11.25H39.375C39.8723 11.25 40.3492 11.4475 40.7008 11.7992C41.0525 12.1508 41.25 12.6277 41.25 13.125V15ZM20.625 37.5H39.75C40.2473 37.5 40.7242 37.6975 41.0758 38.0492C41.4275 38.4008 41.625 38.8777 41.625 39.375V46.875C41.625 47.3723 41.4275 47.8492 41.0758 48.2008C40.7242 48.5525 40.2473 48.75 39.75 48.75H20.625C20.1277 48.75 19.6508 48.5525 19.2992 48.2008C18.9475 47.8492 18.75 47.3723 18.75 46.875V39.375C18.75 38.8777 18.9475 38.4008 19.2992 38.0492C19.6508 37.6975 20.1277 37.5 20.625 37.5V37.5Z" fill="white"/>
</svg>
