<svg width="72" height="65" viewBox="0 0 72 65" fill="none" xmlns="http://www.w3.org/2000/svg">
<path d="M21.7465 33.1495L7.92082 20.2225C2.47794 25.7703 0.415378 31.3282 0.379569 31.442L0 32.5L0.375989 33.558C0.454767 33.7823 8.66922 55.9367 36.0018 55.9367C39.3284 55.9367 42.3578 55.5952 45.1401 55.0227L35.3071 45.8288C31.7667 45.6665 28.4174 44.2786 25.9109 41.935C23.4044 39.5914 21.92 36.4599 21.7465 33.1495V33.1495ZM36.0018 9.0633C29.3593 9.0633 23.9164 10.4159 19.3795 12.4047L6.1125 0L1.04919 4.73421L65.5043 65L70.5677 60.2658L58.758 49.2238C68.2043 42.6849 71.5739 33.6986 71.624 33.558L72 32.5L71.624 31.442C71.5452 31.2177 63.3344 9.0633 36.0018 9.0633ZM42.8269 34.3281C43.4965 32.0614 42.9271 29.5101 41.0651 27.7658C39.2031 26.0214 36.4709 25.4924 34.0467 26.1185L28.6467 21.0696C30.8596 19.7973 33.4041 19.1185 36.0018 19.1076C43.9011 19.1076 50.3252 25.1141 50.3252 32.5C50.3145 34.9284 49.5872 37.307 48.2232 39.3736L42.8269 34.3281V34.3281Z" fill="#F8A2A2"/>
</svg>
