<svg width="47" height="31" viewBox="0 0 47 31" fill="none" xmlns="http://www.w3.org/2000/svg">
<path d="M46 0H31C31 0 30 8 32 16C32.804 17.34 34.79 18.062 37 18.245V28H36.667L33 31H44L40.416 28H40V18.172C42.12 17.897 44.063 17.158 45 16C47 9 46 0 46 0ZM45 6H32V1H45V6ZM20.5 28H15V19.5L26 3H0L11 19.5V28H5.5C5.10218 28 4.72064 28.158 4.43934 28.4393C4.15804 28.7206 4 29.1022 4 29.5C4 29.8978 4.15804 30.2794 4.43934 30.5607C4.72064 30.842 5.10218 31 5.5 31H20.5C20.8978 31 21.2794 30.842 21.5607 30.5607C21.842 30.2794 22 29.8978 22 29.5C22 29.1022 21.842 28.7206 21.5607 28.4393C21.2794 28.158 20.8978 28 20.5 28Z" fill="black"/>
</svg>
