<svg width="166" height="166" viewBox="0 0 166 166" fill="none" xmlns="http://www.w3.org/2000/svg">
<path d="M83.0001 160.735C124.084 160.735 157.389 127.43 157.389 86.346C157.389 45.2623 124.084 11.9573 83.0001 11.9573C41.9163 11.9573 8.61133 45.2623 8.61133 86.346C8.61133 127.43 41.9163 160.735 83.0001 160.735Z" fill="#D68F30"/>
<path d="M13.6689 105.669V113.269C14.4471 115.279 15.316 117.264 16.2627 119.183V105.669H13.6689ZM22.1505 119.974V129.104C23.188 130.569 24.2644 132.009 25.3927 133.397V119.974H22.1505ZM33.3814 131.905V141.749C34.6394 142.877 35.9363 143.953 37.2721 144.991V131.905H33.3814ZM47.2061 140.97V151.553C48.4771 152.253 49.7739 152.915 51.0968 153.55V140.97H47.2061ZM62.8854 146.741V157.946C64.1693 158.31 65.4661 158.634 66.776 158.932V146.741H62.8854ZM81.2361 148.739V160.683C81.8197 160.696 82.4033 160.722 82.9999 160.722C83.7132 160.722 84.4264 160.683 85.1268 160.67V148.739H81.2361V148.739ZM99.5869 146.651V158.841C100.897 158.543 102.194 158.206 103.478 157.843V146.651H99.5869V146.651ZM115.227 140.802V153.394C116.55 152.759 117.847 152.072 119.118 151.358V140.802H115.227ZM129.013 131.659V144.757C130.348 143.714 131.646 142.624 132.904 141.489V131.659H129.013ZM144.07 119.689H140.828V133.111C141.956 131.711 143.045 130.271 144.07 128.793V119.689ZM152.499 105.332H149.906V118.872C150.852 116.913 151.721 114.903 152.499 112.867V105.332Z" fill="#BC6F00"/>
<path d="M83.0001 154.043C124.084 154.043 157.389 120.738 157.389 79.6541C157.389 38.5704 124.084 5.26538 83.0001 5.26538C41.9163 5.26538 8.61133 38.5704 8.61133 79.6541C8.61133 120.738 41.9163 154.043 83.0001 154.043Z" fill="#FFF176"/>
<path d="M83 147.416C120.424 147.416 150.762 117.078 150.762 79.6541C150.762 42.2303 120.424 11.8923 83 11.8923C45.5762 11.8923 15.2383 42.2303 15.2383 79.6541C15.2383 117.078 45.5762 147.416 83 147.416Z" fill="#F2BC1A"/>
<path d="M15.1086 82.2478C14.6287 73.3253 16.172 64.2732 19.2845 55.7916C22.5267 47.336 27.4937 39.5158 33.7577 32.8758C46.3373 19.5699 64.5973 11.8535 83 11.7627C101.403 11.8664 119.676 19.5699 132.229 32.8888C138.506 39.5158 143.46 47.3489 146.702 55.7916C149.828 64.2861 151.371 73.3253 150.878 82.2478H150.619C150.594 73.3469 148.831 64.5364 145.432 56.3103C142.026 48.0936 137.053 40.6185 130.79 34.3024C124.523 27.9925 117.076 22.9777 108.873 19.5439C100.672 16.12 91.8737 14.357 82.987 14.357C74.1004 14.357 65.302 16.12 57.1014 19.5439C48.8981 22.9777 41.4508 27.9925 35.1842 34.3024C28.9172 40.6151 23.9435 48.091 20.5425 56.3103C17.1426 64.5364 15.3805 73.3469 15.355 82.2478H15.1086V82.2478Z" fill="#E08F00"/>
<path d="M83.0001 5.27832C41.9151 5.27832 8.61133 38.5821 8.61133 79.6671C8.61133 120.752 41.9151 154.056 83.0001 154.056C124.085 154.056 157.389 120.752 157.389 79.6671C157.389 38.5821 124.085 5.27832 83.0001 5.27832ZM83.0001 147.429C45.5723 147.429 15.2384 117.095 15.2384 79.6671C15.2384 42.2263 45.5723 11.8924 83.0001 11.8924C120.428 11.8924 150.762 42.2263 150.762 79.6541C150.762 117.082 120.428 147.429 83.0001 147.429Z" fill="#FFF176"/>
<path d="M83.0001 5.27832C41.9151 5.27832 8.61133 38.5821 8.61133 79.6671C8.61133 120.752 41.9151 154.056 83.0001 154.056C124.085 154.056 157.389 120.752 157.389 79.6671C157.389 38.5821 124.085 5.27832 83.0001 5.27832ZM83.0001 147.429C45.5723 147.429 15.2384 117.095 15.2384 79.6671C15.2384 42.2263 45.5723 11.8924 83.0001 11.8924C120.428 11.8924 150.762 42.2263 150.762 79.6541C150.762 117.082 120.428 147.429 83.0001 147.429Z" fill="#FFF176"/>
<path d="M49.2681 27.6882L50.9152 32.785L56.2842 30.7359V32.785L51.9397 35.9364L53.5997 38.971V41.0331L49.2681 37.8817L44.9236 41.0331V38.971L46.5836 35.9364L42.2521 32.785V30.7359L47.6081 32.785L49.2681 27.6882ZM28.5441 56.9457L30.2041 62.0424L35.5602 59.9934V62.0424L31.2286 65.1939L32.8886 68.2415V70.2906L28.5441 67.1392L24.2125 70.2906V68.2415L25.8725 65.1939L21.528 62.0424V59.9934L26.8971 62.0424L28.5441 56.9457ZM27.9346 93.0118L29.5946 98.1085L34.9506 96.0595V98.1085L30.6191 101.26L32.2791 104.308V106.357L27.9346 103.205L23.603 106.357V104.308L25.263 101.26L20.9185 98.1085V96.0595L26.2875 98.1085L27.9346 93.0118ZM50.0592 121.647L51.7192 126.744L57.0753 124.694V126.744L52.7438 129.895L54.4038 132.93V134.992L50.0592 131.84L45.7277 134.992V132.93L47.3877 129.895L43.0431 126.744V124.694L48.4122 126.744L50.0592 121.647ZM116.732 27.6882L115.085 32.785L109.715 30.7359V32.785L114.06 35.9364L112.4 38.971V41.0331L116.732 37.8817L121.076 41.0331V38.971L119.416 35.9364L123.748 32.785V30.7359L118.392 32.785L116.732 27.6882ZM137.456 56.9457L135.796 62.0424L130.44 59.9934V62.0424L134.771 65.1939L133.111 68.2415V70.2906L137.456 67.1392L141.787 70.2906V68.2415L140.127 65.1939L144.472 62.0424V59.9934L139.103 62.0424L137.456 56.9457ZM138.065 93.0118L136.405 98.1085L131.049 96.0595V98.1085L135.381 101.26L133.721 104.308V106.357L138.065 103.205L142.397 106.357V104.308L140.737 101.26L145.081 98.1085V96.0595L139.712 98.1085L138.065 93.0118ZM115.94 121.647L114.28 126.744L108.924 124.694V126.744L113.256 129.895L111.596 132.93V134.992L115.94 131.84L120.272 134.992V132.93L118.612 129.895L122.957 126.744V124.694L117.588 126.744L115.94 121.647Z" fill="#D38200"/>
<path d="M115.94 119.585L117.587 124.682H122.957L118.612 127.833L120.272 132.93L115.94 129.778L111.596 132.93L113.256 127.833L108.924 124.682H114.28L115.94 119.585ZM138.065 90.9628L139.712 96.0595H145.081L140.737 99.2109L142.397 104.308L138.065 101.156L133.721 104.308L135.381 99.2109L131.049 96.0595H136.405L138.065 90.9628ZM137.456 54.8967L139.103 59.9934H144.472L140.127 63.1448L141.787 68.2415L137.456 65.0901L133.111 68.2415L134.771 63.1448L130.439 59.9934H135.796L137.456 54.8967ZM116.732 25.6262L118.392 30.7229H123.748L119.416 33.8743L121.076 38.9711L116.732 35.8197L112.4 38.9711L114.06 33.8743L109.715 30.7229H115.084L116.732 25.6262Z" fill="#FFF176"/>
<path d="M83.0649 132.93L84.7249 138.026L90.081 135.977V138.026L85.7495 141.178L87.4095 144.225V146.275L83.0649 143.123L78.7334 146.275V144.225L80.3934 141.178L76.0488 138.026V135.977L81.4179 138.026L83.0649 132.93Z" fill="#D38200"/>
<path d="M83.0649 130.206L84.7249 135.303H90.081L85.7495 138.454L87.4095 143.551L83.0649 140.4L78.7334 143.551L80.3934 138.454L76.0488 135.303H81.4179L83.0649 130.206Z" fill="#FFF176"/>
<path d="M83.0649 16.7168L84.7249 21.8135L90.081 19.7645V21.8135L85.7495 24.9649L87.4095 28.0126V30.0616L83.0649 26.9102L78.7334 30.0616V28.0126L80.3934 24.9649L76.0488 21.8135V19.7645L81.4179 21.8135L83.0649 16.7168Z" fill="#D38200"/>
<path d="M83.0647 14.6677L84.7247 19.7644H90.0808L85.7492 22.9158L87.4092 28.0126L83.0647 24.8612L78.7331 28.0126L80.3931 22.9158L76.0486 19.7644H81.4177L83.0647 14.6677ZM50.0592 119.585L48.4122 124.682H43.0431L47.3877 127.833L45.7277 132.93L50.0592 129.778L54.4038 132.93L52.7438 127.833L57.0753 124.682H51.7192L50.0592 119.585ZM27.9346 90.9629L26.2875 96.0596H20.9185L25.263 99.211L23.603 104.308L27.9346 101.156L32.2791 104.308L30.6191 99.211L34.9506 96.0596H29.5946L27.9346 90.9629ZM28.5441 54.8968L26.8971 59.9935H21.528L25.8725 63.1449L24.2125 68.2416L28.5441 65.0902L32.8886 68.2416L31.2286 63.1449L35.5602 59.9935H30.2041L28.5441 54.8968ZM49.2681 25.6263L47.6081 30.723H42.2521L46.5836 33.8744L44.9236 38.9712L49.2681 35.8198L53.5997 38.9712L51.9397 33.8744L56.2842 30.723H50.9152L49.2681 25.6263Z" fill="#FFF176"/>
<path d="M123.489 62.5094C123.489 62.0554 42.5896 62.5094 42.5896 62.5094L41.8633 64.6881V68.4101C41.8633 69.0845 42.408 69.6292 43.0824 69.6292H122.918C123.592 69.6292 124.137 69.0845 124.137 68.4101V64.7919L123.489 62.5094ZM123.605 110.883H42.9267L37.5317 113.593L37.5966 117.082C37.6095 117.458 37.9208 117.769 38.3099 117.769H127.703C128.08 117.769 128.404 117.471 128.417 117.082L128.482 113.658L123.605 110.883Z" fill="#D38200"/>
<path d="M55.9341 100.274H51.2913C50.5262 100.274 49.9037 97.8621 49.9037 97.097L57.3088 96.8636C57.3088 97.6287 56.6863 100.274 55.9341 100.274V100.274ZM57.5163 75.2317H49.6962C49.1126 75.2317 48.6068 74.8426 48.4382 74.285L47.8287 69.1882H59.2801L58.7613 74.285C58.6057 74.8426 58.0999 75.2317 57.5163 75.2317ZM49.6962 101.818H57.5163C58.0999 101.818 59.2541 102.181 59.4098 102.738C59.4098 102.738 59.3709 105.164 59.3709 106.123C59.3709 107.083 58.9818 107.783 58.1129 107.783H49.0996C48.2307 107.783 47.8416 107.005 47.8416 106.123C47.8416 105.241 47.8027 102.764 47.8027 102.764C47.9713 102.207 49.1126 101.818 49.6962 101.818V101.818ZM116.239 100.274H111.596C110.831 100.274 110.208 97.8621 110.208 97.097L117.614 96.8636C117.614 97.6287 117.004 100.274 116.239 100.274V100.274ZM117.821 75.2317H110.001C109.417 75.2317 108.911 74.8426 108.743 74.285L108.133 69.1882H119.585L119.066 74.285C118.91 74.8426 118.405 75.2317 117.821 75.2317ZM110.001 101.818H117.821C118.405 101.818 119.559 102.181 119.714 102.738C119.714 102.738 119.676 105.164 119.676 106.123C119.676 107.083 119.286 107.783 118.418 107.783H109.404C108.535 107.783 108.146 107.005 108.146 106.123C108.146 105.241 108.107 102.764 108.107 102.764C108.276 102.207 109.417 101.818 110.001 101.818V101.818ZM96.1373 100.274H91.4945C90.7293 100.274 90.1068 97.8621 90.1068 97.097L97.512 96.8636C97.512 97.6287 96.9024 100.274 96.1373 100.274V100.274ZM97.7195 75.2317H89.8993C89.3157 75.2317 88.8099 74.8426 88.6413 74.285L88.0318 69.1882H99.4832L98.9644 74.285C98.8088 74.8426 98.303 75.2317 97.7195 75.2317ZM89.8993 101.818H97.7195C98.303 101.818 99.4573 102.181 99.6129 102.738C99.6129 102.738 99.574 105.164 99.574 106.123C99.574 107.083 99.1849 107.783 98.316 107.783H89.3027C88.4338 107.783 88.0448 107.005 88.0448 106.123C88.0448 105.241 88.0059 102.764 88.0059 102.764C88.1745 102.207 89.3157 101.818 89.8993 101.818V101.818ZM76.0357 100.274H71.3929C70.6277 100.274 70.0052 97.8621 70.0052 97.097L77.4104 96.8636C77.4104 97.6287 76.8009 100.274 76.0357 100.274V100.274ZM77.6179 75.2317H69.7977C69.2141 75.2317 68.7084 74.8426 68.5398 74.285L67.9302 69.1882H79.3816L78.8629 74.285C78.7073 74.8426 78.2015 75.2317 77.6179 75.2317ZM69.7977 101.818H77.6179C78.2015 101.818 79.3557 102.181 79.5113 102.738C79.5113 102.738 79.4724 105.164 79.4724 106.123C79.4724 107.083 79.0834 107.783 78.2145 107.783H69.2012C68.3323 107.783 67.9432 107.005 67.9432 106.123C67.9432 105.241 67.9043 102.764 67.9043 102.764C68.0729 102.207 69.2141 101.818 69.7977 101.818V101.818Z" fill="#D38200"/>
<path d="M124.072 59.0338C124.072 58.5799 123.839 58.1519 123.489 57.9444L83.052 34.9897L42.5636 57.9185C42.1745 58.1519 41.9281 58.5799 41.9281 59.0338L41.8633 64.7012C41.8633 65.4144 42.4469 65.998 43.1602 65.998H122.827C123.54 65.998 124.124 65.4144 124.124 64.7012L124.072 59.0338V59.0338Z" fill="#FFF176"/>
<path d="M113.918 57.4906L83 39.9438L52.0825 57.4906H113.918Z" fill="#F2BC1A"/>
<path d="M102.544 55.3505L82.9999 44.2493L63.4559 55.3505H102.544ZM121.115 106.37H44.8847C44.1325 106.37 43.4192 106.694 42.9135 107.251L37.6741 113.1C37.3109 113.502 37.5963 114.138 38.1409 114.138H127.859C128.39 114.138 128.676 113.502 128.326 113.1L123.073 107.251C122.58 106.694 121.854 106.37 121.115 106.37V106.37ZM116.239 97.9269H111.596C110.831 97.9269 110.208 97.3044 110.208 96.5393V75.8152C110.208 75.05 110.831 74.4275 111.596 74.4275H116.239C117.004 74.4275 117.626 75.05 117.626 75.8152V96.5522C117.626 97.3174 117.004 97.9269 116.239 97.9269ZM117.834 72.8843H110.014C109.43 72.8843 108.924 72.4952 108.756 71.9376L108.159 69.8755C107.913 69.0455 108.548 68.2155 109.417 68.2155H118.43C119.299 68.2155 119.922 69.0455 119.688 69.8755L119.092 71.9376C118.923 72.4952 118.405 72.8843 117.834 72.8843V72.8843ZM110.001 99.4832H117.821C118.405 99.4832 118.91 99.8722 119.079 100.43L119.675 102.492C119.922 103.322 119.286 104.152 118.418 104.152H109.404C108.535 104.152 107.913 103.322 108.146 102.492L108.743 100.43C108.911 99.8593 109.43 99.4832 110.001 99.4832V99.4832ZM55.9341 97.9269H51.2913C50.5261 97.9269 49.9036 97.3044 49.9036 96.5393V75.8152C49.9036 75.05 50.5261 74.4275 51.2913 74.4275H55.9341C56.6992 74.4275 57.3217 75.05 57.3217 75.8152V96.5522C57.3088 97.3174 56.6863 97.9269 55.9341 97.9269ZM57.5163 72.8843H49.6961C49.1125 72.8843 48.6067 72.4952 48.4381 71.9376L47.8416 69.8755C47.5952 69.0455 48.2306 68.2155 49.0995 68.2155H58.1128C58.9817 68.2155 59.6042 69.0455 59.3708 69.8755L58.7742 71.9376C58.6056 72.4952 58.0999 72.8843 57.5163 72.8843ZM49.6961 99.4832H57.5163C58.0999 99.4832 58.6056 99.8722 58.7742 100.43L59.3708 102.492C59.6172 103.322 58.9817 104.152 58.1128 104.152H49.0995C48.2306 104.152 47.6081 103.322 47.8416 102.492L48.4381 100.43C48.6067 99.8593 49.1125 99.4832 49.6961 99.4832ZM76.0356 97.9269H71.3928C70.6277 97.9269 70.0052 97.3044 70.0052 96.5393V75.8152C70.0052 75.05 70.6277 74.4275 71.3928 74.4275H76.0356C76.8008 74.4275 77.4233 75.05 77.4233 75.8152V96.5522C77.4199 96.918 77.2722 97.2677 77.0123 97.5251C76.7524 97.7825 76.4014 97.9269 76.0356 97.9269V97.9269ZM77.6178 72.8843H69.7977C69.2141 72.8843 68.7083 72.4952 68.5397 71.9376L67.9431 69.8755C67.6967 69.0455 68.3322 68.2155 69.2011 68.2155H78.2144C79.0833 68.2155 79.7058 69.0455 79.4724 69.8755L78.8758 71.9376C78.7072 72.4952 78.2014 72.8843 77.6178 72.8843ZM69.7977 99.4832H77.6178C78.2014 99.4832 78.7072 99.8722 78.8758 100.43L79.4724 102.492C79.7188 103.322 79.0833 104.152 78.2144 104.152H69.2011C68.3322 104.152 67.7097 103.322 67.9431 102.492L68.5397 100.43C68.7083 99.8593 69.2141 99.4832 69.7977 99.4832ZM96.1372 97.9269H91.4944C90.7292 97.9269 90.1067 97.3044 90.1067 96.5393V75.8152C90.1067 75.05 90.7292 74.4275 91.4944 74.4275H96.1372C96.9024 74.4275 97.5249 75.05 97.5249 75.8152V96.5522C97.5214 96.918 97.3737 97.2677 97.1139 97.5251C96.854 97.7825 96.503 97.9269 96.1372 97.9269V97.9269ZM97.7194 72.8843H89.8992C89.3156 72.8843 88.8099 72.4952 88.6413 71.9376L88.0447 69.8755C87.7983 69.0455 88.4338 68.2155 89.3027 68.2155H98.3159C99.1849 68.2155 99.8074 69.0455 99.5739 69.8755L98.9774 71.9376C98.8088 72.4952 98.303 72.8843 97.7194 72.8843V72.8843ZM89.8992 99.4832H97.7194C98.303 99.4832 98.8088 99.8722 98.9774 100.43L99.5739 102.492C99.8203 103.322 99.1849 104.152 98.3159 104.152H89.3027C88.4338 104.152 87.8113 103.322 88.0447 102.492L88.6413 100.43C88.8099 99.8593 89.3286 99.4832 89.8992 99.4832V99.4832Z" fill="#FFF176"/>
</svg>
