<svg width="276" height="276" viewBox="0 0 276 276" fill="none" xmlns="http://www.w3.org/2000/svg">
<path d="M136.491 11.0616C86.2501 13.8647 39.7182 22.2957 35.8585 74.3044C33.2063 110.249 59.7713 147.013 87.9104 168.058C124.2 195.184 179.724 227.873 224.724 213.684C268.475 199.884 266.448 142.873 262.028 105.031C256.098 54.0788 239.969 39.5241 215.905 22.1447C191.303 4.37724 155.552 9.96192 136.491 11.0616Z" fill="#ED6C30"/>
<path d="M68.9569 23.3522C68.6982 23.5247 68.4179 23.654 68.1591 23.8481C64.9679 25.7672 62.7685 28.3978 62.4666 32.3006C62.0785 37.0659 63.3507 42.6075 67.1457 45.9281C84.8269 61.4962 131.143 62.1431 139.057 35.8153C141.407 27.9234 141.364 19.6003 135.65 12.8728C133.666 10.5009 131.79 7.7409 128.685 7.09403C124.545 6.27465 119.823 7.97809 115.748 8.49559C110.422 9.14247 104.233 10.3068 99.2954 12.1181C92.7835 14.5331 85.5816 16.6678 78.8326 19.0397C75.4904 20.204 72.0404 21.6056 68.9569 23.3522V23.3522ZM227.937 32.8828C220.671 26.7159 212.024 22.8347 202.58 23.46C186.861 24.4734 176.424 36.7209 175.756 52.0518C174.85 72.2559 188.111 91.9425 205.275 101.063C215.388 106.454 228.024 110.68 238.417 104.19C250.125 96.8372 251.634 77.4093 248.098 64.8384C244.972 53.7553 237.791 41.249 227.937 32.8828V32.8828ZM252.281 187.852C259.785 178.106 260.454 164.565 260.669 152.49C260.734 148.954 262.308 123.381 255.753 123.273C251.505 123.187 247.171 124.459 243.484 126.141C216.531 138.345 217.393 176.963 242.708 191.561C245.381 193.071 246.071 194.019 248.486 191.928C249.909 190.634 251.182 189.276 252.281 187.852V187.852Z" fill="white"/>
<path d="M203.313 223.97C157.191 223.97 108.804 191.798 84.0722 172.629C48.8176 145.267 29.2172 109.883 28.8938 72.9244C32.7104 15.9347 99.4032 3.12661 138.819 0.539111C140.652 0.409736 143.563 0.323486 147.207 0.323486C155.293 0.323486 176.166 0.797861 195.162 5.23974C210.256 8.75442 226.643 17.6813 235.958 27.4491C250.815 43.0604 263.408 71.6091 268.022 100.158C273.413 133.601 269.531 169.524 263.149 186.365C256.443 204.197 243.937 216.121 226.967 220.843C219.549 222.913 211.593 223.97 203.313 223.97V223.97ZM147.207 13.5844C143.951 13.5844 141.342 13.6707 139.703 13.7785C104.621 16.0857 45.2813 26.91 42.1547 73.3125C42.3704 96.0179 51.211 130.324 92.2013 162.107C115.597 180.241 161.137 210.666 203.313 210.666C210.385 210.666 217.156 209.782 223.409 208.035C236.303 204.434 245.511 195.572 250.729 181.643C255.667 168.597 260.216 135.326 254.912 102.228C250.772 76.5469 239.279 50.1329 226.342 36.5485C218.795 28.6351 204.736 21.045 192.143 18.1125C173.988 13.9079 153.18 13.5844 147.207 13.5844V13.5844Z" fill="#ED6C30"/>
<path d="M56.7094 87.9965C44.5482 96.8156 63.135 128.685 71.5228 137.806C84.525 152.016 106.648 170.042 131.229 183.195C151.283 193.911 164.932 198.785 177.589 202.148C197.383 207 210.881 205.706 214.504 198.72C216.078 195.723 214.353 184.575 202.666 169.934C190.375 154.495 167.692 135.412 156.824 127.283C121.354 100.481 92.1366 90.0234 85.9266 87.9534C71.1347 83.0156 61.2591 84.0721 56.7094 87.9965V87.9965Z" fill="#855C52"/>
<path d="M106.044 122.281C100.697 126.723 93.4951 133.537 88.816 136.469C77.7976 143.369 66.0245 148.415 54.0573 151.994C34.1982 157.924 18.8241 170.042 10.4795 190.936C2.65227 211.075 4.57133 228.261 11.9026 241.716C21.2823 259.462 36.4623 268.41 51.2757 272.55C70.2723 277.854 101.064 280.873 129.246 243.354C141.903 226.794 155.789 190.591 159.692 169.438C160.123 167.109 160.835 163.767 161.309 160.36C161.482 159.131 161.417 153.719 159.174 150.053C157.148 146.733 149.277 138.906 139.445 132.286C131.186 126.723 120.017 121.526 114.26 120.319C108.74 119.154 106.993 121.462 106.044 122.281V122.281Z" fill="#FCD4B5"/>
<mask id="mask0_118_676" style="mask-type:alpha" maskUnits="userSpaceOnUse" x="5" y="119" width="157" height="157">
<path d="M106.044 122.281C100.697 126.723 93.4951 133.537 88.816 136.469C77.7976 143.369 66.0245 148.415 54.0573 151.994C34.1982 157.924 18.8241 170.042 10.4795 190.936C2.65227 211.075 4.57133 228.261 11.9026 241.716C21.2823 259.462 36.4623 268.41 51.2757 272.55C70.2723 277.854 101.064 280.873 129.246 243.354C141.903 226.794 155.789 190.591 159.692 169.438C160.123 167.109 160.835 163.767 161.309 160.36C161.482 159.131 161.417 153.719 159.174 150.053C157.148 146.733 149.277 138.906 139.445 132.286C131.186 126.723 120.017 121.526 114.26 120.319C108.74 119.154 106.993 121.462 106.044 122.281V122.281Z" fill="white"/>
</mask>
<g mask="url(#mask0_118_676)">
<path d="M5.47707 217.975C5.47707 217.975 24.948 253.187 78.4661 245.122C139.639 235.894 159.153 141.579 159.153 141.579L173.708 167.497C173.708 167.497 166.916 223.086 139.704 254.955C112.513 286.824 68.3964 301.12 23.7836 269.704C-8.81887 246.761 5.47707 217.975 5.47707 217.975V217.975Z" fill="#B89278"/>
</g>
<circle cx="83" cy="157" r="9" fill="#855C52"/>
<circle cx="109" cy="176" r="8" fill="#855C52"/>
<path d="M61 180C61.5 188.167 67.6 203.8 88 201" stroke="#E99770" stroke-width="6"/>
</svg>
