<svg width="21" height="14" viewBox="0 0 21 14" fill="none" xmlns="http://www.w3.org/2000/svg">
<path fill-rule="evenodd" clip-rule="evenodd" d="M0.105957 6.68408C0.126953 6.61694 2.4209 0 10.0542 0C17.687 0 19.981 6.61694 20.0029 6.68408L20.1079 7L20.002 7.31592C19.981 7.38306 17.687 14 10.0542 14C2.4209 14 0.126953 7.38306 0.10498 7.31592L0 7L0.105957 6.68408ZM6.0542 7C6.0542 9.20605 7.84814 11 10.0542 11C12.2598 11 14.0542 9.20605 14.0542 7C14.0542 4.79395 12.2598 3 10.0542 3C7.84814 3 6.0542 4.79395 6.0542 7ZM8.0542 7C8.0542 5.91602 8.97021 5 10.0542 5C11.1382 5 12.0542 5.91602 12.0542 7C12.0542 8.08398 11.1382 9 10.0542 9C8.97021 9 8.0542 8.08398 8.0542 7Z" fill="#D21E1E"/>
</svg>
