<svg width="31" height="31" viewBox="0 0 31 31" fill="none" xmlns="http://www.w3.org/2000/svg">
<path d="M29.9408 24.8171L24.7041 19.5729L20.6762 17.9064C22.0173 15.9965 22.7359 13.7179 22.7333 11.3829C22.7333 5.10634 17.6342 0 11.3666 0C5.09904 0 0 5.10634 0 11.3829C0 17.6595 5.09904 22.7658 11.3666 22.7658C13.7185 22.7685 16.0127 22.0365 17.9295 20.6718L19.5893 24.6947L24.8258 29.9391C25.1616 30.2754 25.5603 30.5422 25.9991 30.7243C26.4379 30.9063 26.9082 31 27.3832 31C27.8581 31 28.3284 30.9063 28.7672 30.7243C29.206 30.5423 29.6047 30.2756 29.9406 29.9393C30.2765 29.6029 30.5429 29.2037 30.7246 28.7642C30.9064 28.3248 31 27.8538 31 27.3782C31 26.9026 30.9065 26.4316 30.7247 25.9922C30.543 25.5527 30.2766 25.1534 29.9408 24.8171ZM2.06666 11.3829C2.06666 6.24767 6.23874 2.06962 11.3666 2.06962C16.4945 2.06962 20.6666 6.24767 20.6666 11.3829C20.6666 16.5182 16.4945 20.6962 11.3666 20.6962C6.23874 20.6962 2.06666 16.5182 2.06666 11.3829ZM28.4793 28.4757C28.1884 28.7663 27.7942 28.9296 27.3833 28.9296C26.9723 28.9296 26.5781 28.7663 26.2872 28.4757L21.342 23.5233L19.7988 19.7828L23.5341 21.3282L28.4794 26.2805C28.7697 26.5719 28.9326 26.9666 28.9326 27.3781C28.9326 27.7896 28.7696 28.1844 28.4793 28.4757Z" fill="black"/>
</svg>
