<svg width="228" height="228" viewBox="0 0 228 228" fill="none" xmlns="http://www.w3.org/2000/svg">
<path fill-rule="evenodd" clip-rule="evenodd" d="M114 0C51.072 0 0 51.072 0 114C0 176.928 51.072 228 114 228C176.928 228 228 176.928 228 114C228 51.072 176.928 0 114 0ZM182.4 114C182.4 151.734 151.734 182.4 114 182.4C76.266 182.4 45.6 151.734 45.6 114H68.4C68.4 139.194 88.806 159.6 114 159.6C139.194 159.6 159.6 139.194 159.6 114C159.6 88.806 139.194 68.4 114 68.4V102.6L68.4 57L114 11.4V45.6C151.734 45.6 182.4 76.266 182.4 114Z" fill="#D65757"/>
</svg>
