<svg width="31" height="31" viewBox="0 0 31 31" fill="none" xmlns="http://www.w3.org/2000/svg">
<path d="M29.0586 0.76536L29.8997 1.6064C31.0586 2.76675 30.8832 4.82373 29.5048 6.20075L12.1609 23.5447L6.54157 25.6002C5.83596 25.8597 5.14887 25.5233 5.00917 24.8519C4.96196 24.6083 4.98419 24.3564 5.07332 24.1249L7.16879 18.4571L24.4643 1.16022C25.8427 -0.216803 27.8997 -0.393563 29.0586 0.766785V0.76536ZM11.4039 2.4902C11.5911 2.4902 11.7765 2.52707 11.9494 2.59871C12.1224 2.67035 12.2795 2.77535 12.4119 2.90772C12.5443 3.04009 12.6493 3.19723 12.7209 3.37018C12.7925 3.54313 12.8294 3.72849 12.8294 3.91569C12.8294 4.10289 12.7925 4.28826 12.7209 4.4612C12.6493 4.63415 12.5443 4.7913 12.4119 4.92367C12.2795 5.05604 12.1224 5.16104 11.9494 5.23267C11.7765 5.30431 11.5911 5.34118 11.4039 5.34118H5.70196C4.94583 5.34118 4.22067 5.64155 3.68601 6.17622C3.15135 6.71088 2.85098 7.43604 2.85098 8.19216V25.298C2.85098 26.0542 3.15135 26.7793 3.68601 27.314C4.22067 27.8487 4.94583 28.149 5.70196 28.149H22.8078C23.564 28.149 24.2891 27.8487 24.8238 27.314C25.3585 26.7793 25.6588 26.0542 25.6588 25.298V19.5961C25.6588 19.218 25.809 18.8554 26.0763 18.5881C26.3437 18.3208 26.7062 18.1706 27.0843 18.1706C27.4624 18.1706 27.825 18.3208 28.0923 18.5881C28.3596 18.8554 28.5098 19.218 28.5098 19.5961V25.298C28.5098 26.8103 27.9091 28.2606 26.8397 29.3299C25.7704 30.3993 24.3201 31 22.8078 31H5.70196C4.18971 31 2.73939 30.3993 1.67007 29.3299C0.600741 28.2606 0 26.8103 0 25.298V8.19216C0 6.67991 0.600741 5.22959 1.67007 4.16027C2.73939 3.09094 4.18971 2.4902 5.70196 2.4902H11.4039V2.4902Z" fill="black"/>
</svg>
