<svg width="32" height="31" viewBox="0 0 32 31" fill="none" xmlns="http://www.w3.org/2000/svg">
<path d="M15.2341 12.581C15.3606 12.6232 15.4917 12.6539 15.6238 12.6733C15.8347 12.7269 16.0489 12.7645 16.2654 12.7873C16.3685 13.2834 16.6358 13.7303 17.0241 14.0559C17.4124 14.3815 17.8991 14.5667 18.4056 14.5817C18.9121 14.5967 19.4089 14.4407 19.8158 14.1387C20.2227 13.8366 20.516 13.4063 20.6483 12.9172C20.8967 12.0215 21.0244 11.0961 21.0278 10.1662C21.5716 9.42846 22.0189 8.62423 22.3588 7.77308L22.3736 7.73889L22.4956 7.4426L22.6517 7.0483C22.8185 6.61634 22.9762 6.18092 23.1246 5.74233L23.1554 5.65116L23.1668 5.6147C23.2443 5.38678 23.3218 5.13379 23.3947 4.87852C23.438 4.73151 23.479 4.58223 23.5189 4.4318C23.7063 3.76477 23.8291 3.0813 23.8859 2.3908V2.35661C23.9056 1.79142 23.7146 1.23906 23.3498 0.806894C22.985 0.374724 22.4726 0.0936049 21.9121 0.0181682C21.4688 -0.0387175 21.0186 0.0386923 20.6198 0.240388C20.2695 0.417748 19.971 0.682581 19.7532 1.00922C19.5354 1.33586 19.4056 1.71323 19.3765 2.10476V2.11615C19.2877 2.813 19.1234 3.49812 18.8865 4.15944C18.7725 4.50132 18.6586 4.8261 18.5446 5.1167C18.3167 4.99932 18.0774 4.90017 17.8335 4.8204L17.8119 4.81015C16.7857 4.4839 15.6723 4.57512 14.713 5.06403C13.7536 5.55295 13.0255 6.40018 12.6865 7.42217C12.3474 8.44415 12.4247 9.55858 12.9015 10.524C13.3784 11.4894 14.2164 12.228 15.2341 12.5799V12.581V12.581ZM19.5486 12.6163C19.488 12.8413 19.3583 13.0417 19.1779 13.1892C18.9975 13.3367 18.7754 13.4239 18.5429 13.4386C18.3103 13.4533 18.079 13.3948 17.8814 13.2712C17.6839 13.1476 17.53 12.9652 17.4415 12.7497C17.658 12.7109 17.8711 12.6562 18.0785 12.5856C18.7054 12.3625 19.2821 12.0178 19.7754 11.5713C19.7184 11.9246 19.6432 12.2722 19.5486 12.6163ZM13.7253 7.76168C13.8472 7.39422 14.0402 7.05437 14.2935 6.76155C14.5468 6.46874 14.8552 6.22869 15.2013 6.05513C15.5474 5.88157 15.9242 5.7779 16.3104 5.75004C16.6965 5.72218 17.0844 5.77067 17.4518 5.89276L17.4859 5.90415C17.7082 5.97481 17.9224 6.06825 18.1253 6.18221L18.1013 6.23805V6.25173C17.8465 6.84474 17.5004 7.39421 17.0757 7.8802L17.0575 7.89844L17.029 7.93148C16.9926 7.97437 16.9546 8.0158 16.915 8.0557C16.8774 8.04034 16.8394 8.0259 16.801 8.01239L16.7669 8.001C16.5855 7.94104 16.3878 7.95533 16.2169 8.04075C16.0461 8.12617 15.916 8.27577 15.8552 8.45683C15.8211 8.54507 15.8064 8.63966 15.8123 8.73408C15.8182 8.82851 15.8445 8.92053 15.8894 9.00384C15.9577 9.14971 16.074 9.26708 16.2187 9.3366C16.2575 9.34571 16.2951 9.35597 16.3327 9.36851C16.4352 9.40497 16.5424 9.4289 16.6506 9.43802C16.8241 9.44827 16.9969 9.40873 17.1486 9.32406C17.2284 9.28304 17.3047 9.23631 17.3765 9.18275C17.568 9.03233 17.7435 8.86367 17.8985 8.67564L17.9099 8.66424C18.419 8.09053 18.8334 7.43923 19.1372 6.73491C19.1727 6.6541 19.2061 6.5724 19.2375 6.4899C19.2389 6.4843 19.2389 6.47841 19.2375 6.47281L19.2489 6.44546C19.3123 6.29695 19.3738 6.14765 19.4335 5.9976L19.4722 5.89845L19.511 5.79817C19.9942 4.64149 20.3315 3.42896 20.5172 2.18909C20.5389 1.89342 20.6751 1.61785 20.8967 1.421C21.1176 1.22452 21.4073 1.12369 21.7024 1.14066C21.9474 1.15434 22.1811 1.25007 22.3634 1.41417C22.4909 1.52595 22.5918 1.66478 22.6588 1.82052C22.7259 1.97627 22.7573 2.14501 22.7508 2.31444C22.7394 2.49564 22.7178 2.68709 22.6882 2.88424C22.597 3.44492 22.4694 4.00104 22.3053 4.54462L22.2574 4.70416C22.0504 5.38324 21.8166 6.05384 21.5566 6.7144L21.5189 6.81013C21.4544 6.97371 21.3883 7.13668 21.3207 7.29901L21.3036 7.34004L21.2056 7.57707C20.8049 8.5068 20.2612 9.36811 19.5942 10.1298C19.0604 10.809 18.3327 11.3098 17.5076 11.5656C17.1206 11.6707 16.7167 11.6986 16.319 11.6477C16.1566 11.6276 15.9958 11.5956 15.8381 11.552C15.755 11.5448 15.6731 11.5276 15.5942 11.5007C15.2259 11.378 14.8854 11.1839 14.5922 10.9296C14.2989 10.6752 14.0586 10.3656 13.8851 10.0184C13.7115 9.67117 13.6081 9.29315 13.5807 8.90594C13.5532 8.51872 13.6024 8.1299 13.7253 7.76168V7.76168ZM11.4609 2.25518C11.3416 2.33973 11.2066 2.39951 11.0638 2.43098C10.921 2.46246 10.7734 2.46499 10.6296 2.43842C10.4858 2.41186 10.3488 2.35675 10.2267 2.27633C10.1046 2.19592 9.9998 2.09185 9.91858 1.97026C9.83737 1.84867 9.78136 1.71203 9.75385 1.56842C9.72634 1.42482 9.72791 1.27715 9.75844 1.13416C9.78898 0.991165 9.84786 0.855743 9.93163 0.735897C10.0154 0.61605 10.1223 0.514211 10.2461 0.436398C10.4873 0.28478 10.7782 0.233239 11.0568 0.292735C11.3354 0.352231 11.5798 0.518071 11.7381 0.754986C11.8963 0.991901 11.9559 1.2812 11.9041 1.56136C11.8524 1.84152 11.6934 2.09044 11.4609 2.25518V2.25518ZM25.0312 23.7319C25.1517 23.6463 25.2881 23.5858 25.4324 23.5539C25.5766 23.5219 25.7259 23.5192 25.8712 23.546C26.0165 23.5727 26.1551 23.6283 26.2785 23.7095C26.402 23.7907 26.508 23.8958 26.5901 24.0187C26.6722 24.1415 26.7289 24.2796 26.7568 24.4247C26.7847 24.5698 26.7831 24.7191 26.7523 24.8636C26.7215 25.0081 26.6621 25.145 26.5774 25.2662C26.4928 25.3873 26.3847 25.4903 26.2596 25.5689C26.016 25.7221 25.7222 25.7743 25.4408 25.7143C25.1593 25.6543 24.9123 25.4869 24.7524 25.2476C24.5924 25.0084 24.532 24.7162 24.5841 24.4332C24.6361 24.1501 24.7965 23.8985 25.0312 23.7319V23.7319ZM26.1696 7.87564C26.5202 7.87564 26.8565 7.73637 27.1044 7.48846C27.3523 7.24055 27.4915 6.90431 27.4915 6.55372C27.4915 6.20312 27.3523 5.86689 27.1044 5.61898C26.8565 5.37107 26.5202 5.23179 26.1696 5.23179C25.819 5.23179 25.4828 5.37107 25.2349 5.61898C24.987 5.86689 24.8477 6.20312 24.8477 6.55372C24.8477 6.90431 24.987 7.24055 25.2349 7.48846C25.4828 7.73637 25.819 7.87564 26.1696 7.87564V7.87564ZM5.29688 7.65228C5.15265 7.75307 4.98975 7.82404 4.81773 7.86105C4.64572 7.89806 4.46804 7.90035 4.29512 7.8678C4.12221 7.83525 3.95753 7.7685 3.81075 7.67147C3.66396 7.57445 3.53802 7.44909 3.44032 7.30276C3.34261 7.15643 3.2751 6.99206 3.24174 6.8193C3.20839 6.64653 3.20986 6.46885 3.24607 6.29666C3.28228 6.12447 3.3525 5.96124 3.45261 5.81655C3.55273 5.67185 3.68072 5.5486 3.82909 5.45401C4.12075 5.25937 4.47778 5.18856 4.82165 5.25717C5.16552 5.32577 5.46805 5.52816 5.66269 5.81982C5.85733 6.11148 5.92814 6.46852 5.85954 6.81238C5.79093 7.15625 5.58854 7.45878 5.29688 7.65342V7.65228Z" fill="black"/>
<path d="M31.2167 14.6883C31.0748 14.7539 30.9213 14.7909 30.7651 14.7971C30.6088 14.8034 30.4529 14.7788 30.3062 14.7247C29.0976 14.2725 27.7936 14.1366 26.5178 14.3299C25.2419 14.5231 24.0366 15.0392 23.0162 15.829C25.6681 15.8974 28.2606 16.6199 30.5637 17.9361C31.1269 18.254 31.5415 18.7816 31.7173 19.404C31.893 20.0263 31.8156 20.6929 31.5018 21.2584C31.1881 21.8239 30.6635 22.2424 30.0425 22.4227C29.4215 22.603 28.7543 22.5305 28.1865 22.221C26.8232 21.4297 25.307 20.9378 23.7388 20.7781C22.1706 20.6183 20.5864 20.7944 19.0915 21.2945C19.4732 22.0272 19.7593 22.8067 19.9405 23.6135C20.0054 23.854 20.0373 24.1036 20.0362 24.352C20.0749 24.6669 20.0461 24.9865 19.9518 25.2895C19.8575 25.5924 19.6998 25.8719 19.4892 26.1092C19.398 26.2004 19.2966 26.2802 19.1872 26.3474C18.8505 26.6709 18.4366 26.9027 17.9849 27.0209L3.46884 30.9069C3.00081 31.0318 2.50814 31.0312 2.04042 30.9052C1.57269 30.7792 1.1464 30.5322 0.804458 30.1891C0.462511 29.846 0.216968 29.4189 0.0925378 28.9508C-0.0318922 28.4826 -0.0308193 27.9899 0.095649 27.5223L3.98165 13.004C4.101 12.5472 4.33656 12.129 4.66541 11.7903C4.73028 11.6852 4.80673 11.5877 4.89332 11.4997C5.12323 11.2943 5.3936 11.1393 5.68702 11.0447C5.98045 10.9501 6.29043 10.918 6.59701 10.9504C6.87393 10.9436 7.15085 10.9789 7.41752 11.0553C8.12526 11.2151 8.81153 11.4584 9.46194 11.78C9.78103 9.9339 9.47334 8.03306 8.5856 6.38294C8.41785 6.07012 8.38125 5.70348 8.48383 5.36367C8.58641 5.02387 8.81978 4.73873 9.1326 4.57099C9.44542 4.40325 9.81206 4.36664 10.1519 4.46922C10.4917 4.57181 10.7768 4.80517 10.9445 5.11799C12.2773 7.60088 12.6132 10.4986 11.8836 13.2205C12.7682 13.8485 13.6092 14.5357 14.4009 15.2774C14.641 15.034 14.9667 14.8941 15.3085 14.8875C15.6503 14.8808 15.9812 15.008 16.2305 15.2419C16.4799 15.4758 16.6279 15.7978 16.6432 16.1394C16.6584 16.4809 16.5396 16.8149 16.312 17.07C17.9629 16.424 19.6987 16.0205 21.4652 15.8723C21.3252 15.7599 21.2122 15.6173 21.1347 15.4553C21.0572 15.2932 21.0172 15.1158 21.0176 14.9362C21.018 14.7565 21.0589 14.5793 21.1372 14.4176C21.2155 14.256 21.3292 14.114 21.4698 14.0022C22.8149 12.9384 24.4118 12.24 26.106 11.9744C27.8003 11.7089 29.5343 11.8853 31.1404 12.4866C31.3605 12.57 31.551 12.7165 31.6881 12.9079C31.8252 13.0992 31.9027 13.3268 31.9109 13.562C31.919 13.7973 31.8575 14.0297 31.734 14.23C31.6105 14.4304 31.4305 14.5898 31.2167 14.6883V14.6883ZM10.8317 23.0722L10.6255 22.8956L10.8146 23.0574L10.8317 23.0711V23.0722ZM10.8317 23.0722L10.9822 23.1999C10.9323 23.1566 10.8822 23.1137 10.8317 23.0711V23.0722ZM2.33722 29.8049C2.61072 29.879 2.90018 29.879 3.17482 29.8061L3.83351 29.634C2.90204 28.9586 2.06534 28.1614 1.34578 27.2636L1.19649 27.822C1.14113 28.0271 1.12672 28.2411 1.15409 28.4518C1.18146 28.6625 1.25007 28.8657 1.35601 29.0498C1.46195 29.234 1.60313 29.3955 1.77149 29.525C1.93985 29.6546 2.13209 29.7497 2.33722 29.8049V29.8049ZM4.15601 26.948C4.96694 27.6961 5.87969 28.3257 6.86709 28.818L10.0557 27.9645C8.81486 27.2313 7.65712 26.3659 6.60271 25.3833C5.22416 24.0809 4.02057 22.6049 3.02212 20.9925L2.11728 24.3759C2.67114 25.3258 3.35762 26.1919 4.15601 26.948V26.948ZM8.16395 23.7172C9.68477 25.1214 11.4296 26.2615 13.3263 27.0904L16.165 26.3292C13.569 25.3028 11.2305 23.7182 9.31493 21.6876C8.64419 21.0206 8.01111 20.3168 7.41866 19.5794C7.15655 19.2546 6.91268 18.9298 6.68476 18.6073C5.83203 17.456 5.15175 16.1864 4.66541 14.8387L3.86427 17.8711C4.95182 20.0519 6.40624 22.0294 8.16395 23.7172V23.7172ZM30.4247 19.2614C30.3128 19.126 30.1749 19.0143 30.019 18.9332H30.0133C28.082 17.8286 25.9289 17.1678 23.7104 16.9989C21.4919 16.8299 19.2636 17.1571 17.1872 17.9566L16.9684 18.0364L16.9787 18.0478C14.8196 18.9124 12.892 20.2687 11.3491 22.009C11.6443 22.2677 11.9303 22.5047 12.2141 22.7326C12.6118 23.0517 13.0118 23.3469 13.4676 23.6443C14.7112 22.2131 16.2875 21.1095 18.0579 20.4307C19.7841 19.7535 21.6404 19.473 23.4896 19.6097C25.3388 19.7463 27.1337 20.2968 28.7415 21.2204C29.0068 21.3795 29.3197 21.4397 29.6251 21.3902C29.9304 21.3408 30.2084 21.185 30.4099 20.9503C30.6114 20.7157 30.7234 20.4173 30.7261 20.108C30.7288 19.7987 30.6221 19.4985 30.4247 19.2603V19.2614Z" fill="black"/>
</svg>
