<svg width="172" height="172" viewBox="0 0 172 172" fill="none" xmlns="http://www.w3.org/2000/svg">
<path d="M86 10.75C44.4445 10.75 10.75 44.4445 10.75 86C10.75 127.555 44.4445 161.25 86 161.25C127.555 161.25 161.25 127.555 161.25 86C161.25 44.4445 127.555 10.75 86 10.75ZM115.646 109.129L110.843 115.68C110.738 115.823 110.606 115.943 110.455 116.035C110.304 116.127 110.136 116.187 109.961 116.214C109.786 116.24 109.608 116.232 109.437 116.19C109.265 116.147 109.103 116.071 108.961 115.966L81.1793 95.7086C81.0062 95.5843 80.8655 95.4202 80.7691 95.2303C80.6726 95.0403 80.6232 94.8299 80.625 94.6168V48.375C80.625 47.6359 81.2297 47.0312 81.9688 47.0312H90.048C90.7871 47.0312 91.3918 47.6359 91.3918 48.375V89.9473L115.344 107.265C115.949 107.685 116.083 108.525 115.646 109.129Z" fill="#2E9582"/>
</svg>
