<svg width="31" height="31" viewBox="0 0 31 31" fill="none" xmlns="http://www.w3.org/2000/svg">
<path d="M30.8287 2.56906V12.8453C30.8287 14.0442 29.9724 15.2431 28.7735 15.4144V24.4917C28.7735 26.7182 27.4033 31 22.2652 31H19.6961C20.3812 30.3149 21.0663 29.4586 21.4088 28.4309H22.2652C25.8619 28.4309 26.0331 25.1768 26.0331 24.663V15.4144C24.8343 15.2431 23.9779 14.2155 23.9779 12.8453V2.56906C23.9779 1.19889 25.1768 0 26.547 0H28.2597C29.6298 0 30.8287 1.19889 30.8287 2.56906ZM20.2099 26.0332C20.2099 28.6022 18.1547 30.8287 15.4144 30.8287H8.56354C3.42541 30.8287 2.05525 26.547 2.05525 24.3204V15.4144C0.856353 15.2431 0 14.0442 0 12.8453V2.56906C0 1.19889 1.19889 0 2.56906 0H4.28177C5.65193 0 6.85083 1.19889 6.85083 2.56906V12.8453C6.85083 14.0442 5.99447 15.2431 4.79558 15.4144V24.4917C4.79558 25.1768 4.96685 28.2597 8.56354 28.2597H11.3039C10.9613 27.5746 10.7901 26.8895 10.7901 26.2044V9.07735C10.7901 6.50829 12.8453 4.28177 15.5856 4.28177C18.326 4.28177 20.2099 6.33702 20.2099 9.07735M17.4696 8.90608C17.4696 7.87845 16.6133 6.85083 15.4144 6.85083C14.2155 6.85083 13.3591 7.87845 13.3591 8.90608V26.0332C13.3591 27.232 14.3867 28.0884 15.4144 28.0884C16.442 28.0884 17.4696 27.0608 17.4696 26.0332V8.90608V8.90608Z" fill="black"/>
</svg>
