<svg width="31" height="31" viewBox="0 0 31 31" fill="none" xmlns="http://www.w3.org/2000/svg">
<path fill-rule="evenodd" clip-rule="evenodd" d="M29.0237 4.84375C29.0493 4.52147 29.0623 4.1983 29.0625 3.875V1.9375H25.6719C23.1565 1.93802 20.709 2.75401 18.6966 4.26308C16.6841 5.77215 15.2152 7.89298 14.5099 10.3075C13.4242 8.90699 12.0322 7.77371 10.4406 6.99455C8.84905 6.21539 7.10019 5.81104 5.32812 5.8125H1.9375V7.75C1.9375 10.8331 3.16227 13.79 5.34238 15.9701C7.52249 18.1502 10.4794 19.375 13.5625 19.375H14.0469V27.6094C14.0469 27.9948 14.2 28.3644 14.4725 28.6369C14.745 28.9094 15.1146 29.0625 15.5 29.0625C15.8854 29.0625 16.255 28.9094 16.5275 28.6369C16.8 28.3644 16.9531 27.9948 16.9531 27.6094V15.5H17.4375C20.3532 15.5004 23.1627 14.4051 25.3087 12.4313C27.4548 10.4575 28.7808 7.74934 29.0237 4.84375V4.84375ZM17.0054 12.5938C17.2438 10.4621 18.2595 8.49315 19.8583 7.06337C21.4572 5.63359 23.527 4.84334 25.6719 4.84375H26.1039C25.8656 6.97537 24.8499 8.94435 23.251 10.3741C21.6522 11.8039 19.5824 12.5942 17.4375 12.5938H17.0054V12.5938ZM5.32812 8.71875C7.47303 8.71834 9.54282 9.50859 11.1417 10.9384C12.7405 12.3682 13.7562 14.3371 13.9946 16.4688H13.5625C11.4176 16.4692 9.3478 15.6789 7.74895 14.2491C6.15009 12.8193 5.13439 10.8504 4.89606 8.71875H5.32812V8.71875Z" fill="black"/>
</svg>
