<svg width="40" height="10" viewBox="0 0 40 10" fill="none" xmlns="http://www.w3.org/2000/svg">
<path d="M5 0C5.65661 -1.3837e-08 6.30679 0.129328 6.91342 0.380602C7.52005 0.631875 8.07124 1.00017 8.53553 1.46447C8.99983 1.92876 9.36812 2.47996 9.6194 3.08658C9.87067 3.69321 10 4.34339 10 5C10 5.65661 9.87067 6.30679 9.6194 6.91342C9.36812 7.52004 8.99983 8.07124 8.53553 8.53554C8.07124 8.99983 7.52005 9.36812 6.91342 9.6194C6.30679 9.87067 5.65661 10 5 10C3.67392 10 2.40215 9.47322 1.46447 8.53554C0.526784 7.59785 0 6.32608 0 5C0 3.67392 0.526784 2.40215 1.46447 1.46447C2.40215 0.526785 3.67392 2.79451e-08 5 0V0ZM20 0C20.6566 -1.3837e-08 21.3068 0.129328 21.9134 0.380602C22.52 0.631875 23.0712 1.00017 23.5355 1.46447C23.9998 1.92876 24.3681 2.47996 24.6194 3.08658C24.8707 3.69321 25 4.34339 25 5C25 5.65661 24.8707 6.30679 24.6194 6.91342C24.3681 7.52004 23.9998 8.07124 23.5355 8.53554C23.0712 8.99983 22.52 9.36812 21.9134 9.6194C21.3068 9.87067 20.6566 10 20 10C18.6739 10 17.4021 9.47322 16.4645 8.53554C15.5268 7.59785 15 6.32608 15 5C15 3.67392 15.5268 2.40215 16.4645 1.46447C17.4021 0.526785 18.6739 2.79451e-08 20 0V0ZM35 0C35.6566 -1.3837e-08 36.3068 0.129328 36.9134 0.380602C37.52 0.631875 38.0712 1.00017 38.5355 1.46447C38.9998 1.92876 39.3681 2.47996 39.6194 3.08658C39.8707 3.69321 40 4.34339 40 5C40 5.65661 39.8707 6.30679 39.6194 6.91342C39.3681 7.52004 38.9998 8.07124 38.5355 8.53554C38.0712 8.99983 37.52 9.36812 36.9134 9.6194C36.3068 9.87067 35.6566 10 35 10C33.6739 10 32.4021 9.47322 31.4645 8.53554C30.5268 7.59785 30 6.32608 30 5C30 3.67392 30.5268 2.40215 31.4645 1.46447C32.4021 0.526785 33.6739 2.79451e-08 35 0V0Z" fill="black"/>
</svg>
