<svg width="31" height="31" viewBox="0 0 31 31" fill="none" xmlns="http://www.w3.org/2000/svg">
<path d="M18.0835 12.9165H20.6668V13.8943C21.5421 13.3095 22.5598 12.9733 23.6113 12.9217C24.6628 12.8702 25.7085 13.1051 26.6368 13.6015C27.5651 14.0979 28.3412 14.8371 28.8822 15.7402C29.4232 16.6433 29.7088 17.6763 29.7085 18.729V25.8332H27.1252V18.729C27.1252 16.8819 25.6075 15.4998 23.896 15.4998C22.1845 15.4998 20.6668 16.8819 20.6668 18.729V25.8332H18.0835V12.9165ZM15.5002 5.1665V7.74984H5.16683V14.2082H15.5002V16.7915H5.16683V23.2498H15.5002V25.8332H2.5835V5.1665H15.5002Z" fill="black"/>
</svg>
