<svg width="40" height="31" viewBox="0 0 40 31" fill="none" xmlns="http://www.w3.org/2000/svg">
<path d="M16.4884 0C6.18303 0 0 8.26661 0 12.4003C0 16.534 2.06074 19.6341 6.18303 19.6341C10.3053 19.6341 12.3669 20.6669 12.3669 23.767C12.3669 27.8999 15.458 31 19.5803 31C32.9775 31 39.1597 23.767 39.1597 16.534C39.1589 4.13371 28.852 0 16.4884 0ZM13.912 4.13371C14.2508 4.13414 14.5861 4.20129 14.8989 4.33132C15.2118 4.46135 15.4959 4.65173 15.7351 4.89157C15.9744 5.13141 16.164 5.41602 16.2932 5.72915C16.4225 6.04229 16.4888 6.37781 16.4884 6.71657C16.4884 8.14424 15.3348 9.30024 13.912 9.30024C12.4892 9.30024 11.3357 8.14342 11.3357 6.71657C11.3353 6.37781 11.4016 6.04229 11.5308 5.72915C11.66 5.41602 11.8497 5.13141 12.0889 4.89157C12.3282 4.65173 12.6123 4.46135 12.9251 4.33132C13.2379 4.20129 13.5733 4.13414 13.912 4.13371V4.13371ZM22.155 4.13371C22.4937 4.13414 22.8291 4.20129 23.1419 4.33132C23.4547 4.46135 23.7388 4.65173 23.9781 4.89157C24.2173 5.13141 24.407 5.41602 24.5362 5.72915C24.6654 6.04229 24.7317 6.37781 24.7313 6.71657C24.7318 7.0554 24.6656 7.39101 24.5364 7.70424C24.4072 8.01747 24.2176 8.30218 23.9784 8.5421C23.7391 8.78203 23.4549 8.97247 23.1421 9.10256C22.8292 9.23264 22.4938 9.29982 22.155 9.30024C21.8162 9.29971 21.4809 9.23246 21.1681 9.10232C20.8554 8.97219 20.5713 8.78173 20.3321 8.54182C20.093 8.3019 19.9034 8.01723 19.7743 7.70405C19.6451 7.39087 19.5789 7.05533 19.5795 6.71657C19.5786 6.03256 19.8494 5.37621 20.3324 4.89185C20.8154 4.4075 21.471 4.1348 22.155 4.13371V4.13371ZM30.3996 8.26661C30.7385 8.26693 31.074 8.33403 31.3869 8.46406C31.6999 8.5941 31.9841 8.78453 32.2235 9.02446C32.4628 9.2644 32.6525 9.54915 32.7818 9.86243C32.911 10.1757 32.9772 10.5114 32.9767 10.8503C32.9772 11.1891 32.911 11.5248 32.7817 11.838C32.6525 12.1513 32.4628 12.4359 32.2234 12.6758C31.9841 12.9157 31.6998 13.106 31.3869 13.236C31.0739 13.3659 30.7384 13.4329 30.3996 13.4331C30.0608 13.4328 29.7254 13.3657 29.4126 13.2357C29.0998 13.1057 28.8157 12.9154 28.5765 12.6755C28.3373 12.4356 28.1478 12.1509 28.0186 11.8378C27.8895 11.5246 27.8234 11.189 27.824 10.8503C27.8234 10.5115 27.8895 10.1759 28.0186 9.86268C28.1477 9.54946 28.3373 9.26474 28.5765 9.0248C28.8156 8.78486 29.0998 8.59441 29.4126 8.46431C29.7254 8.33422 30.0608 8.26704 30.3996 8.26661V8.26661ZM6.69862 10.3339C7.0373 10.3342 7.3726 10.4013 7.68536 10.5312C7.99811 10.6612 8.2822 10.8515 8.52138 11.0913C8.76056 11.331 8.95015 11.6156 9.07931 11.9287C9.20847 12.2418 9.27467 12.5772 9.27414 12.9159C9.27414 14.3436 8.12058 15.4996 6.69862 15.4996C5.27667 15.4996 4.12229 14.3428 4.12229 12.9159C4.12164 12.2319 4.39269 11.5756 4.87582 11.0914C5.35895 10.6072 6.01461 10.3347 6.69862 10.3339V10.3339ZM19.5795 20.6669C21.287 20.6669 22.6706 22.0538 22.6706 23.7678C22.6706 25.4794 21.287 26.8671 19.5795 26.8671C17.872 26.8671 16.4884 25.4794 16.4884 23.7678C16.4876 23.3612 16.567 22.9585 16.7219 22.5825C16.8769 22.2066 17.1044 21.8649 17.3915 21.577C17.6785 21.289 18.0195 21.0604 18.3949 20.9043C18.7703 20.7481 19.1729 20.6675 19.5795 20.6669V20.6669Z" fill="black"/>
</svg>
