<svg width="31" height="31" viewBox="0 0 31 31" fill="none" xmlns="http://www.w3.org/2000/svg">
<path d="M9.04183 2.5835H6.4585V6.4585H2.5835V9.04183H6.4585V12.9168H9.04183V9.04183H12.9168V6.4585H9.04183V2.5835ZM18.0835 6.4585H28.4168V9.04183H18.0835V6.4585ZM18.0835 19.3752H28.4168V21.9585H18.0835V19.3752ZM18.0835 24.5418H28.4168V27.1252H18.0835V24.5418ZM10.7081 18.4581L7.75016 21.4289L4.79225 18.4581L2.95808 20.2922L5.92891 23.2502L2.95808 26.2081L4.79225 28.0422L7.75016 25.0714L10.7081 28.0422L12.5422 26.2081L9.57141 23.2502L12.5422 20.2922L10.7081 18.4581V18.4581Z" fill="black"/>
</svg>
