<svg width="90" height="96" viewBox="0 0 90 96" fill="none" xmlns="http://www.w3.org/2000/svg">
<path d="M78 46.5469C79.875 47.8281 81.5469 49.2812 83.0156 50.9062C84.4844 52.5313 85.75 54.3125 86.8125 56.25C87.875 58.1875 88.6562 60.2344 89.1562 62.3906C89.6563 64.5469 89.9375 66.75 90 69C90 72.7188 89.2969 76.2188 87.8906 79.5C86.4844 82.7812 84.5469 85.6406 82.0781 88.0781C79.6094 90.5156 76.75 92.4375 73.5 93.8438C70.25 95.25 66.75 95.9687 63 96C60.1562 96 57.4063 95.5781 54.75 94.7344C52.0937 93.8906 49.6562 92.6719 47.4375 91.0781C45.2188 89.4844 43.25 87.5781 41.5312 85.3594C39.8125 83.1406 38.4844 80.6875 37.5469 78H0V6H12V0H18V6H60V0H66V6H78V46.5469ZM6 12V24H72V12H66V18H60V12H18V18H12V12H6ZM36.1406 72C36.0469 71.0313 36 70.0312 36 69C36 66.3125 36.375 63.7031 37.125 61.1719C37.875 58.6406 39.0156 56.25 40.5469 54H36V48H42V52.0312C43.2813 50.4375 44.7031 49.0312 46.2656 47.8125C47.8281 46.5938 49.5156 45.5469 51.3281 44.6719C53.1406 43.7969 55.0312 43.1406 57 42.7031C58.9688 42.2656 60.9688 42.0313 63 42C66.125 42 69.125 42.5156 72 43.5469V30H6V72H36.1406ZM63 90C65.9062 90 68.625 89.4531 71.1562 88.3594C73.6875 87.2656 75.9062 85.7656 77.8125 83.8594C79.7188 81.9531 81.2187 79.7344 82.3125 77.2031C83.4063 74.6719 83.9687 71.9375 84 69C84 66.0938 83.4531 63.375 82.3594 60.8438C81.2656 58.3125 79.7656 56.0938 77.8594 54.1875C75.9531 52.2812 73.7344 50.7813 71.2031 49.6875C68.6719 48.5937 65.9375 48.0313 63 48C60.0938 48 57.375 48.5469 54.8438 49.6406C52.3125 50.7344 50.0938 52.2344 48.1875 54.1406C46.2812 56.0469 44.7813 58.2656 43.6875 60.7969C42.5937 63.3281 42.0313 66.0625 42 69C42 71.9062 42.5469 74.625 43.6406 77.1562C44.7344 79.6875 46.2344 81.9062 48.1406 83.8125C50.0469 85.7188 52.2656 87.2187 54.7969 88.3125C57.3281 89.4063 60.0625 89.9687 63 90ZM66 66H75V72H60V54H66V66ZM12 48H18V54H12V48ZM24 48H30V54H24V48ZM24 36H30V42H24V36ZM12 60H18V66H12V60ZM24 60H30V66H24V60ZM42 42H36V36H42V42ZM54 42H48V36H54V42ZM66 42H60V36H66V42Z" fill="white"/>
</svg>
