<svg width="78" height="76" viewBox="0 0 78 76" fill="none" xmlns="http://www.w3.org/2000/svg">
<path d="M19.8333 0.222656H12.1666V11.7227H0.666626V19.3893H12.1666V30.8893H19.8333V19.3893H31.3333V11.7227H19.8333V0.222656ZM46.6666 11.7227H77.3333V19.3893H46.6666V11.7227ZM46.6666 50.056H77.3333V57.7227H46.6666V50.056ZM46.6666 65.3893H77.3333V73.056H46.6666V65.3893ZM24.7783 47.3343L16 56.151L7.22163 47.3343L1.77829 52.7777L10.595 61.556L1.77829 70.3343L7.22163 75.7777L16 66.961L24.7783 75.7777L30.2216 70.3343L21.405 61.556L30.2216 52.7777L24.7783 47.3343V47.3343Z" fill="white"/>
</svg>
