<svg width="80" height="80" viewBox="0 0 80 80" fill="none" xmlns="http://www.w3.org/2000/svg">
<g clip-path="url(#clip0_149_200)">
<path d="M70 26.7188C68.9583 19.1146 65.599 12.7604 59.9219 7.65625C54.2448 2.55208 47.6042 0 40 0C32.3958 0 25.7552 2.57812 20.0781 7.73438C14.401 12.8906 11.1458 19.2188 10.3125 26.7188H10C7.1875 26.7188 4.81771 27.6562 2.89062 29.5312C0.963542 31.4062 0 33.8021 0 36.7188C0 40.1562 0.911458 43.2292 2.73438 45.9375C4.55729 48.6458 6.97917 50.6771 10 52.0312C10.5208 59.8438 13.6719 66.4583 19.4531 71.875C25.2344 77.2917 32.0833 80 40 80C47.9167 80 54.7656 77.2917 60.5469 71.875C66.3281 66.4583 69.4792 59.8438 70 52.0312C73.0208 50.6771 75.4427 48.6458 77.2656 45.9375C79.0885 43.2292 80 40.1562 80 36.7188C80 33.8021 79.0365 31.4062 77.1094 29.5312C75.1823 27.6562 72.8125 26.7188 70 26.7188ZM10 33.2812V44.0625C7.8125 42.1875 6.71875 39.7396 6.71875 36.7188C6.71875 34.4271 7.8125 33.2812 10 33.2812ZM40 73.2812C33.5417 73.2812 28.0469 71.0156 23.5156 66.4844C18.9844 61.9531 16.7188 56.4583 16.7188 50V30C16.7188 28.4375 16.8229 27.2396 17.0312 26.4062C22.5521 25.3646 26.5625 21.6667 29.0625 15.3125C36.25 20.3125 47.3438 22.9688 62.3438 23.2812C62.9688 25.3646 63.2812 27.6042 63.2812 30V50C63.2812 56.4583 61.0156 61.9531 56.4844 66.4844C51.9531 71.0156 46.4583 73.2812 40 73.2812ZM70 44.0625V33.2812C72.1875 33.2812 73.2812 34.4271 73.2812 36.7188C73.2812 39.7396 72.1875 42.1875 70 44.0625ZM40 53.2812C42.1875 53.2812 43.2812 52.1875 43.2812 50V46.7188H36.7188V50C36.7188 52.1875 37.8125 53.2812 40 53.2812ZM30 36.7188C30 37.5521 29.6615 38.3073 28.9844 38.9844C28.3073 39.6615 27.5521 40 26.7188 40C25.7812 40 24.974 39.6615 24.2969 38.9844C23.6198 38.3073 23.2812 37.5521 23.2812 36.7188C23.2812 35.7812 23.6198 34.974 24.2969 34.2969C24.974 33.6198 25.7812 33.2812 26.7188 33.2812C27.5521 33.2812 28.3073 33.6198 28.9844 34.2969C29.6615 34.974 30 35.7812 30 36.7188ZM56.7188 36.7188C56.7188 37.5521 56.3802 38.3073 55.7031 38.9844C55.026 39.6615 54.2188 40 53.2812 40C52.4479 40 51.6927 39.6615 51.0156 38.9844C50.3385 38.3073 50 37.5521 50 36.7188C50 35.7812 50.3385 34.974 51.0156 34.2969C51.6927 33.6198 52.4479 33.2812 53.2812 33.2812C54.2188 33.2812 55.026 33.6198 55.7031 34.2969C56.3802 34.974 56.7188 35.7812 56.7188 36.7188ZM43.2812 56.7188H36.7188C34.8438 56.7188 33.2552 57.3698 31.9531 58.6719C30.651 59.974 30 61.5104 30 63.2812C30 62.4479 31.3021 61.6927 33.9062 61.0156C36.5104 60.3385 38.5417 60 40 60C41.4583 60 43.4896 60.3385 46.0938 61.0156C48.6979 61.6927 50 62.4479 50 63.2812C50 61.5104 49.349 59.974 48.0469 58.6719C46.7448 57.3698 45.1562 56.7188 43.2812 56.7188Z" fill="white"/>
</g>
<defs>
<clipPath id="clip0_149_200">
<rect width="80" height="80" fill="white"/>
</clipPath>
</defs>
</svg>
