<svg width="88" height="88" viewBox="0 0 88 88" xmlns="http://www.w3.org/2000/svg">
<path fill-rule="evenodd" clip-rule="evenodd" d="M14.6667 13C13.7462 13 13 13.7462 13 14.6667V62.3333C13 63.2538 13.7462 64 14.6667 64H62.3333C63.2538 64 64 63.2538 64 62.3333V14.6667C64 13.7462 63.2538 13 62.3333 13H14.6667ZM9 14.6667C9 11.5371 11.5371 9 14.6667 9H62.3333C65.4629 9 68 11.5371 68 14.6667V62.3333C68 65.4629 65.4629 68 62.3333 68H14.6667C11.5371 68 9 65.4629 9 62.3333V14.6667Z" />
<path fill-rule="evenodd" clip-rule="evenodd" d="M77 20C78.1046 20 79 20.8954 79 22V71.5C79 73.4891 78.2098 75.3968 76.8033 76.8033C75.3968 78.2098 73.4892 79 71.5 79H22C20.8955 79 20 78.1046 20 77C20 75.8954 20.8955 75 22 75H71.5C72.4283 75 73.3185 74.6313 73.9749 73.9749C74.6313 73.3185 75 72.4283 75 71.5V22C75 20.8954 75.8955 20 77 20ZM27.4812 34.4296C27.0699 34.4273 26.6722 34.5773 26.3647 34.8505L12.3288 47.3281C11.5033 48.062 10.2391 47.9877 9.50527 47.1621C8.77139 46.3366 8.84569 45.0725 9.67122 44.3386L23.7072 31.8609C24.7527 30.9317 26.105 30.4219 27.5037 30.4297C28.9024 30.4376 30.2487 30.9624 31.2837 31.9033L49.012 48.0201C49.8294 48.7631 49.8896 50.028 49.1466 50.8454C48.4035 51.6627 47.1386 51.7229 46.3213 50.9799L28.593 34.863V34.863C28.2886 34.5863 27.8926 34.432 27.4812 34.4296Z" />
<path fill-rule="evenodd" clip-rule="evenodd" d="M52.4523 36.3398C52.1522 36.1146 51.7849 35.9974 51.4099 36.0069C51.0351 36.0164 50.6745 36.152 50.3863 36.3918L41.6138 43.7031C40.7653 44.4103 39.5042 44.2957 38.797 43.4472C38.0898 42.5987 38.2044 41.3376 39.0529 40.6304L47.8254 33.319C48.8056 32.5028 50.0331 32.0406 51.3083 32.0082C52.5834 31.9758 53.8321 32.3745 54.8525 33.1399C54.8525 33.1399 54.8524 33.1398 54.8525 33.1399L64 40.0002V34.8334C64 33.7288 64.8954 32.8334 66 32.8334C67.1046 32.8334 68 33.7288 68 34.8334V43.9799C68.0002 43.9944 68.0002 44.0088 68 44.0233V49.5001C68 50.6046 67.1046 51.5001 66 51.5001C64.8954 51.5001 64 50.6046 64 49.5001V45.0001L52.4523 36.3398ZM11 32.8334C12.1046 32.8334 13 33.7288 13 34.8334V49.5001C13 50.6046 12.1046 51.5001 11 51.5001C9.89543 51.5001 9 50.6046 9 49.5001V34.8334C9 33.7288 9.89543 32.8334 11 32.8334Z" />
</svg>
