<?xml version="1.0" standalone="no"?><!DOCTYPE svg PUBLIC "-//W3C//DTD SVG 1.1//EN" "http://www.w3.org/Graphics/SVG/1.1/DTD/svg11.dtd"><svg t="1668498989041" class="icon" viewBox="0 0 1029 1024" version="1.1" xmlns="http://www.w3.org/2000/svg" p-id="1307" xmlns:xlink="http://www.w3.org/1999/xlink" width="200.9765625" height="200"><path d="M1020.835581 368.09697L864.649723 121.793939C850.944672 100.331313 822.500228 93.99596 800.908309 107.442424L21.401238 600.565657c-21.462626 13.705051-27.79798 42.149495-14.351515 63.612121L163.364874 910.480808c13.705051 21.462626 42.149495 27.79798 63.612122 14.222222l779.50707-493.123232c21.462626-13.575758 27.927273-42.020202 14.351515-63.482828z m-31.159596 37.10707L210.168915 898.327273c-6.852525 4.39596-15.90303 2.327273-20.29899-4.525253L33.684066 647.49899c-4.39596-6.852525-2.327273-15.90303 4.525253-20.29899l779.50707-493.123232c6.852525-4.266667 15.90303-2.327273 20.169697 4.654545l156.185859 246.30303c4.39596 6.593939 2.456566 15.644444-4.39596 20.169697zM317.740632 248.888889l12.929293 31.030303 16.808081-29.090909 33.486868-2.715152-22.626262-24.953535 7.628283-32.711111-30.513132 13.834343-28.832323-17.454545 3.620202 33.486869-25.470707 21.721212 32.969697 6.852525zM516.205278 156.444444l-16.161616-29.60808-13.575757 30.90101-33.09899 6.335353 24.953535 22.367677-4.266667 33.357576 29.220202-16.808081 30.383839 14.480808-6.981818-32.969697 23.014141-24.436364-33.486869-3.620202z m302.545455 495.19192l-26.634344-20.428283-0.129292 33.616161-27.79798 18.876768 32.064646 10.60202 9.438384 32.19394 19.911111-27.151515 33.616162 0.90505-19.781818-27.280808 11.377777-31.547475-32.064646 10.214142zM710.015379 785.454545l-12.670707-31.159596-17.066666 28.961617-33.486869 2.456565 22.367677 25.082829-8.016162 32.581818 30.771717-13.446465 28.703031 17.842424-3.361617-33.486868 25.470708-21.721212-32.711112-7.111112z m-199.240404 91.022223l15.903031 29.737373 13.963636-30.642424 33.09899-5.947475-24.824243-22.755555 4.525253-33.357576-29.349495 16.549495-30.254545-14.610101 6.723232 32.840404-23.272727 24.436364 33.486868 3.749495zM212.366895 378.957576l26.50505 20.816161 0.387879-33.616161 27.927273-18.747475-31.935354-10.731313-9.179798-32.323232-20.169697 26.892929-33.616162-1.163637 19.523233 27.410101-11.636364 31.547475 32.19394-10.084848z m-118.303031 145.066666c-3.490909-142.222222 65.680808-282.892929 194.585859-364.347474S574.257804 75.894949 701.611339 139.765657l30.771717-19.39394c-37.624242-21.074747-78.222222-36.460606-120.888889-46.028283-57.018182-12.8-115.070707-14.480808-172.476767-5.042424-59.474747 9.826263-115.717172 31.288889-167.046465 63.870707-51.329293 32.581818-94.771717 74.084848-129.163636 123.604041-33.228283 47.709091-56.630303 100.977778-69.430303 157.866666-9.567677 42.666667-12.929293 85.850505-9.955556 128.905051l30.642424-19.523233zM931.106288 502.30303c3.620202 142.222222-65.551515 282.892929-194.327272 364.347475-128.905051 81.583838-285.608081 83.911111-412.832323 20.040404l-30.771718 19.523232c37.624242 20.945455 78.222222 36.460606 120.888889 46.028283 57.018182 12.8 115.070707 14.480808 172.476768 5.042424 59.474747-9.826263 115.717172-31.288889 166.917172-63.741414 51.329293-32.581818 94.771717-74.084848 129.163636-123.60404 33.09899-47.838384 56.50101-100.977778 69.30101-157.866667 9.567677-42.666667 12.929293-85.850505 9.955556-128.90505L931.106288 502.30303zM381.482046 306.424242c36.072727-22.755556 75.765657-34.909091 115.717172-37.365656l47.579798-30.125253c-62.836364-7.369697-125.80202 6.723232-180.105051 40.985859-54.173737 34.262626-93.866667 85.20404-114.036363 145.066667l47.579798-30.125253c19.264646-35.038384 47.191919-65.680808 83.264646-88.436364z m262.206061 413.608081c-36.072727 22.884848-75.765657 35.038384-115.587879 37.365657l-47.579798 30.125252c62.836364 7.369697 125.80202-6.723232 180.10505-41.115151 54.173737-34.262626 93.866667-85.20404 114.036364-145.066667l-47.579798 30.125253c-19.264646 35.038384-47.321212 65.680808-83.393939 88.565656z m0 0" p-id="1308" fill="#d81e06"></path><path d="M261.239622 563.458586c-1.680808 12.929293-4.525253 25.858586-8.404041 38.917172-3.878788 13.058586-8.921212 26.375758-14.997979 39.692929s-13.317172 26.763636-21.59192 40.339394-17.583838 27.151515-28.056565 40.985858l-1.29293-0.646464-1.292929-0.646465-1.292929-0.646465-1.292929-0.646464c4.008081-6.464646 7.886869-13.187879 11.50707-19.911111 3.620202-6.723232 6.981818-13.705051 10.084849-20.816162s6.076768-14.222222 8.791919-21.591919 5.171717-14.739394 7.369697-22.367677c2.19798-7.628283 4.137374-14.99798 5.688889-22.367677 1.551515-7.369697 2.844444-14.480808 3.878788-21.591919s1.680808-13.963636 1.939394-20.816161c0.387879-6.852525 0.387879-13.446465 0.129293-20.040404 3.490909-1.034343 6.723232-1.939394 9.826262-2.844445 2.973737-0.905051 5.818182-1.551515 8.274748-2.327273s4.783838-1.292929 6.852525-1.680808 3.749495-0.905051 5.30101-1.163636 2.844444-0.517172 4.137374-0.646465 2.19798-0.258586 3.10303-0.258586 1.551515 0.129293 2.068687 0.258586 0.905051 0.387879 1.034343 0.775758c0.258586 0.258586 0.258586 0.646465 0.258586 1.034343s-0.258586 0.775758-0.517171 1.29293-0.646465 1.034343-1.163637 1.551515c-0.517172 0.517172-1.163636 1.163636-1.939394 1.810101-0.775758 0.646465-1.422222 1.292929-2.068687 1.810101s-1.163636 1.163636-1.680808 1.680808-0.905051 1.034343-1.292929 1.551515-0.646465 0.905051-0.905051 1.422222c6.076768 1.680808 12.282828 3.10303 18.488889 4.266667 6.335354 1.163636 12.670707 1.939394 19.135354 2.585858s13.058586 0.905051 19.781818 0.905051c6.723232 0 13.446465-0.258586 20.29899-0.775758 6.852525-0.517172 13.705051-1.292929 20.29899-2.456565 6.593939-1.034343 13.187879-2.456566 19.523232-4.137374s12.541414-3.620202 18.747475-5.818182c6.076768-2.19798 12.024242-4.654545 17.971717-7.49899l0.646465 1.034344 0.646464 1.034343 0.646465 1.034344 0.646465 1.034343c-2.19798 1.551515-4.137374 2.973737-5.947475 4.39596s-3.490909 2.715152-4.913131 3.878787-2.715152 2.327273-3.749495 3.49091-1.939394 2.068687-2.715152 2.973737c-0.775758 0.905051-1.292929 1.939394-1.939394 2.973737-0.517172 1.034343-1.034343 2.19798-1.422222 3.361616s-0.775758 2.456566-1.034343 3.878788c-0.258586 1.422222-0.517172 2.844444-0.646465 4.266667 0 0.258586 0 0.517172-0.129293 0.775758 0 0.258586-0.129293 0.517172-0.258586 0.775757s-0.258586 0.387879-0.517172 0.646465c-0.129293 0.258586-0.387879 0.387879-0.646464 0.517172-0.646465 0.387879-1.680808 0.775758-3.232323 1.163636s-3.490909 0.646465-5.947475 1.034343-5.30101 0.646465-8.533334 0.905051c-3.361616 0.258586-7.111111 0.517172-11.248484 0.775757-4.137374 0.258586-8.40404 0.387879-12.8 0.258586s-8.791919-0.129293-13.187879-0.387879-9.050505-0.646465-13.705051-1.163636c-4.654545-0.517172-9.309091-1.163636-14.092929-1.939394s-9.438384-1.680808-13.963636-2.715151-9.050505-2.19798-13.446465-3.490909-8.662626-2.715152-12.8-4.266667c-4.39596-1.939394-8.40404-3.620202-12.412121-5.430303z m55.337374 45.769697l0.517171-4.008081 0.517172-4.008081 0.517172-4.008081 0.517171-4.00808c0.129293-0.775758 0.129293-1.422222 0.258586-2.068687s0.258586-1.163636 0.517172-1.551515 0.387879-0.905051 0.646465-1.163637c0.258586-0.387879 0.517172-0.646465 0.90505-0.775757s0.905051-0.387879 1.939394-0.387879c0.905051-0.129293 2.19798-0.129293 3.749495-0.129293s3.361616 0.129293 5.559596 0.258586c2.19798 0.129293 4.654545 0.387879 7.369697 0.646464s5.171717 0.517172 7.369697 0.775758c2.068687 0.258586 3.878788 0.517172 5.30101 0.775758s2.585859 0.517172 3.361616 0.775757 1.292929 0.517172 1.422222 0.775758c0.129293 0.258586 0.129293 0.517172 0.129293 0.90505-0.129293 0.258586-0.258586 0.646465-0.646464 1.034344l-1.29293 1.292929c-0.517172 0.387879-1.292929 0.905051-2.068686 1.422222l-25.729293 16.290909-25.729293 16.290909-25.729293 16.290909-25.729293 16.29091c-1.163636 0.775758-2.19798 1.422222-3.232323 2.197979s-1.939394 1.422222-2.715152 2.068687L241.974975 667.151515c-0.775758 0.646465-1.292929 1.292929-1.810101 1.939394l-2.585858-1.551515-2.585859-1.551515-2.585858-1.551515-2.585859-1.551516c1.034343-0.387879 2.068687-0.775758 3.10303-1.292929s2.19798-1.034343 3.361616-1.680808l3.49091-1.939394c1.163636-0.646465 2.456566-1.422222 3.620202-2.19798l18.230303-11.50707 18.230303-11.507071 18.230303-11.507071 18.488889-12.024242z m79.515151 84.169697l-21.591919 13.575757-21.591919 13.575758-21.59192 13.575758-21.591919 13.575757 1.680808 2.715152 1.680808 2.715151 1.680809 2.715152 1.680808 2.715151c0.258586 0.258586 0.387879 0.646465 0.517171 0.905051 0.129293 0.258586 0.258586 0.646465 0.258586 0.90505s0.129293 0.646465 0 0.905051c0 0.258586-0.129293 0.517172-0.129293 0.90505s-0.258586 0.646465-0.646464 1.292929c-0.387879 0.517172-0.905051 1.292929-1.422223 2.068687s-1.422222 1.810101-2.327272 2.844445c-0.905051 1.034343-1.939394 2.327273-3.103031 3.620202-1.163636 1.292929-2.19798 2.585859-3.10303 3.620202-0.905051 1.034343-1.810101 1.939394-2.456566 2.715151s-1.292929 1.422222-1.810101 1.810101c-0.517172 0.517172-0.905051 0.775758-1.163636 0.905051-0.258586 0.129293-0.517172 0.258586-0.775758 0.258586h-0.646464c-0.129293 0-0.387879-0.129293-0.646465-0.387879-0.258586-0.129293-0.387879-0.387879-0.517172-0.646465l-2.197979-3.749495-2.19798-3.749495-2.19798-3.749495-2.19798-3.749495-9.567677-15.127272-9.567676-15.127273-9.567677-15.127273-9.567677-15.127272c-0.905051-1.422222-1.939394-2.973737-2.844444-4.39596-1.034343-1.422222-1.939394-2.973737-2.973738-4.39596s-2.068687-2.844444-3.10303-4.395959c-1.034343-1.422222-2.068687-2.844444-3.232323-4.266667 3.361616-0.775758 6.593939-1.551515 9.567677-2.19798 2.973737-0.646465 5.688889-1.163636 8.274747-1.680808s4.783838-0.905051 6.852525-1.163636c2.068687-0.258586 4.008081-0.517172 5.559596-0.775758l20.557576-12.929293 20.557576-12.929293 20.557576-12.929292 20.557575-12.929293-0.258586-2.715152-0.258585-2.715151-0.258586-2.715152-0.258586-2.715151v-1.422223c0-0.387879 0.129293-0.775758 0.258586-1.163636s0.258586-0.646465 0.387879-0.905051 0.387879-0.387879 0.646464-0.646464c0.258586-0.129293 0.646465-0.258586 1.292929-0.517172s1.551515-0.387879 2.585859-0.646465 2.327273-0.517172 3.878788-0.775757c1.551515-0.258586 3.232323-0.646465 5.171717-1.034344 1.939394-0.387879 3.749495-0.646465 5.30101-0.90505 1.680808-0.258586 3.232323-0.517172 4.525253-0.775758s2.585859-0.387879 3.749495-0.517171c1.163636-0.129293 2.068687-0.258586 2.973737-0.258586 0.905051-0.129293 1.680808-0.129293 2.327273-0.129293s1.292929 0 1.810101 0.129293 0.905051 0.258586 1.292929 0.387879c0.387879 0.129293 0.517172 0.387879 0.775758 0.646464 0.129293 0.258586 0.129293 0.646465 0 1.163637s-0.387879 1.292929-0.775758 2.197979-0.905051 1.939394-1.551515 3.103031c-0.646465 1.163636-1.551515 2.585859-2.456566 4.137373l8.662627 13.705051 8.662626 13.70505 8.662626 13.705051 8.662626 13.70505c0.517172 0.775758 0.905051 1.422222 1.422223 2.068687s0.905051 1.292929 1.292929 1.939394 0.775758 1.163636 1.292929 1.810101l1.163637 1.551515 0.90505 1.29293 0.905051 1.292929 0.90505 1.292929 0.905051 1.29293c0.129293 0.258586 0.258586 0.517172 0.258585 0.775757v1.034344c0 0.387879-0.129293 0.775758-0.387878 1.163636s-0.387879 0.905051-0.646465 1.292929c-0.258586 0.517172-0.646465 1.034343-1.163636 1.680808s-1.034343 1.292929-1.680808 2.19798-1.422222 1.680808-2.327273 2.715152-1.810101 2.068687-2.844445 3.10303c-1.034343 1.163636-2.068687 2.19798-2.973737 3.10303l-2.456566 2.456566c-0.775758 0.775758-1.422222 1.292929-1.939394 1.810101s-1.034343 0.905051-1.551515 1.163636c-0.258586 0.129293-0.517172 0.258586-0.775757 0.258586-0.258586 0-0.517172 0-0.775758-0.129293s-0.517172-0.258586-0.646465-0.517172c-0.258586-0.258586-0.517172-0.517172-0.646464-0.90505l-2.585859-4.137374-2.585858-4.137374-2.585859-4.137373-1.939394-3.749495z m-91.022222 46.80404l21.591919-13.575757 21.591919-13.575758 21.591919-13.575758 21.59192-13.575757-7.886869-12.541414-7.886869-12.541414-7.886868-12.541415-7.886869-12.541414-21.591919 13.575758-21.59192 13.575757-21.721212 13.575758-21.591919 13.575758 7.886869 12.541414 7.886869 12.541414 7.886868 12.541414 8.016162 12.541414zM639.938612 364.864646l1.422222-0.90505 1.422222-0.905051 1.422222-0.90505 1.422223-0.905051 0.387878-2.973737 0.387879-2.973737 0.387879-2.973738 0.387879-2.973737c0.129293-0.775758 0.258586-1.551515 0.387879-2.19798 0.129293-0.646465 0.387879-1.292929 0.646464-1.810101s0.517172-0.905051 0.775758-1.292929c0.258586-0.387879 0.646465-0.646465 1.034343-0.905051 0.387879-0.258586 1.034343-0.387879 1.810101-0.517171 0.905051-0.129293 1.939394-0.129293 3.232323-0.129293s2.844444 0 4.654546 0.129293 3.878788 0.258586 6.076768 0.517171c2.327273 0.258586 4.266667 0.517172 6.076767 0.775758s3.232323 0.517172 4.525253 0.775757 2.19798 0.517172 2.973737 0.905051c0.775758 0.258586 1.163636 0.646465 1.422222 0.905051 0.258586 0.387879 0.258586 0.646465 0.258586 1.034343-0.129293 0.387879-0.258586 0.775758-0.646464 1.292929s-0.775758 0.905051-1.422223 1.422222c-0.646465 0.517172-1.422222 1.034343-2.327272 1.680809l-8.016162 5.042424-8.016162 5.042424-8.016161 5.042424-8.016162 5.042425 2.844445 4.395959 2.844444 4.39596 2.844445 4.395959 2.844444 4.39596c3.10303-0.905051 5.947475-1.810101 8.791919-2.456566s5.430303-1.292929 8.016162-1.810101 4.913131-0.775758 7.111111-1.034343c2.19798-0.258586 4.39596-0.387879 6.335353-0.258586 1.939394 0 3.749495 0.258586 5.430303 0.517172 1.680808 0.387879 3.232323 0.905051 4.654546 1.551515s2.715152 1.551515 3.749495 2.585858c1.163636 1.034343 2.068687 2.19798 2.973737 3.490909 0.387879 0.646465 0.646465 1.292929 0.905051 2.068687s0.387879 1.551515 0.387879 2.456566 0 1.810101-0.258586 2.844444c-0.129293 1.034343-0.387879 2.068687-0.775758 3.232324-0.387879 1.163636-0.775758 2.19798-1.163636 3.232323-0.387879 0.905051-0.905051 1.810101-1.29293 2.585858s-1.034343 1.422222-1.551515 2.068687-1.163636 1.034343-1.680808 1.422223c-0.646465 0.387879-1.163636 0.775758-1.680808 1.034343l-1.551515 0.775758c-0.517172 0.258586-0.905051 0.387879-1.292929 0.387878-0.387879 0.129293-0.775758 0.129293-1.034344 0.129293-0.387879 0-0.646465-0.129293-1.163636-0.258586-0.387879-0.129293-0.905051-0.387879-1.292929-0.775757s-1.034343-0.775758-1.551516-1.292929-1.163636-1.034343-1.810101-1.810101c-2.19798-2.19798-4.525253-4.266667-6.723232-5.947475-2.19798-1.680808-4.39596-3.232323-6.593939-4.525253s-4.39596-2.19798-6.59394-2.973737-4.39596-1.292929-6.464646-1.551515l16.161616 25.470707 16.161616 25.470707 16.161616 25.470707 16.161616 25.470707c0.258586 0.387879 0.387879 0.646465 0.517172 1.034343 0.129293 0.258586 0.258586 0.646465 0.387879 0.775758s0.129293 0.517172 0.129293 0.646465v0.517171c0 0.129293-0.129293 0.387879-0.258586 0.646465s-0.387879 0.646465-0.517172 1.034344-0.517172 0.905051-0.90505 1.551515c-0.387879 0.517172-0.646465 1.163636-1.163637 1.939394-0.387879 0.775758-0.905051 1.422222-1.422222 2.197979-0.517172 0.775758-1.034343 1.551515-1.680808 2.327273s-1.163636 1.680808-1.810101 2.456566c-0.646465 0.905051-1.422222 1.810101-2.068687 2.715151-0.775758 0.905051-1.422222 1.680808-2.068687 2.456566s-1.163636 1.292929-1.551515 1.810101-0.775758 0.905051-1.163636 1.163636l-0.646465 0.646465c-0.129293 0.129293-0.258586 0.129293-0.517171 0.129293s-0.387879-0.129293-0.517172-0.129293-0.387879-0.258586-0.517172-0.517172-0.387879-0.517172-0.646465-0.775757l-1.292929-2.327273-1.292929-2.327273-1.292929-2.327272-1.29293-2.327273c-1.034343-1.810101-2.068687-3.620202-3.10303-5.30101s-2.068687-3.490909-2.973737-5.171717-1.939394-3.361616-2.973738-4.913132c-1.034343-1.680808-1.939394-3.232323-2.973737-4.783838l-10.731313-17.066667-10.731313-17.066667-10.731314-17.066666-10.731313-17.066667c0.258586 2.973737 0.517172 5.947475 0.646465 8.791919 0.129293 2.844444 0.258586 5.688889 0.258586 8.533334s-0.129293 5.559596-0.258586 8.274747c-0.129293 2.715152-0.387879 5.430303-0.646465 8.145455-0.258586 2.715152-0.775758 5.559596-1.292929 8.533333-0.517172 3.10303-1.163636 6.335354-1.939394 9.826263s-1.680808 7.111111-2.715151 10.989899-2.19798 8.016162-3.361617 12.282828h-5.171717c0.646465-8.533333 0.905051-17.325253 0.646465-26.117172-0.258586-8.921212-0.905051-17.971717-2.068687-27.151515s-2.715152-18.488889-4.783838-28.056566c-2.068687-9.567677-4.525253-19.135354-7.49899-28.961616l-5.30101 3.361616-5.30101 3.361617-5.301011 3.361616-5.30101 3.361616c-1.163636 0.646465-2.19798 1.422222-3.232323 2.068687s-1.939394 1.422222-2.844444 2.068687-1.680808 1.292929-2.456566 1.939394c-0.775758 0.646465-1.422222 1.292929-2.068687 1.939393l-2.585858-1.680808-2.585859-1.680808-2.585859-1.680808-2.585858-1.680808c1.034343-0.387879 2.068687-0.775758 3.10303-1.292929 1.034343-0.517172 2.19798-1.034343 3.361616-1.680808l3.490909-1.939394c1.163636-0.646465 2.456566-1.422222 3.620202-2.19798l6.981819-4.39596 6.981818-4.395959 6.981818-4.39596 6.981818-4.395959-4.137374-6.59394-4.137373-6.593939-4.137374-6.59394-4.137374-6.593939c-1.422222-2.327273-2.844444-4.525253-4.266667-6.723232-1.422222-2.19798-2.715152-4.266667-4.137373-6.206061s-2.585859-3.878788-3.878788-5.688889-2.456566-3.490909-3.749495-5.042424c5.818182-2.327273 10.989899-4.266667 15.515151-5.947475s8.274747-2.973737 11.248485-3.878788 5.430303-1.551515 7.111111-1.939394 2.585859-0.258586 2.844445 0.129293c0.129293 0.258586 0.129293 0.646465 0 1.29293s-0.517172 1.422222-1.034344 2.456565-1.163636 2.19798-1.939394 3.620202c-0.775758 1.422222-1.810101 2.973737-2.973737 4.783839l5.688889 9.050505 5.688889 9.050505 5.688889 9.050505 5.559596 9.955555z m64-43.313131c-0.387879 4.525253-0.905051 9.050505-1.680808 13.834344-0.775758 4.654545-1.551515 9.438384-2.585859 14.351515s-2.19798 9.826263-3.620202 14.99798c-1.292929 5.042424-2.844444 10.343434-4.525252 15.515151l-1.422223 0.129293-1.422222 0.129293-1.422222 0.129293-1.422222 0.129293c0.517172-5.171717 1.034343-10.343434 1.292929-15.127273 0.387879-4.913131 0.517172-9.567677 0.646465-14.092929s0.129293-8.921212 0-13.058586c-0.129293-4.137374-0.387879-8.145455-0.646465-12.024243-0.387879-3.749495-0.775758-7.757576-1.422222-11.894949-0.646465-4.137374-1.422222-8.274747-2.456566-12.670707s-2.068687-8.921212-3.361616-13.446465c-1.292929-4.654545-2.715152-9.438384-4.266667-14.351515 3.490909-1.163636 6.593939-2.068687 9.438384-2.973737s5.430303-1.551515 7.628283-2.19798 4.137374-1.163636 5.818182-1.551515 2.973737-0.646465 4.00808-0.775758c1.034343-0.129293 1.939394-0.258586 2.715152-0.258586s1.422222-0.129293 2.068687 0 1.034343 0.129293 1.422222 0.258586 0.646465 0.258586 0.775758 0.517172c0.129293 0.258586 0.129293 0.517172 0.129293 0.775757s-0.129293 0.646465-0.258586 1.163637-0.387879 0.905051-0.775758 1.422222-0.775758 1.163636-1.292929 1.810101c-0.517172 0.646465-0.905051 1.422222-1.292929 2.327273s-0.646465 2.068687-0.905051 3.232323-0.387879 2.585859-0.517172 4.008081c-0.129293 1.551515-0.129293 3.10303-0.129293 4.913131s0.129293 3.361616 0.129293 4.913131v9.050506l12.282829-7.757576 12.282828-7.757576 12.282828-7.757576 12.282828-7.757575 0.387879-3.49091 0.387879-3.490909 0.387879-3.490909 0.387879-3.490909c0-0.387879 0.129293-0.775758 0.129293-1.163636 0.129293-0.387879 0.258586-0.646465 0.387878-0.905051s0.258586-0.517172 0.517172-0.775757 0.387879-0.387879 0.646465-0.517172c0.258586-0.129293 0.646465-0.258586 1.163636-0.387879 0.517172-0.129293 1.163636-0.258586 2.068687-0.387879s1.810101-0.258586 2.844444-0.258585c1.163636-0.129293 2.327273-0.129293 3.749495-0.258586 1.422222-0.129293 2.715152-0.129293 4.137374-0.258586 1.292929 0 2.585859-0.129293 3.878788-0.129293s2.456566-0.129293 3.620202-0.129293c1.163636 0 2.327273-0.129293 3.361616-0.129293H787.203258c0.646465 0 1.422222 0.129293 1.939394 0.129293s1.034343 0.129293 1.422222 0.258586c0.387879 0.129293 0.775758 0.258586 1.034344 0.387879 0.387879 0.129293 0.646465 0.258586 0.90505 0.517171s0.517172 0.387879 0.775758 0.517172c0.258586 0.258586 0.387879 0.387879 0.517172 0.646465 0.258586 0.387879 0.387879 0.905051 0.517171 1.292929s0 0.905051-0.129293 1.292929-0.387879 0.905051-0.775757 1.422223-0.905051 0.905051-1.422222 1.422222c-0.646465 0.517172-1.163636 1.034343-1.810101 1.680808s-1.163636 1.292929-1.680809 2.068687-1.034343 1.551515-1.551515 2.456565-1.034343 1.810101-1.551515 2.844445c-0.517172 1.034343-0.905051 2.068687-1.292929 3.10303-0.387879 1.034343-0.775758 2.068687-1.034344 3.232323s-0.517172 2.19798-0.775757 3.361616c-0.258586 1.163636-0.387879 2.327273-0.517172 3.620202-0.517172 4.39596-1.163636 8.662626-1.810101 12.8s-1.422222 8.016162-2.19798 11.765657-1.680808 7.369697-2.585858 10.731313c-0.905051 3.361616-1.810101 6.593939-2.844445 9.69697 5.947475-0.517172 12.024242-1.292929 18.230303-2.456566 6.335354-1.163636 12.8-2.585859 19.39394-4.525252s13.575758-4.008081 20.557575-6.464647c7.111111-2.456566 14.351515-5.30101 21.721213-8.533333l0.517171 0.90505 0.517172 0.905051 0.517172 0.90505 0.517171 0.905051c-1.939394 1.551515-3.749495 3.10303-5.30101 4.39596s-2.973737 2.585859-4.137373 3.749494-2.19798 2.19798-2.973738 3.103031c-0.775758 0.905051-1.422222 1.810101-1.939394 2.456565l-1.163636 2.327273c-0.258586 0.775758-0.517172 1.680808-0.775758 2.585859s-0.258586 1.939394-0.258585 2.973737c0 1.034343 0 2.068687 0.129292 3.232323 0.129293 0.517172 0.129293 0.905051 0 1.422223 0 0.387879-0.129293 0.905051-0.387878 1.292929s-0.387879 0.775758-0.775758 1.034343c-0.258586 0.387879-0.646465 0.646465-1.163636 0.905051-0.387879 0.258586-1.422222 0.646465-2.715152 1.034343-1.422222 0.387879-3.232323 0.905051-5.559596 1.422222s-5.042424 1.034343-8.274747 1.680809c-3.232323 0.646465-6.981818 1.292929-11.119192 2.068686-4.137374 0.775758-8.145455 1.422222-12.153535 1.939394-3.878788 0.517172-7.628283 0.905051-11.377778 1.163637s-7.111111 0.517172-10.472728 0.517171c-3.361616 0.129293-6.593939 0-9.696969-0.129292-1.680808 3.620202-3.620202 7.369697-5.688889 11.248484-2.19798 3.878788-4.525253 7.886869-7.111111 12.153536s-5.430303 8.533333-8.533334 12.929293c-3.10303 4.39596-6.335354 9.050505-9.826262 13.834343 1.680808-0.517172 3.361616-1.034343 5.171717-1.551515s3.490909-0.905051 5.171717-1.292929 3.490909-0.775758 5.171717-1.163637 3.490909-0.646465 5.171717-1.034343l12.282829-7.757576 12.282828-7.757576 12.282828-7.757575 12.282829-7.757576 0.129293-2.068687 0.129292-2.068687 0.129293-2.068687 0.129293-2.068687c0-0.517172 0.129293-0.905051 0.258586-1.292929 0.129293-0.387879 0.258586-0.775758 0.517172-1.163636s0.517172-0.775758 0.90505-1.034344 0.775758-0.646465 1.163637-0.90505c0.387879-0.258586 1.163636-0.517172 1.939394-0.775758s1.939394-0.517172 3.232323-0.775757 2.844444-0.517172 4.525252-0.646465c1.680808-0.258586 3.620202-0.387879 5.818182-0.646465 2.19798-0.258586 4.137374-0.387879 5.818182-0.387879 1.680808 0 3.10303 0 4.39596 0.129293s2.19798 0.258586 2.973737 0.517172 1.292929 0.646465 1.551515 1.034344c0.258586 0.387879 0.387879 0.905051 0.258586 1.551515 0 0.646465-0.258586 1.292929-0.646465 2.068687s-0.905051 1.680808-1.680808 2.585858c-0.646465 0.905051-1.551515 2.068687-2.585858 3.10303l5.818182 9.179798 5.818181 9.179798 5.818182 9.179798 5.818182 9.179798c0.646465 1.034343 1.292929 1.939394 1.810101 2.844445s1.163636 1.810101 1.680808 2.585858 1.034343 1.680808 1.680808 2.327273c0.517172 0.775758 1.034343 1.422222 1.551515 2.19798l1.163637 1.551515 1.163636 1.551515 1.163636 1.551515 1.163637 1.551516c0.129293 0.258586 0.258586 0.517172 0.258586 0.775757 0 0.258586 0 0.646465-0.129293 0.905051s-0.258586 0.775758-0.387879 1.163636c-0.129293 0.387879-0.387879 0.905051-0.646465 1.422222-0.258586 0.517172-0.646465 1.034343-1.034343 1.680808s-0.905051 1.292929-1.551515 2.068687-1.163636 1.551515-1.939394 2.456566-1.551515 1.810101-2.327273 2.844444c-0.905051 1.034343-1.680808 1.939394-2.456566 2.715152s-1.422222 1.551515-2.068686 2.19798-1.163636 1.163636-1.680809 1.551515c-0.517172 0.387879-0.905051 0.775758-1.292929 1.034343-0.258586 0.129293-0.517172 0.258586-0.775757 0.258586-0.258586 0-0.517172 0-0.775758-0.129293s-0.517172-0.258586-0.646465-0.517172c-0.258586-0.258586-0.517172-0.517172-0.646464-0.90505l-2.456566-4.008081-2.456566-4.008081-2.456565-4.008081-2.456566-4.00808-12.8 8.145454-12.8 8.145455-12.8 8.145454-12.8 8.145455 2.19798 3.490909 2.19798 3.490909 2.19798 3.490909 2.197979 3.490909c0.258586 0.387879 0.387879 0.646465 0.517172 1.034344 0.129293 0.258586 0.258586 0.646465 0.387879 0.90505s0.129293 0.517172 0.129293 0.775758c0 0.258586 0 0.387879-0.129293 0.646464 0 0.129293-0.258586 0.517172-0.517172 0.905051-0.258586 0.387879-0.775758 0.905051-1.292929 1.680808s-1.163636 1.422222-1.939394 2.327273-1.680808 1.939394-2.715152 2.973737c-1.034343 1.163636-1.939394 2.19798-2.844444 3.10303-0.905051 0.905051-1.680808 1.810101-2.456566 2.456566s-1.422222 1.292929-2.068687 1.939394c-0.646465 0.517172-1.163636 0.905051-1.680808 1.292929-0.129293 0.129293-0.387879 0.129293-0.517171 0.129293-0.129293 0-0.387879 0-0.517172-0.129293s-0.387879-0.258586-0.517172-0.387879c-0.129293-0.129293-0.387879-0.387879-0.517172-0.646464l-1.163636-1.939394-1.163636-1.939394-1.163637-1.939394-1.163636-1.939394c-0.387879-0.646465-0.775758-1.292929-1.163636-2.068687-0.387879-0.775758-0.905051-1.551515-1.422223-2.327273s-1.034343-1.680808-1.680808-2.715151-1.163636-1.939394-1.939394-2.973737l-6.464646-10.343435-6.464647-10.343434-6.464646-10.343434-6.464646-10.343435c-1.292929-2.068687-2.456566-3.878788-3.620203-5.688889-1.163636-1.810101-2.19798-3.361616-3.232323-4.783838s-1.939394-2.715152-2.715151-3.878788c-0.775758-1.163636-1.551515-2.19798-2.19798-2.973737-2.585859 3.361616-5.042424 6.723232-7.49899 9.955555s-4.913131 6.335354-7.240404 9.309091-4.783838 5.947475-7.111111 8.791919c-2.327273 2.844444-4.654545 5.559596-6.852525 8.274748l-1.034344-0.517172-1.034343-0.517172-1.034344-0.517171-1.034343-0.517172c6.206061-9.69697 12.024242-18.876768 17.066667-27.539394 5.171717-8.662626 9.826263-16.808081 13.834343-24.307071s7.628283-14.610101 10.60202-21.20404c2.973737-6.464646 5.430303-12.541414 7.369697-17.971717-3.620202-0.905051-7.111111-2.068687-10.731313-3.361616s-7.111111-2.973737-10.731313-4.783839-7.240404-3.878788-10.731313-6.20606-7.369697-5.688889-10.860606-8.404041z m0.646464-12.670707v3.232323c4.008081 1.939394 8.016162 3.749495 12.024243 5.30101 4.008081 1.551515 8.016162 2.844444 12.024242 4.008081s8.016162 1.939394 12.024243 2.585859c4.008081 0.646465 8.016162 1.034343 11.894949 1.292929 1.034343-4.008081 1.939394-8.145455 2.715152-12.282828s1.422222-8.274747 1.810101-12.541414 0.775758-8.40404 1.034343-12.670707 0.258586-8.533333 0.129293-12.929293l-13.446465 8.533333-13.446464 8.533333-13.446465 8.533334-13.317172 8.40404z m78.610101 128.905051l12.8-8.145455 12.8-8.145455 12.8-8.145454 12.8-8.145455-6.335353-9.955555-6.335354-9.955556-6.335353-9.955555-6.335354-9.955556-12.8 8.145455-12.8 8.145454-12.8 8.145455-12.8 8.145454 6.335354 9.955556 6.335353 9.955555 6.335354 9.955556 6.335353 9.955556z" p-id="1309" fill="#d81e06"></path></svg>