<svg xmlns="http://www.w3.org/2000/svg">
<!-- config -->
  <symbol id="config" viewBox="0 0 56 56" >
    <g clip-path="url(#clip0_150_218)">
    <path d="M44.5491 22.9539C45.6853 25.0422 46.4589 27.3804 46.7631 29.909H38.9523C37.38 22.1228 28.3889 17.7012 21.0987 21.904C13.0954 26.518 13.0815 38.1027 21.056 42.7418C20.8526 46.5372 21.843 53.2643 31.0413 54.6847V59.0849H24.458L22.2743 51.5014C20.7543 51.1139 19.2464 50.5344 17.7757 49.7442L10.3595 54.0767L5.94588 49.663L9.9555 42.172C9.17735 40.805 8.56666 39.3491 8.13663 37.836L0 35.6258V29.3733L8.09313 26.9962C8.50863 25.4874 9.10288 24.0212 9.87813 22.6339L5.762 15.2748L10.1755 10.8614L17.5935 15.0284C19.0085 14.2495 20.46 13.6657 21.9239 13.263L24.2127 4.91553H30.4653L32.8205 13.438C34.1949 13.8592 35.5205 14.4257 36.7747 15.128L44.5638 10.6775L48.9772 15.091L44.5491 22.9542V22.9539ZM63.8745 39.3073C62.2858 28.5242 46.6529 27.9988 42.6445 39.9989H33.3898L31.4055 44.5393L37.5807 44.5253C36.3269 46.5338 34.654 47.8395 32.1637 47.5008C27.3674 46.5294 27.294 39.9883 31.2639 37.3889C33.7881 35.4522 37.072 36.7372 37.6761 38.5214L43.3629 36.9397C41.5574 31.8214 36.336 29.765 31.0416 31.5152C27.7104 32.6678 22.0754 37.2335 22.7924 44.6222C23.7716 52.3309 31.3854 54.7838 36.9933 51.9709C39.3601 50.7837 41.3461 48.7018 42.5626 46.1615C44.6209 53.3038 52.3196 54.6988 57.9546 51.4047C63.2062 48.3347 64.4393 43.1398 63.8746 39.3072L63.8745 39.3073ZM55.0136 46.9285C51.5594 48.6433 48.837 46.8502 48.1341 44.1154C47.4737 41.5457 48.5401 37.5348 52.8187 36.5579C59.0984 35.1239 60.5495 44.18 55.0136 46.9285Z" />
    </g>
    <defs>
    <clipPath id="clip0_150_218">
    <rect width="64" height="64" />
    </clipPath>
    </defs>
  </symbol>
  <!-- print -->
  <symbol id="print" viewBox="0 0 60 60">
    <path d="M20.625 7.5C19.1332 7.5 17.7024 8.09263 16.6475 9.14752C15.5926 10.2024 15 11.6332 15 13.125V15H11.25C9.26088 15 7.35322 15.7902 5.9467 17.1967C4.54018 18.6032 3.75 20.5109 3.75 22.5V39.375C3.75 40.8668 4.34263 42.2976 5.39752 43.3525C6.45242 44.4074 7.88316 45 9.375 45H15V46.875C15 48.3668 15.5926 49.7976 16.6475 50.8525C17.7024 51.9074 19.1332 52.5 20.625 52.5H39.75C41.2418 52.5 42.6726 51.9074 43.7275 50.8525C44.7824 49.7976 45.375 48.3668 45.375 46.875V45H50.625C52.1168 45 53.5476 44.4074 54.6025 43.3525C55.6574 42.2976 56.25 40.8668 56.25 39.375V22.5C56.25 20.5109 55.4598 18.6032 54.0533 17.1967C52.6468 15.7902 50.7391 15 48.75 15H45V13.125C45 11.6332 44.4074 10.2024 43.3525 9.14752C42.2976 8.09263 40.8668 7.5 39.375 7.5H20.625ZM41.25 15H18.75V13.125C18.75 12.6277 18.9475 12.1508 19.2992 11.7992C19.6508 11.4475 20.1277 11.25 20.625 11.25H39.375C39.8723 11.25 40.3492 11.4475 40.7008 11.7992C41.0525 12.1508 41.25 12.6277 41.25 13.125V15ZM20.625 37.5H39.75C40.2473 37.5 40.7242 37.6975 41.0758 38.0492C41.4275 38.4008 41.625 38.8777 41.625 39.375V46.875C41.625 47.3723 41.4275 47.8492 41.0758 48.2008C40.7242 48.5525 40.2473 48.75 39.75 48.75H20.625C20.1277 48.75 19.6508 48.5525 19.2992 48.2008C18.9475 47.8492 18.75 47.3723 18.75 46.875V39.375C18.75 38.8777 18.9475 38.4008 19.2992 38.0492C19.6508 37.6975 20.1277 37.5 20.625 37.5V37.5Z" />
  </symbol>
  <symbol id="timetable" viewBox="0 0 96 96">
    <path d="M78 46.5469C79.875 47.8281 81.5469 49.2812 83.0156 50.9062C84.4844 52.5313 85.75 54.3125 86.8125 56.25C87.875 58.1875 88.6562 60.2344 89.1562 62.3906C89.6563 64.5469 89.9375 66.75 90 69C90 72.7188 89.2969 76.2188 87.8906 79.5C86.4844 82.7812 84.5469 85.6406 82.0781 88.0781C79.6094 90.5156 76.75 92.4375 73.5 93.8438C70.25 95.25 66.75 95.9687 63 96C60.1562 96 57.4063 95.5781 54.75 94.7344C52.0937 93.8906 49.6562 92.6719 47.4375 91.0781C45.2188 89.4844 43.25 87.5781 41.5312 85.3594C39.8125 83.1406 38.4844 80.6875 37.5469 78H0V6H12V0H18V6H60V0H66V6H78V46.5469ZM6 12V24H72V12H66V18H60V12H18V18H12V12H6ZM36.1406 72C36.0469 71.0313 36 70.0312 36 69C36 66.3125 36.375 63.7031 37.125 61.1719C37.875 58.6406 39.0156 56.25 40.5469 54H36V48H42V52.0312C43.2813 50.4375 44.7031 49.0312 46.2656 47.8125C47.8281 46.5938 49.5156 45.5469 51.3281 44.6719C53.1406 43.7969 55.0312 43.1406 57 42.7031C58.9688 42.2656 60.9688 42.0313 63 42C66.125 42 69.125 42.5156 72 43.5469V30H6V72H36.1406ZM63 90C65.9062 90 68.625 89.4531 71.1562 88.3594C73.6875 87.2656 75.9062 85.7656 77.8125 83.8594C79.7188 81.9531 81.2187 79.7344 82.3125 77.2031C83.4063 74.6719 83.9687 71.9375 84 69C84 66.0938 83.4531 63.375 82.3594 60.8438C81.2656 58.3125 79.7656 56.0938 77.8594 54.1875C75.9531 52.2812 73.7344 50.7813 71.2031 49.6875C68.6719 48.5937 65.9375 48.0313 63 48C60.0938 48 57.375 48.5469 54.8438 49.6406C52.3125 50.7344 50.0938 52.2344 48.1875 54.1406C46.2812 56.0469 44.7813 58.2656 43.6875 60.7969C42.5937 63.3281 42.0313 66.0625 42 69C42 71.9062 42.5469 74.625 43.6406 77.1562C44.7344 79.6875 46.2344 81.9062 48.1406 83.8125C50.0469 85.7188 52.2656 87.2187 54.7969 88.3125C57.3281 89.4063 60.0625 89.9687 63 90ZM66 66H75V72H60V54H66V66ZM12 48H18V54H12V48ZM24 48H30V54H24V48ZM24 36H30V42H24V36ZM12 60H18V66H12V60ZM24 60H30V66H24V60ZM42 42H36V36H42V42ZM54 42H48V36H54V42ZM66 42H60V36H66V42Z"/>
  </symbol>
  <symbol id="math" viewBox="0 0 78 76">
    <path d="M19.8333 0.222656H12.1666V11.7227H0.666626V19.3893H12.1666V30.8893H19.8333V19.3893H31.3333V11.7227H19.8333V0.222656ZM46.6666 11.7227H77.3333V19.3893H46.6666V11.7227ZM46.6666 50.056H77.3333V57.7227H46.6666V50.056ZM46.6666 65.3893H77.3333V73.056H46.6666V65.3893ZM24.7783 47.3343L16 56.151L7.22163 47.3343L1.77829 52.7777L10.595 61.556L1.77829 70.3343L7.22163 75.7777L16 66.961L24.7783 75.7777L30.2216 70.3343L21.405 61.556L30.2216 52.7777L24.7783 47.3343V47.3343Z" />
  </symbol>
  <symbol id="album" viewBox="0 0 88 88">
    <path fill-rule="evenodd" clip-rule="evenodd" d="M14.6667 13C13.7462 13 13 13.7462 13 14.6667V62.3333C13 63.2538 13.7462 64 14.6667 64H62.3333C63.2538 64 64 63.2538 64 62.3333V14.6667C64 13.7462 63.2538 13 62.3333 13H14.6667ZM9 14.6667C9 11.5371 11.5371 9 14.6667 9H62.3333C65.4629 9 68 11.5371 68 14.6667V62.3333C68 65.4629 65.4629 68 62.3333 68H14.6667C11.5371 68 9 65.4629 9 62.3333V14.6667Z" />
    <path fill-rule="evenodd" clip-rule="evenodd" d="M77 20C78.1046 20 79 20.8954 79 22V71.5C79 73.4891 78.2098 75.3968 76.8033 76.8033C75.3968 78.2098 73.4892 79 71.5 79H22C20.8955 79 20 78.1046 20 77C20 75.8954 20.8955 75 22 75H71.5C72.4283 75 73.3185 74.6313 73.9749 73.9749C74.6313 73.3185 75 72.4283 75 71.5V22C75 20.8954 75.8955 20 77 20ZM27.4812 34.4296C27.0699 34.4273 26.6722 34.5773 26.3647 34.8505L12.3288 47.3281C11.5033 48.062 10.2391 47.9877 9.50527 47.1621C8.77139 46.3366 8.84569 45.0725 9.67122 44.3386L23.7072 31.8609C24.7527 30.9317 26.105 30.4219 27.5037 30.4297C28.9024 30.4376 30.2487 30.9624 31.2837 31.9033L49.012 48.0201C49.8294 48.7631 49.8896 50.028 49.1466 50.8454C48.4035 51.6627 47.1386 51.7229 46.3213 50.9799L28.593 34.863V34.863C28.2886 34.5863 27.8926 34.432 27.4812 34.4296Z" />
    <path fill-rule="evenodd" clip-rule="evenodd" d="M52.4523 36.3398C52.1522 36.1146 51.7849 35.9974 51.4099 36.0069C51.0351 36.0164 50.6745 36.152 50.3863 36.3918L41.6138 43.7031C40.7653 44.4103 39.5042 44.2957 38.797 43.4472C38.0898 42.5987 38.2044 41.3376 39.0529 40.6304L47.8254 33.319C48.8056 32.5028 50.0331 32.0406 51.3083 32.0082C52.5834 31.9758 53.8321 32.3745 54.8525 33.1399C54.8525 33.1399 54.8524 33.1398 54.8525 33.1399L64 40.0002V34.8334C64 33.7288 64.8954 32.8334 66 32.8334C67.1046 32.8334 68 33.7288 68 34.8334V43.9799C68.0002 43.9944 68.0002 44.0088 68 44.0233V49.5001C68 50.6046 67.1046 51.5001 66 51.5001C64.8954 51.5001 64 50.6046 64 49.5001V45.0001L52.4523 36.3398ZM11 32.8334C12.1046 32.8334 13 33.7288 13 34.8334V49.5001C13 50.6046 12.1046 51.5001 11 51.5001C9.89543 51.5001 9 50.6046 9 49.5001V34.8334C9 33.7288 9.89543 32.8334 11 32.8334Z" />
  </symbol>
  <symbol id="wrongs" viewBox="0 0 80 80">
    <g clip-path="url(#clip0_149_200)">
    <path d="M70 26.7188C68.9583 19.1146 65.599 12.7604 59.9219 7.65625C54.2448 2.55208 47.6042 0 40 0C32.3958 0 25.7552 2.57812 20.0781 7.73438C14.401 12.8906 11.1458 19.2188 10.3125 26.7188H10C7.1875 26.7188 4.81771 27.6562 2.89062 29.5312C0.963542 31.4062 0 33.8021 0 36.7188C0 40.1562 0.911458 43.2292 2.73438 45.9375C4.55729 48.6458 6.97917 50.6771 10 52.0312C10.5208 59.8438 13.6719 66.4583 19.4531 71.875C25.2344 77.2917 32.0833 80 40 80C47.9167 80 54.7656 77.2917 60.5469 71.875C66.3281 66.4583 69.4792 59.8438 70 52.0312C73.0208 50.6771 75.4427 48.6458 77.2656 45.9375C79.0885 43.2292 80 40.1562 80 36.7188C80 33.8021 79.0365 31.4062 77.1094 29.5312C75.1823 27.6562 72.8125 26.7188 70 26.7188ZM10 33.2812V44.0625C7.8125 42.1875 6.71875 39.7396 6.71875 36.7188C6.71875 34.4271 7.8125 33.2812 10 33.2812ZM40 73.2812C33.5417 73.2812 28.0469 71.0156 23.5156 66.4844C18.9844 61.9531 16.7188 56.4583 16.7188 50V30C16.7188 28.4375 16.8229 27.2396 17.0312 26.4062C22.5521 25.3646 26.5625 21.6667 29.0625 15.3125C36.25 20.3125 47.3438 22.9688 62.3438 23.2812C62.9688 25.3646 63.2812 27.6042 63.2812 30V50C63.2812 56.4583 61.0156 61.9531 56.4844 66.4844C51.9531 71.0156 46.4583 73.2812 40 73.2812ZM70 44.0625V33.2812C72.1875 33.2812 73.2812 34.4271 73.2812 36.7188C73.2812 39.7396 72.1875 42.1875 70 44.0625ZM40 53.2812C42.1875 53.2812 43.2812 52.1875 43.2812 50V46.7188H36.7188V50C36.7188 52.1875 37.8125 53.2812 40 53.2812ZM30 36.7188C30 37.5521 29.6615 38.3073 28.9844 38.9844C28.3073 39.6615 27.5521 40 26.7188 40C25.7812 40 24.974 39.6615 24.2969 38.9844C23.6198 38.3073 23.2812 37.5521 23.2812 36.7188C23.2812 35.7812 23.6198 34.974 24.2969 34.2969C24.974 33.6198 25.7812 33.2812 26.7188 33.2812C27.5521 33.2812 28.3073 33.6198 28.9844 34.2969C29.6615 34.974 30 35.7812 30 36.7188ZM56.7188 36.7188C56.7188 37.5521 56.3802 38.3073 55.7031 38.9844C55.026 39.6615 54.2188 40 53.2812 40C52.4479 40 51.6927 39.6615 51.0156 38.9844C50.3385 38.3073 50 37.5521 50 36.7188C50 35.7812 50.3385 34.974 51.0156 34.2969C51.6927 33.6198 52.4479 33.2812 53.2812 33.2812C54.2188 33.2812 55.026 33.6198 55.7031 34.2969C56.3802 34.974 56.7188 35.7812 56.7188 36.7188ZM43.2812 56.7188H36.7188C34.8438 56.7188 33.2552 57.3698 31.9531 58.6719C30.651 59.974 30 61.5104 30 63.2812C30 62.4479 31.3021 61.6927 33.9062 61.0156C36.5104 60.3385 38.5417 60 40 60C41.4583 60 43.4896 60.3385 46.0938 61.0156C48.6979 61.6927 50 62.4479 50 63.2812C50 61.5104 49.349 59.974 48.0469 58.6719C46.7448 57.3698 45.1562 56.7188 43.2812 56.7188Z" />
    </g>
    <defs>
    <clipPath id="clip0_149_200">
    <rect width="80" height="80" />
    </clipPath>
    </defs>
  </symbol>
  <symbol id="new-course" viewBox="0 0 38 38">
    <path fill-rule="evenodd" clip-rule="evenodd" d="M38 0H0V38H38V0ZM5.54167 4.75H4.75V26.125H23.2647V24.5417H6.33333V6.33333H27.7083V8.70833H29.2917V4.75H5.54167ZM30.875 12.6667C30.875 13.2966 30.6248 13.9006 30.1794 14.346C29.734 14.7914 29.1299 15.0417 28.5 15.0417C27.8701 15.0417 27.266 14.7914 26.8206 14.346C26.3752 13.9006 26.125 13.2966 26.125 12.6667C26.125 12.0368 26.3752 11.4327 26.8206 10.9873C27.266 10.5419 27.8701 10.2917 28.5 10.2917C29.1299 10.2917 29.734 10.5419 30.1794 10.9873C30.6248 11.4327 30.875 12.0368 30.875 12.6667V12.6667ZM32.4821 17.8093C31.9501 17.0953 31.1362 16.6337 30.1079 16.6337H25.3579C25.0971 16.6366 24.8427 16.7144 24.6248 16.8578C24.5021 16.9369 24.4 17.0256 24.3271 17.0937C24.1737 17.2431 24.0301 17.4023 23.8973 17.5703C23.5978 17.9487 23.3126 18.3382 23.0423 18.738C22.7763 19.1259 22.5237 19.5122 22.3313 19.8099H19.0245C18.7096 19.8099 18.4076 19.935 18.1849 20.1577C17.9622 20.3804 17.837 20.6824 17.837 20.9974C17.837 21.3123 17.9622 21.6144 18.1849 21.8371C18.4076 22.0598 18.7096 22.1849 19.0245 22.1849H22.9829C23.393 22.1849 23.7745 21.9735 23.9915 21.6252V21.6236L23.9962 21.618L24.012 21.5927L24.073 21.4953C24.2271 21.2512 24.3833 21.0084 24.5417 20.767V32.0625C24.5421 32.3582 24.6528 32.643 24.8521 32.8614C25.0514 33.0798 25.325 33.216 25.6194 33.2433C25.9138 33.2706 26.2078 33.1871 26.4439 33.0092C26.6801 32.8312 26.8413 32.5715 26.8961 32.281L28.0503 26.125H28.2855L29.3075 32.258C29.3561 32.5524 29.5136 32.8177 29.7489 33.0012C29.9842 33.1847 30.2799 33.2729 30.5773 33.2482C30.8746 33.2236 31.1518 33.0879 31.3536 32.8682C31.5555 32.6485 31.6672 32.3609 31.6667 32.0625V24.2709C32.2858 23.7825 32.6863 23.07 32.9254 22.3804C33.1789 21.6375 33.2854 20.8523 33.2389 20.0688C33.1914 19.3056 32.9808 18.4775 32.4821 17.8093Z" />
  </symbol>
  <symbol id="homework-today" viewBox="0 0 36 36">
    <path fill-rule="evenodd" clip-rule="evenodd" d="M33 7C32.2044 7 31.4413 7.31607 30.8787 7.87868C30.3161 8.44129 30 9.20435 30 10V12H36V10C36 9.20435 35.6839 8.44129 35.1213 7.87868C34.5587 7.31607 33.7956 7 33 7ZM36 14H30V30.5L33 35L36 30.5V14ZM0 3V33C0 33.7956 0.316071 34.5587 0.87868 35.1213C1.44129 35.6839 2.20435 36 3 36H25C25.7956 36 26.5587 35.6839 27.1213 35.1213C27.6839 34.5587 28 33.7956 28 33V3C28 2.20435 27.6839 1.44129 27.1213 0.87868C26.5587 0.316071 25.7956 0 25 0H3C2.20435 0 1.44129 0.316071 0.87868 0.87868C0.316071 1.44129 0 2.20435 0 3ZM14 9C14 8.73478 14.1054 8.48043 14.2929 8.29289C14.4804 8.10536 14.7348 8 15 8H23C23.2652 8 23.5196 8.10536 23.7071 8.29289C23.8946 8.48043 24 8.73478 24 9C24 9.26522 23.8946 9.51957 23.7071 9.70711C23.5196 9.89464 23.2652 10 23 10H15C14.7348 10 14.4804 9.89464 14.2929 9.70711C14.1054 9.51957 14 9.26522 14 9ZM15 12C14.7348 12 14.4804 12.1054 14.2929 12.2929C14.1054 12.4804 14 12.7348 14 13C14 13.2652 14.1054 13.5196 14.2929 13.7071C14.4804 13.8946 14.7348 14 15 14H23C23.2652 14 23.5196 13.8946 23.7071 13.7071C23.8946 13.5196 24 13.2652 24 13C24 12.7348 23.8946 12.4804 23.7071 12.2929C23.5196 12.1054 23.2652 12 23 12H15ZM14 22C14 21.7348 14.1054 21.4804 14.2929 21.2929C14.4804 21.1054 14.7348 21 15 21H23C23.2652 21 23.5196 21.1054 23.7071 21.2929C23.8946 21.4804 24 21.7348 24 22C24 22.2652 23.8946 22.5196 23.7071 22.7071C23.5196 22.8946 23.2652 23 23 23H15C14.7348 23 14.4804 22.8946 14.2929 22.7071C14.1054 22.5196 14 22.2652 14 22ZM15 25C14.7348 25 14.4804 25.1054 14.2929 25.2929C14.1054 25.4804 14 25.7348 14 26C14 26.2652 14.1054 26.5196 14.2929 26.7071C14.4804 26.8946 14.7348 27 15 27H23C23.2652 27 23.5196 26.8946 23.7071 26.7071C23.8946 26.5196 24 26.2652 24 26C24 25.7348 23.8946 25.4804 23.7071 25.2929C23.5196 25.1054 23.2652 25 23 25H15ZM6 22V25H9V22H6ZM5 20H10C10.2652 20 10.5196 20.1054 10.7071 20.2929C10.8946 20.4804 11 20.7348 11 21V26C11 26.2652 10.8946 26.5196 10.7071 26.7071C10.5196 26.8946 10.2652 27 10 27H5C4.73478 27 4.48043 26.8946 4.29289 26.7071C4.10536 26.5196 4 26.2652 4 26V21C4 20.7348 4.10536 20.4804 4.29289 20.2929C4.48043 20.1054 4.73478 20 5 20V20ZM11.707 9.707C11.8892 9.5184 11.99 9.2658 11.9877 9.0036C11.9854 8.7414 11.8802 8.49059 11.6948 8.30518C11.5094 8.11977 11.2586 8.0146 10.9964 8.01233C10.7342 8.01005 10.4816 8.11084 10.293 8.293L7 11.586L5.707 10.293C5.5184 10.1108 5.2658 10.01 5.0036 10.0123C4.7414 10.0146 4.49059 10.1198 4.30518 10.3052C4.11977 10.4906 4.0146 10.7414 4.01233 11.0036C4.01005 11.2658 4.11084 11.5184 4.293 11.707L7 14.414L11.707 9.707Z" />
  </symbol>
  <symbol id="assign-homework" viewBox="0 0 38 38">
    <path d="M37.2969 0.703101C37.0861 0.493215 36.8197 0.347898 36.529 0.284236C36.2384 0.220574 35.9356 0.241212 35.6563 0.343726L1.28131 12.8437C0.984856 12.9562 0.729625 13.1561 0.549517 13.4171C0.369409 13.678 0.272949 13.9876 0.272949 14.3047C0.272949 14.6217 0.369409 14.9313 0.549517 15.1922C0.729625 15.4532 0.984856 15.6532 1.28131 15.7656L14.7032 21.125L24.6094 11.1875L26.8126 13.3906L16.8594 23.3437L22.2344 36.7656C22.3502 37.0563 22.5506 37.3056 22.8097 37.4811C23.0688 37.6566 23.3746 37.7503 23.6876 37.75C24.0033 37.7435 24.3097 37.6415 24.5663 37.4574C24.8229 37.2733 25.0178 37.0158 25.1251 36.7187L37.6251 2.34373C37.7315 2.06728 37.7572 1.76627 37.6991 1.47579C37.641 1.18531 37.5015 0.917335 37.2969 0.703101Z"/>
  </symbol>
  <!-- COURSES -->
  <symbol id="chinese" viewBox="0 0 31 31">
    <path d="M29.2778 3.44444H17.2222V1.72222C17.2222 1.26546 17.0408 0.827406 16.7178 0.504427C16.3948 0.181448 15.9568 0 15.5 0C15.0432 0 14.6052 0.181448 14.2822 0.504427C13.9592 0.827406 13.7778 1.26546 13.7778 1.72222V3.44444H1.72222C1.26546 3.44444 0.827406 3.62589 0.504427 3.94887C0.181448 4.27185 0 4.7099 0 5.16667C0 5.62343 0.181448 6.06148 0.504427 6.38446C0.827406 6.70744 1.26546 6.88889 1.72222 6.88889H22.1857C21.4115 12.0512 19.0384 16.8408 15.4001 20.584C12.8789 17.9982 10.9518 14.8939 9.75294 11.4872C9.60221 11.0558 9.28628 10.7019 8.87464 10.5035C8.463 10.305 7.98938 10.2782 7.55797 10.4289C7.12656 10.5796 6.7727 10.8956 6.57423 11.3072C6.37575 11.7189 6.34894 12.1925 6.49967 12.6239C7.84954 16.4603 10.0113 19.9603 12.8374 22.8849C9.92344 25.1835 6.52757 26.7937 2.90367 27.5952C2.48869 27.6857 2.12181 27.9265 1.87354 28.2711C1.62526 28.6157 1.5131 29.04 1.5586 29.4623C1.6041 29.8846 1.80405 30.2752 2.12003 30.559C2.43602 30.8428 2.84575 30.9999 3.2705 31C3.39498 31 3.51911 30.9867 3.64078 30.9604C7.95771 30.0081 11.9887 28.0496 15.4053 25.2443C18.8305 28.0473 22.867 30.0054 27.1887 30.9604C27.633 31.0526 28.0957 30.9657 28.4763 30.7186C28.8569 30.4715 29.1246 30.0843 29.2213 29.6409C29.3179 29.1976 29.2357 28.734 28.9925 28.351C28.7493 27.9679 28.3647 27.6963 27.9224 27.5952C24.2871 26.7954 20.8787 25.1866 17.9507 22.8883C22.1619 18.5157 24.86 12.9081 25.6491 6.88889H29.2778C29.7345 6.88889 30.1726 6.70744 30.4956 6.38446C30.8186 6.06148 31 5.62343 31 5.16667C31 4.7099 30.8186 4.27185 30.4956 3.94887C30.1726 3.62589 29.7345 3.44444 29.2778 3.44444Z" />
  </symbol>
  <symbol id="math" viewBox="0 0 78 76">
    <path d="M19.8333 0.222656H12.1666V11.7227H0.666626V19.3893H12.1666V30.8893H19.8333V19.3893H31.3333V11.7227H19.8333V0.222656ZM46.6666 11.7227H77.3333V19.3893H46.6666V11.7227ZM46.6666 50.056H77.3333V57.7227H46.6666V50.056ZM46.6666 65.3893H77.3333V73.056H46.6666V65.3893ZM24.7783 47.3343L16 56.151L7.22163 47.3343L1.77829 52.7777L10.595 61.556L1.77829 70.3343L7.22163 75.7777L16 66.961L24.7783 75.7777L30.2216 70.3343L21.405 61.556L30.2216 52.7777L24.7783 47.3343V47.3343Z" />
  </symbol>
  <symbol id="english" viewBox="0 0 31 31">
    <path d="M18.0835 12.9165H20.6668V13.8943C21.5421 13.3095 22.5598 12.9733 23.6113 12.9217C24.6628 12.8702 25.7085 13.1051 26.6368 13.6015C27.5651 14.0979 28.3412 14.8371 28.8822 15.7402C29.4232 16.6433 29.7088 17.6763 29.7085 18.729V25.8332H27.1252V18.729C27.1252 16.8819 25.6075 15.4998 23.896 15.4998C22.1845 15.4998 20.6668 16.8819 20.6668 18.729V25.8332H18.0835V12.9165ZM15.5002 5.1665V7.74984H5.16683V14.2082H15.5002V16.7915H5.16683V23.2498H15.5002V25.8332H2.5835V5.1665H15.5002Z" />
  </symbol>
  <symbol id="exercise" viewBox="0 0 31 31">
    <path d="M30.8287 2.56906V12.8453C30.8287 14.0442 29.9724 15.2431 28.7735 15.4144V24.4917C28.7735 26.7182 27.4033 31 22.2652 31H19.6961C20.3812 30.3149 21.0663 29.4586 21.4088 28.4309H22.2652C25.8619 28.4309 26.0331 25.1768 26.0331 24.663V15.4144C24.8343 15.2431 23.9779 14.2155 23.9779 12.8453V2.56906C23.9779 1.19889 25.1768 0 26.547 0H28.2597C29.6298 0 30.8287 1.19889 30.8287 2.56906ZM20.2099 26.0332C20.2099 28.6022 18.1547 30.8287 15.4144 30.8287H8.56354C3.42541 30.8287 2.05525 26.547 2.05525 24.3204V15.4144C0.856353 15.2431 0 14.0442 0 12.8453V2.56906C0 1.19889 1.19889 0 2.56906 0H4.28177C5.65193 0 6.85083 1.19889 6.85083 2.56906V12.8453C6.85083 14.0442 5.99447 15.2431 4.79558 15.4144V24.4917C4.79558 25.1768 4.96685 28.2597 8.56354 28.2597H11.3039C10.9613 27.5746 10.7901 26.8895 10.7901 26.2044V9.07735C10.7901 6.50829 12.8453 4.28177 15.5856 4.28177C18.326 4.28177 20.2099 6.33702 20.2099 9.07735M17.4696 8.90608C17.4696 7.87845 16.6133 6.85083 15.4144 6.85083C14.2155 6.85083 13.3591 7.87845 13.3591 8.90608V26.0332C13.3591 27.232 14.3867 28.0884 15.4144 28.0884C16.442 28.0884 17.4696 27.0608 17.4696 26.0332V8.90608V8.90608Z"/>
  </symbol>
  <symbol id="activity" viewBox="0 0 32 31">
    <path d="M15.2341 12.581C15.3606 12.6232 15.4917 12.6539 15.6238 12.6733C15.8347 12.7269 16.0489 12.7645 16.2654 12.7873C16.3685 13.2834 16.6358 13.7303 17.0241 14.0559C17.4124 14.3815 17.8991 14.5667 18.4056 14.5817C18.9121 14.5967 19.4089 14.4407 19.8158 14.1387C20.2227 13.8366 20.516 13.4063 20.6483 12.9172C20.8967 12.0215 21.0244 11.0961 21.0278 10.1662C21.5716 9.42846 22.0189 8.62423 22.3588 7.77308L22.3736 7.73889L22.4956 7.4426L22.6517 7.0483C22.8185 6.61634 22.9762 6.18092 23.1246 5.74233L23.1554 5.65116L23.1668 5.6147C23.2443 5.38678 23.3218 5.13379 23.3947 4.87852C23.438 4.73151 23.479 4.58223 23.5189 4.4318C23.7063 3.76477 23.8291 3.0813 23.8859 2.3908V2.35661C23.9056 1.79142 23.7146 1.23906 23.3498 0.806894C22.985 0.374724 22.4726 0.0936049 21.9121 0.0181682C21.4688 -0.0387175 21.0186 0.0386923 20.6198 0.240388C20.2695 0.417748 19.971 0.682581 19.7532 1.00922C19.5354 1.33586 19.4056 1.71323 19.3765 2.10476V2.11615C19.2877 2.813 19.1234 3.49812 18.8865 4.15944C18.7725 4.50132 18.6586 4.8261 18.5446 5.1167C18.3167 4.99932 18.0774 4.90017 17.8335 4.8204L17.8119 4.81015C16.7857 4.4839 15.6723 4.57512 14.713 5.06403C13.7536 5.55295 13.0255 6.40018 12.6865 7.42217C12.3474 8.44415 12.4247 9.55858 12.9015 10.524C13.3784 11.4894 14.2164 12.228 15.2341 12.5799V12.581V12.581ZM19.5486 12.6163C19.488 12.8413 19.3583 13.0417 19.1779 13.1892C18.9975 13.3367 18.7754 13.4239 18.5429 13.4386C18.3103 13.4533 18.079 13.3948 17.8814 13.2712C17.6839 13.1476 17.53 12.9652 17.4415 12.7497C17.658 12.7109 17.8711 12.6562 18.0785 12.5856C18.7054 12.3625 19.2821 12.0178 19.7754 11.5713C19.7184 11.9246 19.6432 12.2722 19.5486 12.6163ZM13.7253 7.76168C13.8472 7.39422 14.0402 7.05437 14.2935 6.76155C14.5468 6.46874 14.8552 6.22869 15.2013 6.05513C15.5474 5.88157 15.9242 5.7779 16.3104 5.75004C16.6965 5.72218 17.0844 5.77067 17.4518 5.89276L17.4859 5.90415C17.7082 5.97481 17.9224 6.06825 18.1253 6.18221L18.1013 6.23805V6.25173C17.8465 6.84474 17.5004 7.39421 17.0757 7.8802L17.0575 7.89844L17.029 7.93148C16.9926 7.97437 16.9546 8.0158 16.915 8.0557C16.8774 8.04034 16.8394 8.0259 16.801 8.01239L16.7669 8.001C16.5855 7.94104 16.3878 7.95533 16.2169 8.04075C16.0461 8.12617 15.916 8.27577 15.8552 8.45683C15.8211 8.54507 15.8064 8.63966 15.8123 8.73408C15.8182 8.82851 15.8445 8.92053 15.8894 9.00384C15.9577 9.14971 16.074 9.26708 16.2187 9.3366C16.2575 9.34571 16.2951 9.35597 16.3327 9.36851C16.4352 9.40497 16.5424 9.4289 16.6506 9.43802C16.8241 9.44827 16.9969 9.40873 17.1486 9.32406C17.2284 9.28304 17.3047 9.23631 17.3765 9.18275C17.568 9.03233 17.7435 8.86367 17.8985 8.67564L17.9099 8.66424C18.419 8.09053 18.8334 7.43923 19.1372 6.73491C19.1727 6.6541 19.2061 6.5724 19.2375 6.4899C19.2389 6.4843 19.2389 6.47841 19.2375 6.47281L19.2489 6.44546C19.3123 6.29695 19.3738 6.14765 19.4335 5.9976L19.4722 5.89845L19.511 5.79817C19.9942 4.64149 20.3315 3.42896 20.5172 2.18909C20.5389 1.89342 20.6751 1.61785 20.8967 1.421C21.1176 1.22452 21.4073 1.12369 21.7024 1.14066C21.9474 1.15434 22.1811 1.25007 22.3634 1.41417C22.4909 1.52595 22.5918 1.66478 22.6588 1.82052C22.7259 1.97627 22.7573 2.14501 22.7508 2.31444C22.7394 2.49564 22.7178 2.68709 22.6882 2.88424C22.597 3.44492 22.4694 4.00104 22.3053 4.54462L22.2574 4.70416C22.0504 5.38324 21.8166 6.05384 21.5566 6.7144L21.5189 6.81013C21.4544 6.97371 21.3883 7.13668 21.3207 7.29901L21.3036 7.34004L21.2056 7.57707C20.8049 8.5068 20.2612 9.36811 19.5942 10.1298C19.0604 10.809 18.3327 11.3098 17.5076 11.5656C17.1206 11.6707 16.7167 11.6986 16.319 11.6477C16.1566 11.6276 15.9958 11.5956 15.8381 11.552C15.755 11.5448 15.6731 11.5276 15.5942 11.5007C15.2259 11.378 14.8854 11.1839 14.5922 10.9296C14.2989 10.6752 14.0586 10.3656 13.8851 10.0184C13.7115 9.67117 13.6081 9.29315 13.5807 8.90594C13.5532 8.51872 13.6024 8.1299 13.7253 7.76168V7.76168ZM11.4609 2.25518C11.3416 2.33973 11.2066 2.39951 11.0638 2.43098C10.921 2.46246 10.7734 2.46499 10.6296 2.43842C10.4858 2.41186 10.3488 2.35675 10.2267 2.27633C10.1046 2.19592 9.9998 2.09185 9.91858 1.97026C9.83737 1.84867 9.78136 1.71203 9.75385 1.56842C9.72634 1.42482 9.72791 1.27715 9.75844 1.13416C9.78898 0.991165 9.84786 0.855743 9.93163 0.735897C10.0154 0.61605 10.1223 0.514211 10.2461 0.436398C10.4873 0.28478 10.7782 0.233239 11.0568 0.292735C11.3354 0.352231 11.5798 0.518071 11.7381 0.754986C11.8963 0.991901 11.9559 1.2812 11.9041 1.56136C11.8524 1.84152 11.6934 2.09044 11.4609 2.25518V2.25518ZM25.0312 23.7319C25.1517 23.6463 25.2881 23.5858 25.4324 23.5539C25.5766 23.5219 25.7259 23.5192 25.8712 23.546C26.0165 23.5727 26.1551 23.6283 26.2785 23.7095C26.402 23.7907 26.508 23.8958 26.5901 24.0187C26.6722 24.1415 26.7289 24.2796 26.7568 24.4247C26.7847 24.5698 26.7831 24.7191 26.7523 24.8636C26.7215 25.0081 26.6621 25.145 26.5774 25.2662C26.4928 25.3873 26.3847 25.4903 26.2596 25.5689C26.016 25.7221 25.7222 25.7743 25.4408 25.7143C25.1593 25.6543 24.9123 25.4869 24.7524 25.2476C24.5924 25.0084 24.532 24.7162 24.5841 24.4332C24.6361 24.1501 24.7965 23.8985 25.0312 23.7319V23.7319ZM26.1696 7.87564C26.5202 7.87564 26.8565 7.73637 27.1044 7.48846C27.3523 7.24055 27.4915 6.90431 27.4915 6.55372C27.4915 6.20312 27.3523 5.86689 27.1044 5.61898C26.8565 5.37107 26.5202 5.23179 26.1696 5.23179C25.819 5.23179 25.4828 5.37107 25.2349 5.61898C24.987 5.86689 24.8477 6.20312 24.8477 6.55372C24.8477 6.90431 24.987 7.24055 25.2349 7.48846C25.4828 7.73637 25.819 7.87564 26.1696 7.87564V7.87564ZM5.29688 7.65228C5.15265 7.75307 4.98975 7.82404 4.81773 7.86105C4.64572 7.89806 4.46804 7.90035 4.29512 7.8678C4.12221 7.83525 3.95753 7.7685 3.81075 7.67147C3.66396 7.57445 3.53802 7.44909 3.44032 7.30276C3.34261 7.15643 3.2751 6.99206 3.24174 6.8193C3.20839 6.64653 3.20986 6.46885 3.24607 6.29666C3.28228 6.12447 3.3525 5.96124 3.45261 5.81655C3.55273 5.67185 3.68072 5.5486 3.82909 5.45401C4.12075 5.25937 4.47778 5.18856 4.82165 5.25717C5.16552 5.32577 5.46805 5.52816 5.66269 5.81982C5.85733 6.11148 5.92814 6.46852 5.85954 6.81238C5.79093 7.15625 5.58854 7.45878 5.29688 7.65342V7.65228Z" />
  <path d="M31.2167 14.6883C31.0748 14.7539 30.9213 14.7909 30.7651 14.7971C30.6088 14.8034 30.4529 14.7788 30.3062 14.7247C29.0976 14.2725 27.7936 14.1366 26.5178 14.3299C25.2419 14.5231 24.0366 15.0392 23.0162 15.829C25.6681 15.8974 28.2606 16.6199 30.5637 17.9361C31.1269 18.254 31.5415 18.7816 31.7173 19.404C31.893 20.0263 31.8156 20.6929 31.5018 21.2584C31.1881 21.8239 30.6635 22.2424 30.0425 22.4227C29.4215 22.603 28.7543 22.5305 28.1865 22.221C26.8232 21.4297 25.307 20.9378 23.7388 20.7781C22.1706 20.6183 20.5864 20.7944 19.0915 21.2945C19.4732 22.0272 19.7593 22.8067 19.9405 23.6135C20.0054 23.854 20.0373 24.1036 20.0362 24.352C20.0749 24.6669 20.0461 24.9865 19.9518 25.2895C19.8575 25.5924 19.6998 25.8719 19.4892 26.1092C19.398 26.2004 19.2966 26.2802 19.1872 26.3474C18.8505 26.6709 18.4366 26.9027 17.9849 27.0209L3.46884 30.9069C3.00081 31.0318 2.50814 31.0312 2.04042 30.9052C1.57269 30.7792 1.1464 30.5322 0.804458 30.1891C0.462511 29.846 0.216968 29.4189 0.0925378 28.9508C-0.0318922 28.4826 -0.0308193 27.9899 0.095649 27.5223L3.98165 13.004C4.101 12.5472 4.33656 12.129 4.66541 11.7903C4.73028 11.6852 4.80673 11.5877 4.89332 11.4997C5.12323 11.2943 5.3936 11.1393 5.68702 11.0447C5.98045 10.9501 6.29043 10.918 6.59701 10.9504C6.87393 10.9436 7.15085 10.9789 7.41752 11.0553C8.12526 11.2151 8.81153 11.4584 9.46194 11.78C9.78103 9.9339 9.47334 8.03306 8.5856 6.38294C8.41785 6.07012 8.38125 5.70348 8.48383 5.36367C8.58641 5.02387 8.81978 4.73873 9.1326 4.57099C9.44542 4.40325 9.81206 4.36664 10.1519 4.46922C10.4917 4.57181 10.7768 4.80517 10.9445 5.11799C12.2773 7.60088 12.6132 10.4986 11.8836 13.2205C12.7682 13.8485 13.6092 14.5357 14.4009 15.2774C14.641 15.034 14.9667 14.8941 15.3085 14.8875C15.6503 14.8808 15.9812 15.008 16.2305 15.2419C16.4799 15.4758 16.6279 15.7978 16.6432 16.1394C16.6584 16.4809 16.5396 16.8149 16.312 17.07C17.9629 16.424 19.6987 16.0205 21.4652 15.8723C21.3252 15.7599 21.2122 15.6173 21.1347 15.4553C21.0572 15.2932 21.0172 15.1158 21.0176 14.9362C21.018 14.7565 21.0589 14.5793 21.1372 14.4176C21.2155 14.256 21.3292 14.114 21.4698 14.0022C22.8149 12.9384 24.4118 12.24 26.106 11.9744C27.8003 11.7089 29.5343 11.8853 31.1404 12.4866C31.3605 12.57 31.551 12.7165 31.6881 12.9079C31.8252 13.0992 31.9027 13.3268 31.9109 13.562C31.919 13.7973 31.8575 14.0297 31.734 14.23C31.6105 14.4304 31.4305 14.5898 31.2167 14.6883V14.6883ZM10.8317 23.0722L10.6255 22.8956L10.8146 23.0574L10.8317 23.0711V23.0722ZM10.8317 23.0722L10.9822 23.1999C10.9323 23.1566 10.8822 23.1137 10.8317 23.0711V23.0722ZM2.33722 29.8049C2.61072 29.879 2.90018 29.879 3.17482 29.8061L3.83351 29.634C2.90204 28.9586 2.06534 28.1614 1.34578 27.2636L1.19649 27.822C1.14113 28.0271 1.12672 28.2411 1.15409 28.4518C1.18146 28.6625 1.25007 28.8657 1.35601 29.0498C1.46195 29.234 1.60313 29.3955 1.77149 29.525C1.93985 29.6546 2.13209 29.7497 2.33722 29.8049V29.8049ZM4.15601 26.948C4.96694 27.6961 5.87969 28.3257 6.86709 28.818L10.0557 27.9645C8.81486 27.2313 7.65712 26.3659 6.60271 25.3833C5.22416 24.0809 4.02057 22.6049 3.02212 20.9925L2.11728 24.3759C2.67114 25.3258 3.35762 26.1919 4.15601 26.948V26.948ZM8.16395 23.7172C9.68477 25.1214 11.4296 26.2615 13.3263 27.0904L16.165 26.3292C13.569 25.3028 11.2305 23.7182 9.31493 21.6876C8.64419 21.0206 8.01111 20.3168 7.41866 19.5794C7.15655 19.2546 6.91268 18.9298 6.68476 18.6073C5.83203 17.456 5.15175 16.1864 4.66541 14.8387L3.86427 17.8711C4.95182 20.0519 6.40624 22.0294 8.16395 23.7172V23.7172ZM30.4247 19.2614C30.3128 19.126 30.1749 19.0143 30.019 18.9332H30.0133C28.082 17.8286 25.9289 17.1678 23.7104 16.9989C21.4919 16.8299 19.2636 17.1571 17.1872 17.9566L16.9684 18.0364L16.9787 18.0478C14.8196 18.9124 12.892 20.2687 11.3491 22.009C11.6443 22.2677 11.9303 22.5047 12.2141 22.7326C12.6118 23.0517 13.0118 23.3469 13.4676 23.6443C14.7112 22.2131 16.2875 21.1095 18.0579 20.4307C19.7841 19.7535 21.6404 19.473 23.4896 19.6097C25.3388 19.7463 27.1337 20.2968 28.7415 21.2204C29.0068 21.3795 29.3197 21.4397 29.6251 21.3902C29.9304 21.3408 30.2084 21.185 30.4099 20.9503C30.6114 20.7157 30.7234 20.4173 30.7261 20.108C30.7288 19.7987 30.6221 19.4985 30.4247 19.2603V19.2614Z" />
  </symbol>
  <symbol id="music" viewBox="0 0 31 31">
    <path d="M7.75016 23.9899C10.5996 23.9899 12.9168 21.6727 12.9168 18.8233V5.71931L24.5418 9.94565V19.5427C23.7602 19.077 22.8683 18.8286 21.9585 18.8233C19.1091 18.8233 16.7918 21.1405 16.7918 23.9899C16.7918 26.8394 19.1091 29.1566 21.9585 29.1566C24.8079 29.1566 27.1252 26.8394 27.1252 23.9899V9.04148C27.1253 8.77647 27.0439 8.51784 26.8918 8.30081C26.7397 8.08377 26.5244 7.91889 26.2752 7.8286L12.0669 2.66194C11.8719 2.59063 11.6625 2.56746 11.4566 2.59439C11.2506 2.62132 11.0543 2.69755 10.8841 2.81661C10.7139 2.93567 10.575 3.09404 10.4792 3.27827C10.3833 3.46249 10.3333 3.66714 10.3335 3.87481V14.3761C9.55187 13.9104 8.65999 13.662 7.75016 13.6566C4.90075 13.6566 2.5835 15.9739 2.5835 18.8233C2.5835 21.6727 4.90075 23.9899 7.75016 23.9899Z" />
  </symbol>
  <symbol id="law" viewBox="0 0 30 31">
    <path d="M29.0022 13.7778L25.2593 4.59259H27.5556V2.2963H16.0741V0H13.7778V2.2963H2.2963V4.59259H4.59259L0.872593 13.7778H0V16.0741H0.344445C0.702667 17.2176 1.43059 18.2096 2.41111 18.8985C3.37934 19.6006 4.54474 19.9787 5.74074 19.9787C6.93674 19.9787 8.10214 19.6006 9.07037 18.8985C10.0517 18.2054 10.7843 17.2152 11.16 16.0741H11.4815V13.7778H10.4481L6.61333 4.59259H13.7778V22.963H9.18519L8.28963 23.3763L3.69704 29.14L4.59259 31H25.2593L26.1548 29.14L21.5622 23.3763L20.6667 22.963H16.0741V4.59259H23.2615L19.4267 13.7778H18.3704V16.0741H18.7148C19.0904 17.2118 19.8152 18.202 20.7861 18.9039C21.757 19.6059 22.9245 19.9837 24.1226 19.9837C25.3207 19.9837 26.4882 19.6059 27.4591 18.9039C28.43 18.202 29.1548 17.2118 29.5304 16.0741H29.8519V13.7778H29.0022ZM7.39407 17.2452C6.88766 17.5255 6.3195 17.6754 5.74074 17.6815C5.16883 17.6785 4.60734 17.5282 4.11037 17.2452C3.6036 16.9674 3.17664 16.5642 2.87037 16.0741H8.61111C8.30742 16.5582 7.88951 16.9603 7.39407 17.2452V17.2452ZM7.96815 13.7778H3.37556L5.67185 8.26667L7.96815 13.7778ZM20.1156 25.2593L22.963 28.7037H6.88889L9.7363 25.2593H20.1156ZM24.203 8.31259L26.4993 13.8237H21.9067L24.203 8.31259V8.31259ZM25.7644 17.2911C25.2624 17.5821 24.6914 17.7328 24.1111 17.7274C23.5378 17.7356 22.9734 17.5845 22.4807 17.2911C21.9732 16.9941 21.5472 16.576 21.2407 16.0741H26.9815C26.6968 16.585 26.2754 17.0065 25.7644 17.2911V17.2911Z" />
  </symbol>
  <symbol id="more" viewBox="0 0 40 10">
    <path d="M5 0C5.65661 -1.3837e-08 6.30679 0.129328 6.91342 0.380602C7.52005 0.631875 8.07124 1.00017 8.53553 1.46447C8.99983 1.92876 9.36812 2.47996 9.6194 3.08658C9.87067 3.69321 10 4.34339 10 5C10 5.65661 9.87067 6.30679 9.6194 6.91342C9.36812 7.52004 8.99983 8.07124 8.53553 8.53554C8.07124 8.99983 7.52005 9.36812 6.91342 9.6194C6.30679 9.87067 5.65661 10 5 10C3.67392 10 2.40215 9.47322 1.46447 8.53554C0.526784 7.59785 0 6.32608 0 5C0 3.67392 0.526784 2.40215 1.46447 1.46447C2.40215 0.526785 3.67392 2.79451e-08 5 0V0ZM20 0C20.6566 -1.3837e-08 21.3068 0.129328 21.9134 0.380602C22.52 0.631875 23.0712 1.00017 23.5355 1.46447C23.9998 1.92876 24.3681 2.47996 24.6194 3.08658C24.8707 3.69321 25 4.34339 25 5C25 5.65661 24.8707 6.30679 24.6194 6.91342C24.3681 7.52004 23.9998 8.07124 23.5355 8.53554C23.0712 8.99983 22.52 9.36812 21.9134 9.6194C21.3068 9.87067 20.6566 10 20 10C18.6739 10 17.4021 9.47322 16.4645 8.53554C15.5268 7.59785 15 6.32608 15 5C15 3.67392 15.5268 2.40215 16.4645 1.46447C17.4021 0.526785 18.6739 2.79451e-08 20 0V0ZM35 0C35.6566 -1.3837e-08 36.3068 0.129328 36.9134 0.380602C37.52 0.631875 38.0712 1.00017 38.5355 1.46447C38.9998 1.92876 39.3681 2.47996 39.6194 3.08658C39.8707 3.69321 40 4.34339 40 5C40 5.65661 39.8707 6.30679 39.6194 6.91342C39.3681 7.52004 38.9998 8.07124 38.5355 8.53554C38.0712 8.99983 37.52 9.36812 36.9134 9.6194C36.3068 9.87067 35.6566 10 35 10C33.6739 10 32.4021 9.47322 31.4645 8.53554C30.5268 7.59785 30 6.32608 30 5C30 3.67392 30.5268 2.40215 31.4645 1.46447C32.4021 0.526785 33.6739 2.79451e-08 35 0V0Z" />
  </symbol>
  <symbol id="paint" viewBox="0 0 40 31">
    <path d="M16.4884 0C6.18303 0 0 8.26661 0 12.4003C0 16.534 2.06074 19.6341 6.18303 19.6341C10.3053 19.6341 12.3669 20.6669 12.3669 23.767C12.3669 27.8999 15.458 31 19.5803 31C32.9775 31 39.1597 23.767 39.1597 16.534C39.1589 4.13371 28.852 0 16.4884 0ZM13.912 4.13371C14.2508 4.13414 14.5861 4.20129 14.8989 4.33132C15.2118 4.46135 15.4959 4.65173 15.7351 4.89157C15.9744 5.13141 16.164 5.41602 16.2932 5.72915C16.4225 6.04229 16.4888 6.37781 16.4884 6.71657C16.4884 8.14424 15.3348 9.30024 13.912 9.30024C12.4892 9.30024 11.3357 8.14342 11.3357 6.71657C11.3353 6.37781 11.4016 6.04229 11.5308 5.72915C11.66 5.41602 11.8497 5.13141 12.0889 4.89157C12.3282 4.65173 12.6123 4.46135 12.9251 4.33132C13.2379 4.20129 13.5733 4.13414 13.912 4.13371V4.13371ZM22.155 4.13371C22.4937 4.13414 22.8291 4.20129 23.1419 4.33132C23.4547 4.46135 23.7388 4.65173 23.9781 4.89157C24.2173 5.13141 24.407 5.41602 24.5362 5.72915C24.6654 6.04229 24.7317 6.37781 24.7313 6.71657C24.7318 7.0554 24.6656 7.39101 24.5364 7.70424C24.4072 8.01747 24.2176 8.30218 23.9784 8.5421C23.7391 8.78203 23.4549 8.97247 23.1421 9.10256C22.8292 9.23264 22.4938 9.29982 22.155 9.30024C21.8162 9.29971 21.4809 9.23246 21.1681 9.10232C20.8554 8.97219 20.5713 8.78173 20.3321 8.54182C20.093 8.3019 19.9034 8.01723 19.7743 7.70405C19.6451 7.39087 19.5789 7.05533 19.5795 6.71657C19.5786 6.03256 19.8494 5.37621 20.3324 4.89185C20.8154 4.4075 21.471 4.1348 22.155 4.13371V4.13371ZM30.3996 8.26661C30.7385 8.26693 31.074 8.33403 31.3869 8.46406C31.6999 8.5941 31.9841 8.78453 32.2235 9.02446C32.4628 9.2644 32.6525 9.54915 32.7818 9.86243C32.911 10.1757 32.9772 10.5114 32.9767 10.8503C32.9772 11.1891 32.911 11.5248 32.7817 11.838C32.6525 12.1513 32.4628 12.4359 32.2234 12.6758C31.9841 12.9157 31.6998 13.106 31.3869 13.236C31.0739 13.3659 30.7384 13.4329 30.3996 13.4331C30.0608 13.4328 29.7254 13.3657 29.4126 13.2357C29.0998 13.1057 28.8157 12.9154 28.5765 12.6755C28.3373 12.4356 28.1478 12.1509 28.0186 11.8378C27.8895 11.5246 27.8234 11.189 27.824 10.8503C27.8234 10.5115 27.8895 10.1759 28.0186 9.86268C28.1477 9.54946 28.3373 9.26474 28.5765 9.0248C28.8156 8.78486 29.0998 8.59441 29.4126 8.46431C29.7254 8.33422 30.0608 8.26704 30.3996 8.26661V8.26661ZM6.69862 10.3339C7.0373 10.3342 7.3726 10.4013 7.68536 10.5312C7.99811 10.6612 8.2822 10.8515 8.52138 11.0913C8.76056 11.331 8.95015 11.6156 9.07931 11.9287C9.20847 12.2418 9.27467 12.5772 9.27414 12.9159C9.27414 14.3436 8.12058 15.4996 6.69862 15.4996C5.27667 15.4996 4.12229 14.3428 4.12229 12.9159C4.12164 12.2319 4.39269 11.5756 4.87582 11.0914C5.35895 10.6072 6.01461 10.3347 6.69862 10.3339V10.3339ZM19.5795 20.6669C21.287 20.6669 22.6706 22.0538 22.6706 23.7678C22.6706 25.4794 21.287 26.8671 19.5795 26.8671C17.872 26.8671 16.4884 25.4794 16.4884 23.7678C16.4876 23.3612 16.567 22.9585 16.7219 22.5825C16.8769 22.2066 17.1044 21.8649 17.3915 21.577C17.6785 21.289 18.0195 21.0604 18.3949 20.9043C18.7703 20.7481 19.1729 20.6675 19.5795 20.6669V20.6669Z"/>
  </symbol>
  <symbol id="nature" viewBox="0 0 31 31">
    <path fill-rule="evenodd" clip-rule="evenodd" d="M29.0237 4.84375C29.0493 4.52147 29.0623 4.1983 29.0625 3.875V1.9375H25.6719C23.1565 1.93802 20.709 2.75401 18.6966 4.26308C16.6841 5.77215 15.2152 7.89298 14.5099 10.3075C13.4242 8.90699 12.0322 7.77371 10.4406 6.99455C8.84905 6.21539 7.10019 5.81104 5.32812 5.8125H1.9375V7.75C1.9375 10.8331 3.16227 13.79 5.34238 15.9701C7.52249 18.1502 10.4794 19.375 13.5625 19.375H14.0469V27.6094C14.0469 27.9948 14.2 28.3644 14.4725 28.6369C14.745 28.9094 15.1146 29.0625 15.5 29.0625C15.8854 29.0625 16.255 28.9094 16.5275 28.6369C16.8 28.3644 16.9531 27.9948 16.9531 27.6094V15.5H17.4375C20.3532 15.5004 23.1627 14.4051 25.3087 12.4313C27.4548 10.4575 28.7808 7.74934 29.0237 4.84375V4.84375ZM17.0054 12.5938C17.2438 10.4621 18.2595 8.49315 19.8583 7.06337C21.4572 5.63359 23.527 4.84334 25.6719 4.84375H26.1039C25.8656 6.97537 24.8499 8.94435 23.251 10.3741C21.6522 11.8039 19.5824 12.5942 17.4375 12.5938H17.0054V12.5938ZM5.32812 8.71875C7.47303 8.71834 9.54282 9.50859 11.1417 10.9384C12.7405 12.3682 13.7562 14.3371 13.9946 16.4688H13.5625C11.4176 16.4692 9.3478 15.6789 7.74895 14.2491C6.15009 12.8193 5.13439 10.8504 4.89606 8.71875H5.32812V8.71875Z" />
  </symbol>
  <symbol id="discovery" viewBox="0 0 31 31">
    <path d="M29.9408 24.8171L24.7041 19.5729L20.6762 17.9064C22.0173 15.9965 22.7359 13.7179 22.7333 11.3829C22.7333 5.10634 17.6342 0 11.3666 0C5.09904 0 0 5.10634 0 11.3829C0 17.6595 5.09904 22.7658 11.3666 22.7658C13.7185 22.7685 16.0127 22.0365 17.9295 20.6718L19.5893 24.6947L24.8258 29.9391C25.1616 30.2754 25.5603 30.5422 25.9991 30.7243C26.4379 30.9063 26.9082 31 27.3832 31C27.8581 31 28.3284 30.9063 28.7672 30.7243C29.206 30.5423 29.6047 30.2756 29.9406 29.9393C30.2765 29.6029 30.5429 29.2037 30.7246 28.7642C30.9064 28.3248 31 27.8538 31 27.3782C31 26.9026 30.9065 26.4316 30.7247 25.9922C30.543 25.5527 30.2766 25.1534 29.9408 24.8171ZM2.06666 11.3829C2.06666 6.24767 6.23874 2.06962 11.3666 2.06962C16.4945 2.06962 20.6666 6.24767 20.6666 11.3829C20.6666 16.5182 16.4945 20.6962 11.3666 20.6962C6.23874 20.6962 2.06666 16.5182 2.06666 11.3829ZM28.4793 28.4757C28.1884 28.7663 27.7942 28.9296 27.3833 28.9296C26.9723 28.9296 26.5781 28.7663 26.2872 28.4757L21.342 23.5233L19.7988 19.7828L23.5341 21.3282L28.4794 26.2805C28.7697 26.5719 28.9326 26.9666 28.9326 27.3781C28.9326 27.7896 28.7696 28.1844 28.4793 28.4757Z" />
  </symbol>
  <symbol id="club" viewBox="0 0 47 31">
    <path d="M46 0H31C31 0 30 8 32 16C32.804 17.34 34.79 18.062 37 18.245V28H36.667L33 31H44L40.416 28H40V18.172C42.12 17.897 44.063 17.158 45 16C47 9 46 0 46 0ZM45 6H32V1H45V6ZM20.5 28H15V19.5L26 3H0L11 19.5V28H5.5C5.10218 28 4.72064 28.158 4.43934 28.4393C4.15804 28.7206 4 29.1022 4 29.5C4 29.8978 4.15804 30.2794 4.43934 30.5607C4.72064 30.842 5.10218 31 5.5 31H20.5C20.8978 31 21.2794 30.842 21.5607 30.5607C21.842 30.2794 22 29.8978 22 29.5C22 29.1022 21.842 28.7206 21.5607 28.4393C21.2794 28.158 20.8978 28 20.5 28Z" />
  </symbol>
  <symbol id="write" viewBox="0 0 31 31">
    <path d="M29.0586 0.76536L29.8997 1.6064C31.0586 2.76675 30.8832 4.82373 29.5048 6.20075L12.1609 23.5447L6.54157 25.6002C5.83596 25.8597 5.14887 25.5233 5.00917 24.8519C4.96196 24.6083 4.98419 24.3564 5.07332 24.1249L7.16879 18.4571L24.4643 1.16022C25.8427 -0.216803 27.8997 -0.393563 29.0586 0.766785V0.76536ZM11.4039 2.4902C11.5911 2.4902 11.7765 2.52707 11.9494 2.59871C12.1224 2.67035 12.2795 2.77535 12.4119 2.90772C12.5443 3.04009 12.6493 3.19723 12.7209 3.37018C12.7925 3.54313 12.8294 3.72849 12.8294 3.91569C12.8294 4.10289 12.7925 4.28826 12.7209 4.4612C12.6493 4.63415 12.5443 4.7913 12.4119 4.92367C12.2795 5.05604 12.1224 5.16104 11.9494 5.23267C11.7765 5.30431 11.5911 5.34118 11.4039 5.34118H5.70196C4.94583 5.34118 4.22067 5.64155 3.68601 6.17622C3.15135 6.71088 2.85098 7.43604 2.85098 8.19216V25.298C2.85098 26.0542 3.15135 26.7793 3.68601 27.314C4.22067 27.8487 4.94583 28.149 5.70196 28.149H22.8078C23.564 28.149 24.2891 27.8487 24.8238 27.314C25.3585 26.7793 25.6588 26.0542 25.6588 25.298V19.5961C25.6588 19.218 25.809 18.8554 26.0763 18.5881C26.3437 18.3208 26.7062 18.1706 27.0843 18.1706C27.4624 18.1706 27.825 18.3208 28.0923 18.5881C28.3596 18.8554 28.5098 19.218 28.5098 19.5961V25.298C28.5098 26.8103 27.9091 28.2606 26.8397 29.3299C25.7704 30.3993 24.3201 31 22.8078 31H5.70196C4.18971 31 2.73939 30.3993 1.67007 29.3299C0.600741 28.2606 0 26.8103 0 25.298V8.19216C0 6.67991 0.600741 5.22959 1.67007 4.16027C2.73939 3.09094 4.18971 2.4902 5.70196 2.4902H11.4039V2.4902Z" />
  </symbol>
  <symbol id="play" viewBox="0 0 228 228">
    <path d="M114 0C51.0455 0 0 51.0455 0 114C0 176.954 51.0455 228 114 228C176.954 228 228 176.954 228 114C228 51.0455 176.954 0 114 0ZM150.668 115.756L95.0933 156.19C94.7886 156.409 94.4295 156.54 94.0554 156.568C93.6812 156.596 93.3066 156.521 92.9726 156.35C92.6386 156.179 92.3582 155.919 92.1622 155.599C91.9662 155.279 91.8622 154.911 91.8616 154.536V73.7183C91.8604 73.3424 91.9633 72.9734 92.1589 72.6524C92.3545 72.3314 92.6352 72.0708 92.9698 71.8995C93.3045 71.7282 93.68 71.6529 94.0548 71.682C94.4297 71.7111 94.7891 71.8434 95.0933 72.0643L150.668 112.473C150.931 112.659 151.145 112.905 151.293 113.19C151.441 113.476 151.518 113.793 151.518 114.115C151.518 114.436 151.441 114.753 151.293 115.039C151.145 115.324 150.931 115.57 150.668 115.756V115.756Z" />
  </symbol>
  <symbol id="hide" viewBox="0 0 72 65">
    <path d="M21.7465 33.1495L7.92082 20.2225C2.47794 25.7703 0.415378 31.3282 0.379569 31.442L0 32.5L0.375989 33.558C0.454767 33.7823 8.66922 55.9367 36.0018 55.9367C39.3284 55.9367 42.3578 55.5952 45.1401 55.0227L35.3071 45.8288C31.7667 45.6665 28.4174 44.2786 25.9109 41.935C23.4044 39.5914 21.92 36.4599 21.7465 33.1495V33.1495ZM36.0018 9.0633C29.3593 9.0633 23.9164 10.4159 19.3795 12.4047L6.1125 0L1.04919 4.73421L65.5043 65L70.5677 60.2658L58.758 49.2238C68.2043 42.6849 71.5739 33.6986 71.624 33.558L72 32.5L71.624 31.442C71.5452 31.2177 63.3344 9.0633 36.0018 9.0633ZM42.8269 34.3281C43.4965 32.0614 42.9271 29.5101 41.0651 27.7658C39.2031 26.0214 36.4709 25.4924 34.0467 26.1185L28.6467 21.0696C30.8596 19.7973 33.4041 19.1185 36.0018 19.1076C43.9011 19.1076 50.3252 25.1141 50.3252 32.5C50.3145 34.9284 49.5872 37.307 48.2232 39.3736L42.8269 34.3281V34.3281Z"/>
  </symbol>
  <symbol id="show" viewBox="0 0 21 14">
  <path fill-rule="evenodd" clip-rule="evenodd" d="M0.105957 6.68408C0.126953 6.61694 2.4209 0 10.0542 0C17.687 0 19.981 6.61694 20.0029 6.68408L20.1079 7L20.002 7.31592C19.981 7.38306 17.687 14 10.0542 14C2.4209 14 0.126953 7.38306 0.10498 7.31592L0 7L0.105957 6.68408ZM6.0542 7C6.0542 9.20605 7.84814 11 10.0542 11C12.2598 11 14.0542 9.20605 14.0542 7C14.0542 4.79395 12.2598 3 10.0542 3C7.84814 3 6.0542 4.79395 6.0542 7ZM8.0542 7C8.0542 5.91602 8.97021 5 10.0542 5C11.1382 5 12.0542 5.91602 12.0542 7C12.0542 8.08398 11.1382 9 10.0542 9C8.97021 9 8.0542 8.08398 8.0542 7Z" />
  </symbol>
  <symbol id="reset" viewBox="0 0 228 228">
    <path fill-rule="evenodd" clip-rule="evenodd" d="M114 0C51.072 0 0 51.072 0 114C0 176.928 51.072 228 114 228C176.928 228 228 176.928 228 114C228 51.072 176.928 0 114 0ZM182.4 114C182.4 151.734 151.734 182.4 114 182.4C76.266 182.4 45.6 151.734 45.6 114H68.4C68.4 139.194 88.806 159.6 114 159.6C139.194 159.6 159.6 139.194 159.6 114C159.6 88.806 139.194 68.4 114 68.4V102.6L68.4 57L114 11.4V45.6C151.734 45.6 182.4 76.266 182.4 114Z" />
  </symbol>
  <symbol id="pause" viewBox="0 0 228 228">
    <path d="M114 0C51.0455 0 0 51.0455 0 114C0 176.954 51.0455 228 114 228C176.954 228 228 176.954 228 114C228 51.0455 176.954 0 114 0ZM93.6429 152.679C93.6429 153.798 92.7268 154.714 91.6071 154.714H79.3929C78.2732 154.714 77.3571 153.798 77.3571 152.679V75.3214C77.3571 74.2018 78.2732 73.2857 79.3929 73.2857H91.6071C92.7268 73.2857 93.6429 74.2018 93.6429 75.3214V152.679ZM150.643 152.679C150.643 153.798 149.727 154.714 148.607 154.714H136.393C135.273 154.714 134.357 153.798 134.357 152.679V75.3214C134.357 74.2018 135.273 73.2857 136.393 73.2857H148.607C149.727 73.2857 150.643 74.2018 150.643 75.3214V152.679Z" />
  </symbol>
  <symbol id="" viewBox="0 0 96 96"></symbol>
  <symbol id="" viewBox="0 0 96 96"></symbol>
  <symbol id="" viewBox="0 0 96 96"></symbol>

</svg>
