<?xml version="1.0" standalone="no"?><!DOCTYPE svg PUBLIC "-//W3C//DTD SVG 1.1//EN" "http://www.w3.org/Graphics/SVG/1.1/DTD/svg11.dtd"><svg t="1668500076317" class="icon" viewBox="0 0 1029 1024" version="1.1" xmlns="http://www.w3.org/2000/svg" p-id="1885" xmlns:xlink="http://www.w3.org/1999/xlink" width="200.9765625" height="200"><path d="M1020.835581 368.09697L864.649723 121.793939C850.944672 100.331313 822.500228 93.99596 800.908309 107.442424L21.401238 600.565657c-21.462626 13.705051-27.79798 42.149495-14.351515 63.612121L163.364874 910.480808c13.705051 21.462626 42.149495 27.79798 63.612122 14.222222l779.50707-493.123232c21.462626-13.575758 27.927273-42.020202 14.351515-63.482828z m-31.159596 37.10707L210.168915 898.327273c-6.852525 4.39596-15.90303 2.327273-20.29899-4.525253L33.684066 647.49899c-4.39596-6.852525-2.327273-15.90303 4.525253-20.29899l779.50707-493.123232c6.852525-4.266667 15.90303-2.327273 20.169697 4.654545l156.185859 246.30303c4.39596 6.593939 2.456566 15.644444-4.39596 20.169697zM317.740632 248.888889l12.929293 31.030303 16.808081-29.090909 33.486868-2.715152-22.626262-24.953535 7.628283-32.711111-30.513132 13.834343-28.832323-17.454545 3.620202 33.486869-25.470707 21.721212 32.969697 6.852525zM516.205278 156.444444l-16.161616-29.60808-13.575757 30.90101-33.09899 6.335353 24.953535 22.367677-4.266667 33.357576 29.220202-16.808081 30.383839 14.480808-6.981818-32.969697 23.014141-24.436364-33.486869-3.620202z m302.545455 495.19192l-26.634344-20.428283-0.129292 33.616161-27.79798 18.876768 32.064646 10.60202 9.438384 32.19394 19.911111-27.151515 33.616162 0.90505-19.781818-27.280808 11.377777-31.547475-32.064646 10.214142zM710.015379 785.454545l-12.670707-31.159596-17.066666 28.961617-33.486869 2.456565 22.367677 25.082829-8.016162 32.581818 30.771717-13.446465 28.703031 17.842424-3.361617-33.486868 25.470708-21.721212-32.711112-7.111112z m-199.240404 91.022223l15.903031 29.737373 13.963636-30.642424 33.09899-5.947475-24.824243-22.755555 4.525253-33.357576-29.349495 16.549495-30.254545-14.610101 6.723232 32.840404-23.272727 24.436364 33.486868 3.749495zM212.366895 378.957576l26.50505 20.816161 0.387879-33.616161 27.927273-18.747475-31.935354-10.731313-9.179798-32.323232-20.169697 26.892929-33.616162-1.163637 19.523233 27.410101-11.636364 31.547475 32.19394-10.084848z m-118.303031 145.066666c-3.490909-142.222222 65.680808-282.892929 194.585859-364.347474S574.257804 75.894949 701.611339 139.765657l30.771717-19.39394c-37.624242-21.074747-78.222222-36.460606-120.888889-46.028283-57.018182-12.8-115.070707-14.480808-172.476767-5.042424-59.474747 9.826263-115.717172 31.288889-167.046465 63.870707-51.329293 32.581818-94.771717 74.084848-129.163636 123.604041-33.228283 47.709091-56.630303 100.977778-69.430303 157.866666-9.567677 42.666667-12.929293 85.850505-9.955556 128.905051l30.642424-19.523233zM931.106288 502.30303c3.620202 142.222222-65.551515 282.892929-194.327272 364.347475-128.905051 81.583838-285.608081 83.911111-412.832323 20.040404l-30.771718 19.523232c37.624242 20.945455 78.222222 36.460606 120.888889 46.028283 57.018182 12.8 115.070707 14.480808 172.476768 5.042424 59.474747-9.826263 115.717172-31.288889 166.917172-63.741414 51.329293-32.581818 94.771717-74.084848 129.163636-123.60404 33.09899-47.838384 56.50101-100.977778 69.30101-157.866667 9.567677-42.666667 12.929293-85.850505 9.955556-128.90505L931.106288 502.30303zM381.482046 306.424242c36.072727-22.755556 75.765657-34.909091 115.717172-37.365656l47.579798-30.125253c-62.836364-7.369697-125.80202 6.723232-180.105051 40.985859-54.173737 34.262626-93.866667 85.20404-114.036363 145.066667l47.579798-30.125253c19.264646-35.038384 47.191919-65.680808 83.264646-88.436364z m262.206061 413.608081c-36.072727 22.884848-75.765657 35.038384-115.587879 37.365657l-47.579798 30.125252c62.836364 7.369697 125.80202-6.723232 180.10505-41.115151 54.173737-34.262626 93.866667-85.20404 114.036364-145.066667l-47.579798 30.125253c-19.264646 35.038384-47.321212 65.680808-83.393939 88.565656z m0 0" p-id="1886" fill="#d81e06"></path><path d="M223.356794 594.876768l-19.523233 12.282828-19.523232 12.282828-19.523232 12.282829-19.523233 12.282828c-1.034343 0.646465-1.939394 1.292929-2.844444 1.810101-0.905051 0.646465-1.680808 1.292929-2.456566 1.810101s-1.551515 1.292929-2.19798 1.810101l-1.939394 1.939394-2.585858-1.680808-2.585859-1.680808-2.585858-1.680808L125.611339 645.171717c0.905051-0.387879 1.939394-0.775758 2.844444-1.163636s1.939394-0.905051 2.973738-1.422222 2.068687-1.163636 3.232323-1.680808c1.034343-0.646465 2.19798-1.292929 3.361616-2.068687l37.49495-23.660606 37.494949-23.660606 37.49495-23.660607 37.494949-23.660606 0.517172-6.335353 0.517172-6.335354 0.517171-6.335353 0.517172-6.335354c0-0.646465 0.129293-1.292929 0.258586-1.810101 0.129293-0.517172 0.258586-1.034343 0.387879-1.422222s0.258586-0.775758 0.517171-1.034343c0.129293-0.258586 0.387879-0.517172 0.646465-0.646465 0.258586-0.129293 0.517172-0.258586 1.034343-0.387879s1.163636-0.129293 1.810102-0.258586 1.680808-0.129293 2.715151-0.129293h7.369697c1.292929 0 2.456566 0.129293 3.749495 0.129293s2.456566 0.129293 3.620202 0.258586c1.163636 0.129293 2.456566 0.258586 3.620202 0.387879 1.163636 0.129293 2.327273 0.258586 3.490909 0.517172s2.19798 0.387879 3.232323 0.517171 2.068687 0.387879 2.973738 0.646465c1.034343 0.258586 1.939394 0.517172 2.844444 0.775758 0.905051 0.258586 1.680808 0.517172 2.456566 0.775757 0.775758 0.258586 1.422222 0.517172 1.939394 0.775758s1.034343 0.517172 1.422222 0.775757c0.387879 0.258586 0.646465 0.517172 0.775758 0.905051 0.387879 0.646465 0.646465 1.163636 0.775757 1.810101 0.129293 0.646465 0 1.163636-0.129293 1.680808s-0.517172 1.034343-1.034343 1.680808c-0.517172 0.517172-1.163636 1.034343-1.939394 1.551515l-20.29899 12.8-20.29899 12.8-20.29899 12.8-20.29899 12.8c0.258586 3.490909 0.387879 6.981818 0.517172 10.214142 0.129293 3.232323 0.258586 6.335354 0.258586 9.30909s0.129293 5.818182 0.129293 8.404041c0 2.715152 0 5.171717-0.129293 7.628283h3.620202c1.163636 0 2.327273-0.129293 3.490909-0.258586s2.19798-0.258586 3.232323-0.387879c1.034343-0.129293 2.068687-0.258586 2.973737-0.517172 0.905051-0.129293 1.810101-0.258586 2.585859-0.387878s1.422222 0 2.068687 0.129292 1.163636 0.387879 1.680808 0.646465 0.775758 0.646465 1.163636 1.163636c0.258586 0.517172 0.387879 1.034343 0.517172 1.680809s-0.129293 1.422222-0.387879 2.197979-0.646465 1.680808-1.292929 2.715152-1.292929 2.068687-2.19798 3.232323l14.480808 22.884849 14.480808 22.884848 14.480808 22.884849 14.480809 22.884848c1.034343 1.680808 2.068687 3.232323 2.973737 4.783838s1.810101 2.715152 2.585859 4.008081 1.551515 2.327273 2.197979 3.232323 1.163636 1.810101 1.680808 2.456566l1.29293 1.939394 1.292929 1.939394 1.292929 1.939394 1.29293 1.939394c0.387879 0.646465 0.646465 1.422222 0.646464 2.19798 0 0.775758 0 1.810101-0.387879 2.844444s-0.775758 2.19798-1.422222 3.361616c-0.646465 1.163636-1.422222 2.456566-2.456565 3.878788-1.034343 1.422222-1.939394 2.715152-2.844445 3.749495-0.905051 1.163636-1.680808 2.068687-2.456566 2.973738s-1.422222 1.551515-2.068686 2.197979-1.163636 1.034343-1.680809 1.422223c-0.258586 0.258586-0.646465 0.258586-0.90505 0.387878s-0.646465 0-0.905051-0.129293-0.646465-0.258586-0.90505-0.646464-0.517172-0.646465-0.775758-1.034344l-1.810101-3.10303-1.810101-3.10303-1.810101-3.103031-1.810101-3.10303-2.327272-3.878788c-0.775758-1.292929-1.680808-2.715152-2.456566-4.137374s-1.810101-2.844444-2.715152-4.266666c-0.905051-1.422222-1.810101-2.973737-2.844444-4.525253l-14.222222-22.496969-14.222222-22.49697-14.222223-22.49697-14.222222-22.49697c-0.775758 11.636364-2.327273 23.143434-4.654545 34.521213s-5.171717 22.755556-8.921212 34.133333-8.016162 22.49697-13.187879 33.616162c-5.171717 11.119192-10.989899 22.238384-17.454546 33.098989l-1.163636-0.517171-1.163636-0.517172-1.163637-0.517172-1.163636-0.517171c2.973737-7.49899 5.688889-14.99798 8.145454-22.49697s4.654545-15.256566 6.59394-23.014142 3.749495-15.515152 5.171717-23.40202 2.715152-15.90303 3.620202-23.919192c1.034343-8.016162 1.680808-15.773737 2.068687-23.272727 0.387879-7.49899 0.517172-14.739394 0.387879-21.850505s-0.646465-13.834343-1.29293-20.29899c-1.810101-6.981818-2.715152-13.187879-4.00808-19.264646z m62.70707 23.789899c6.852525-1.292929 13.317172-2.456566 19.39394-3.620202 6.076768-1.034343 11.636364-1.939394 16.678788-2.715152s9.826263-1.422222 14.092929-1.939394c4.266667-0.517172 8.145455-0.905051 11.507071-1.163636 3.361616-0.258586 6.593939-0.387879 9.438383-0.517172s5.559596 0 7.886869 0.129293 4.525253 0.387879 6.335354 0.775758 3.490909 0.775758 4.913131 1.292929c1.422222 0.517172 2.715152 1.163636 3.878788 1.939394 1.292929 0.775758 2.456566 1.680808 3.620202 2.715151s2.19798 2.068687 3.232323 3.361617 2.068687 2.585859 2.973737 4.00808c0.905051 1.422222 1.680808 2.844444 2.456566 4.39596 0.646465 1.422222 1.292929 2.844444 1.810101 4.266667s0.905051 2.715152 1.163636 4.137373c0.258586 1.292929 0.387879 2.715152 0.517172 4.008081 0 1.292929 0 2.456566-0.129293 3.620202-0.129293 1.034343-0.387879 2.068687-0.646464 2.973738s-0.646465 1.551515-1.163637 2.197979-1.034343 1.163636-1.680808 1.551515c-0.646465 0.387879-1.292929 0.775758-1.939394 1.034344-0.646465 0.258586-1.292929 0.517172-1.810101 0.646465s-1.163636 0.258586-1.810101 0.258585c-0.517172 0-1.163636 0-1.680808-0.129293s-1.163636-0.387879-1.939394-0.646464-1.680808-0.775758-2.715151-1.292929-2.19798-1.163636-3.361617-1.810101-2.585859-1.422222-4.137373-2.327273c-5.947475-3.620202-12.153535-6.723232-18.747475-9.438384s-13.446465-4.913131-20.686869-6.723232-14.868687-3.10303-22.755555-4.008081-16.161616-1.292929-24.824243-1.292929V620.088889l0.129293-1.422222zM465.52245 427.959596c-0.905051 12.670707-2.973737 25.470707-5.947475 38.270707-2.973737 12.8-6.981818 25.6-12.024242 38.529293s-11.119192 25.858586-18.230303 38.917172c-7.111111 13.058586-15.127273 26.117172-24.307071 39.175757l-1.163636-0.775757-1.163637-0.775758-1.163636-0.775757-1.163636-0.775758c3.490909-6.206061 6.723232-12.670707 9.826262-19.264647 3.10303-6.593939 5.818182-13.187879 8.404041-20.040404s4.913131-13.834343 7.111111-20.945454c2.19798-7.111111 4.008081-14.351515 5.688889-21.850505 1.680808-7.369697 3.10303-14.739394 4.266666-21.850505 1.163636-7.240404 1.939394-14.222222 2.456566-21.204041s0.775758-13.834343 0.775758-20.557575c0-6.723232-0.387879-13.317172-0.905051-19.781819 3.232323-0.905051 6.206061-1.551515 9.050505-2.327272 2.844444-0.646465 5.30101-1.292929 7.757576-1.810101s4.39596-1.034343 6.335354-1.29293c1.939394-0.387879 3.490909-0.646465 4.913131-0.90505s2.715152-0.387879 3.878788-0.387879c1.163636-0.129293 2.068687-0.129293 2.844444 0s1.422222 0.129293 1.939394 0.387879c0.517172 0.129293 0.905051 0.387879 1.034344 0.775757 0.258586 0.387879 0.258586 0.646465 0.258585 1.034344 0 0.387879-0.129293 0.775758-0.387878 1.292929s-0.646465 0.905051-1.034344 1.422222c-0.517172 0.517172-1.034343 1.034343-1.810101 1.680809-0.646465 0.646465-1.292929 1.163636-1.939394 1.680808l-1.551515 1.551515c-0.517172 0.517172-0.775758 1.034343-1.163636 1.422222-0.258586 0.517172-0.517172 0.905051-0.775758 1.292929 5.818182 1.939394 11.636364 3.749495 17.713131 5.171717s12.024242 2.585859 18.230303 3.49091 12.412121 1.551515 18.618182 1.939393c6.335354 0.387879 12.670707 0.517172 19.135354 0.258586 6.464646-0.129293 12.8-0.646465 19.00606-1.422222 6.206061-0.775758 12.282828-1.810101 18.101011-3.10303s11.636364-2.844444 17.325252-4.783839c5.688889-1.810101 11.119192-4.008081 16.549495-6.464646l0.646465 1.034343 0.646464 1.034344 0.646465 1.034343 0.646465 1.034344c-1.939394 1.422222-3.749495 2.715152-5.430303 4.008081-1.680808 1.292929-3.10303 2.456566-4.39596 3.620202s-2.456566 2.19798-3.361616 3.232323c-0.905051 1.034343-1.810101 1.939394-2.327273 2.844444-0.646465 0.905051-1.163636 1.810101-1.680808 2.844445-0.517172 1.034343-0.905051 2.19798-1.163636 3.361616s-0.646465 2.456566-0.775758 3.749495c-0.129293 1.292929-0.258586 2.715152-0.387879 4.266666v0.775758c0 0.258586-0.129293 0.517172-0.258586 0.775758s-0.258586 0.387879-0.387878 0.646464-0.387879 0.387879-0.646465 0.517172c-0.646465 0.387879-1.551515 0.646465-2.973737 1.034343s-3.232323 0.517172-5.559596 0.646465-4.913131 0.387879-8.016162 0.387879c-3.10303 0.129293-6.593939 0.129293-10.60202 0.129293-3.878788 0-7.886869-0.129293-12.024243-0.387879-4.137374-0.258586-8.274747-0.646465-12.541414-1.163636s-8.533333-1.163636-12.929293-1.939394-8.791919-1.680808-13.446464-2.715152c-4.525253-1.034343-9.050505-2.19798-13.317172-3.490909-4.39596-1.292929-8.662626-2.715152-12.8-4.137374s-8.274747-3.10303-12.282828-4.913131-7.886869-3.490909-11.765657-5.430303z m54.561616 48.355556l0.258586-4.008081 0.258586-4.008081 0.258586-4.008081 0.258586-4.008081c0-0.775758 0.129293-1.422222 0.258586-1.939394 0.129293-0.646465 0.258586-1.163636 0.387878-1.551515s0.387879-0.905051 0.646465-1.163636l0.775758-0.775758c0.258586-0.129293 0.905051-0.258586 1.810101-0.387879 0.905051 0 2.068687 0 3.490909 0.129293s3.232323 0.258586 5.30101 0.517172c2.068687 0.258586 4.39596 0.646465 6.981818 1.034344 2.585859 0.387879 4.913131 0.775758 6.981818 1.163636 2.068687 0.387879 3.749495 0.775758 5.042424 1.034343s2.456566 0.646465 3.232324 0.905051c0.775758 0.258586 1.292929 0.517172 1.422222 0.775757 0.129293 0.258586 0.258586 0.517172 0.129293 0.905051-0.129293 0.258586-0.258586 0.646465-0.517172 1.034343s-0.646465 0.775758-1.163636 1.163637c-0.517172 0.387879-1.163636 0.905051-1.939394 1.292929l-23.40202 14.739394-23.402021 14.739394-23.40202 15.127273-23.40202 14.739394c-1.034343 0.646465-2.068687 1.292929-2.973737 1.939394-0.905051 0.646465-1.680808 1.292929-2.456566 1.939393s-1.422222 1.292929-2.068687 1.810101c-0.646465 0.646465-1.163636 1.163636-1.551515 1.810101l-2.585859-1.680808-2.585858-1.680808-2.585859-1.680808-2.585858-1.680808c0.905051-0.387879 1.939394-0.775758 2.844444-1.163636 1.034343-0.387879 1.939394-0.905051 2.973737-1.422222s2.068687-1.163636 3.232324-1.680809c1.034343-0.646465 2.19798-1.292929 3.361616-2.068686l16.549495-10.472728 16.549495-10.472727 16.549495-10.472727 17.066666-10.472727z m79.515152 87.531313l-19.652525 12.412121-19.652526 12.412121-19.652525 12.412121-19.652525 12.412121 1.810101 2.844445 1.810101 2.844444 1.810101 2.844445 1.810101 2.844444c0.258586 0.387879 0.387879 0.646465 0.517172 0.905051 0.129293 0.258586 0.258586 0.646465 0.258585 0.90505s0.129293 0.646465 0.129293 0.905051c0 0.258586 0 0.517172-0.129293 0.90505-0.129293 0.258586-0.258586 0.646465-0.517171 1.163637s-0.775758 1.163636-1.29293 1.939394-1.163636 1.680808-2.068686 2.715151c-0.775758 1.034343-1.680808 2.19798-2.715152 3.490909-1.034343 1.292929-1.939394 2.456566-2.844444 3.361616-0.775758 1.034343-1.551515 1.810101-2.19798 2.585859s-1.163636 1.292929-1.551515 1.680808c-0.387879 0.387879-0.775758 0.775758-1.034344 0.905051-0.258586 0.129293-0.517172 0.258586-0.646464 0.258585h-0.646465c-0.258586 0-0.387879-0.258586-0.646465-0.387878-0.258586-0.129293-0.387879-0.387879-0.517171-0.646465l-2.19798-3.878788-2.19798-3.878788-2.19798-3.878788-2.19798-3.878788-9.826262-15.385858-9.826263-15.385859-9.826263-15.385858-9.826262-15.385859c-0.905051-1.551515-1.939394-2.973737-2.973738-4.525252s-2.068687-2.973737-3.10303-4.525253-2.068687-2.973737-3.10303-4.525252-2.19798-2.973737-3.232323-4.39596c3.10303-0.646465 6.076768-1.163636 8.921212-1.680808 2.715152-0.517172 5.30101-0.905051 7.628283-1.292929s4.525253-0.646465 6.464646-0.775758c1.939394-0.258586 3.749495-0.387879 5.30101-0.387879l18.618182-11.765656 18.618182-11.765657 18.618182-11.765657 18.618181-11.765656-0.387878-2.715152-0.387879-2.715151-0.387879-2.715152-0.387879-2.715151c0-0.517172-0.129293-1.034343-0.129293-1.422222s0-0.775758 0.129293-1.163637 0.129293-0.646465 0.387879-0.90505c0.129293-0.258586 0.387879-0.387879 0.517172-0.517172 0.258586-0.129293 0.646465-0.258586 1.292929-0.387879s1.422222-0.387879 2.456566-0.517171 2.19798-0.387879 3.620202-0.646465c1.422222-0.258586 2.973737-0.387879 4.783838-0.646465 1.810101-0.258586 3.490909-0.517172 5.042424-0.646464 1.551515-0.129293 2.973737-0.387879 4.266667-0.517172s2.456566-0.258586 3.490909-0.387879 1.939394-0.129293 2.844445-0.129293h2.197979c0.646465 0 1.163636 0.129293 1.680808 0.258586s0.905051 0.258586 1.163637 0.387879c0.258586 0.129293 0.517172 0.387879 0.775757 0.646464 0.129293 0.258586 0.258586 0.646465 0.129293 1.163637s-0.258586 1.292929-0.646464 2.19798-0.775758 1.939394-1.29293 3.10303c-0.517172 1.163636-1.292929 2.456566-2.068687 4.008081l8.921213 14.092929 8.921212 14.092929 8.921212 14.09293 9.050505 13.575757c0.517172 0.775758 0.905051 1.551515 1.422222 2.19798 0.517172 0.646465 0.905051 1.422222 1.292929 2.068687s0.905051 1.292929 1.29293 1.810101c0.387879 0.517172 0.775758 1.163636 1.163636 1.680808l1.034343 1.292929 1.034344 1.29293 1.034343 1.292929 1.034344 1.292929 0.387879 0.775758c0 0.258586 0.129293 0.646465 0 1.034343s-0.129293 0.775758-0.258586 1.163637c-0.129293 0.387879-0.258586 0.775758-0.517172 1.292929-0.258586 0.387879-0.517172 1.034343-0.90505 1.551515-0.387879 0.646465-0.905051 1.292929-1.551516 2.068687s-1.292929 1.551515-2.068687 2.585858-1.551515 1.939394-2.585858 2.973738c-0.905051 1.034343-1.810101 2.068687-2.585859 2.973737-0.775758 0.905051-1.551515 1.680808-2.197979 2.327273s-1.292929 1.163636-1.810101 1.680808-1.034343 0.775758-1.422223 1.034343c-0.258586 0.129293-0.517172 0.258586-0.646464 0.258586s-0.517172 0-0.646465-0.129293-0.517172-0.258586-0.646465-0.517171c-0.258586-0.258586-0.517172-0.517172-0.646464-0.905051l-2.715152-4.266667-2.715151-4.266666-2.715152-4.266667-2.973737-4.654545z m-83.39394 41.890909l19.652526-12.412121 19.652525-12.412122 19.652525-12.412121 19.652525-12.412121-8.145454-12.8-8.145455-12.8-8.145454-12.8-8.145455-12.8-19.652525 12.412121-19.652525 12.412121-19.652526 12.412122-19.652525 12.412121 8.145455 12.8 8.145454 12.8 8.145455 12.8 8.145454 12.8zM661.91841 345.6l1.292929-0.905051 1.292929-0.90505 1.29293-0.905051 1.292929-0.90505 0.258586-2.973737 0.258586-2.973738 0.258585-2.973737 0.258586-2.973738c0-0.775758 0.129293-1.551515 0.258586-2.197979s0.258586-1.163636 0.517172-1.680808 0.387879-0.905051 0.646465-1.29293 0.517172-0.646465 0.90505-0.90505c0.387879-0.258586 0.905051-0.387879 1.680808-0.387879 0.775758-0.129293 1.810101-0.129293 3.10303 0s2.715152 0.258586 4.39596 0.387879c1.680808 0.258586 3.620202 0.517172 5.818182 0.775757 2.19798 0.387879 4.137374 0.646465 5.818182 1.034344 1.680808 0.387879 3.10303 0.646465 4.266666 1.034343s2.19798 0.646465 2.844445 1.034344c0.646465 0.387879 1.163636 0.646465 1.422222 1.034343 0.258586 0.387879 0.258586 0.646465 0.258586 1.034344s-0.258586 0.775758-0.517172 1.292929-0.775758 0.905051-1.292929 1.422222c-0.517172 0.517172-1.292929 1.034343-2.068687 1.551515l-7.369697 4.654546-7.369697 4.654545-7.369697 4.654546-7.369697 4.654545 2.844445 4.525253 2.844444 4.525252 2.844444 4.525253 2.844445 4.525252c2.844444-0.775758 5.559596-1.422222 8.145454-2.068687 2.585859-0.517172 5.042424-1.034343 7.369697-1.292929s4.525253-0.517172 6.723233-0.646465c2.068687-0.129293 4.137374-0.129293 5.947474 0 1.810101 0.129293 3.620202 0.387879 5.171718 0.775758 1.551515 0.387879 3.10303 1.034343 4.395959 1.810101s2.585859 1.680808 3.749495 2.715151c1.163636 1.034343 2.068687 2.327273 2.973738 3.620202 0.387879 0.646465 0.775758 1.422222 1.034343 2.068687 0.258586 0.775758 0.387879 1.551515 0.517172 2.456566s0 1.810101 0 2.844444-0.258586 2.068687-0.517172 3.232324c-0.258586 1.163636-0.517172 2.19798-0.905051 3.10303-0.387879 0.905051-0.775758 1.810101-1.163636 2.456566s-0.905051 1.422222-1.292929 1.939394c-0.517172 0.517172-1.034343 1.034343-1.551515 1.292929-0.517172 0.387879-1.034343 0.646465-1.551515 0.90505-0.517172 0.258586-0.905051 0.517172-1.422223 0.646465s-0.775758 0.258586-1.163636 0.387879c-0.387879 0.129293-0.646465 0.129293-1.034344 0.129293-0.258586 0-0.646465-0.129293-1.034343-0.258586-0.387879-0.129293-0.775758-0.387879-1.292929-0.775758s-1.034343-0.775758-1.551515-1.292929l-1.810101-1.810101c-2.19798-2.327273-4.39596-4.39596-6.59394-6.206061-2.19798-1.810101-4.39596-3.490909-6.464646-4.783838s-4.266667-2.456566-6.335354-3.361616c-2.068687-0.905051-4.137374-1.422222-6.20606-1.810101l16.549495 26.117172 16.549494 26.117171 16.549495 26.117172 16.549495 26.117172c0.258586 0.387879 0.387879 0.646465 0.646465 1.034343s0.258586 0.646465 0.387879 0.905051 0.129293 0.517172 0.129293 0.646464v0.517172c0 0.129293-0.129293 0.387879-0.258586 0.646465s-0.258586 0.646465-0.517172 1.034343-0.387879 0.905051-0.775757 1.422222c-0.258586 0.517172-0.646465 1.163636-0.905051 1.810101-0.387879 0.646465-0.775758 1.422222-1.163636 2.068687-0.387879 0.775758-0.905051 1.422222-1.422222 2.19798s-1.034343 1.551515-1.680809 2.456566-1.163636 1.680808-1.810101 2.585858c-0.646465 0.905051-1.292929 1.680808-1.810101 2.327273-0.517172 0.646465-1.034343 1.292929-1.422222 1.680808s-0.775758 0.905051-1.034343 1.163636c-0.258586 0.258586-0.517172 0.517172-0.646465 0.517172-0.129293 0.129293-0.258586 0.129293-0.387879 0.129293-0.129293 0-0.258586-0.129293-0.517171-0.258586s-0.387879-0.258586-0.517172-0.517172c-0.129293-0.258586-0.387879-0.517172-0.646465-0.775757l-1.292929-2.327273-1.292929-2.327273-1.29293-2.327272-1.292929-2.327273c-1.034343-1.810101-2.068687-3.620202-3.232323-5.430303-1.034343-1.810101-2.068687-3.490909-3.10303-5.30101s-2.068687-3.361616-3.103031-5.042424c-1.034343-1.680808-2.068687-3.232323-3.10303-4.913132l-10.989899-17.454545-10.989899-17.454546-10.989899-17.454545-10.989899-17.454546c0.387879 2.973737 0.775758 5.818182 1.163636 8.79192 0.258586 2.844444 0.517172 5.688889 0.646465 8.533333s0.258586 5.559596 0.258586 8.274747-0.129293 5.430303-0.258586 8.016162-0.387879 5.430303-0.775758 8.40404-0.775758 6.206061-1.292929 9.69697-1.163636 6.981818-1.939394 10.860606c-0.775758 3.749495-1.551515 7.757576-2.585858 12.024243l-1.163637-0.129293-1.163636-0.129293-1.163637-0.129293-1.163636-0.129293c0.129293-8.40404-0.129293-17.066667-0.775757-25.987879-0.646465-8.791919-1.810101-17.842424-3.361617-27.022222s-3.620202-18.488889-5.947474-28.056566c-2.456566-9.567677-5.30101-19.264646-8.662627-29.220202l-4.783838 3.103031-4.783838 3.10303-4.783839 3.10303-4.783838 3.10303c-1.034343 0.646465-1.939394 1.292929-2.844445 1.939394-0.905051 0.646465-1.680808 1.292929-2.585858 1.939394s-1.551515 1.292929-2.19798 1.810101c-0.646465 0.646465-1.292929 1.163636-1.810101 1.810101l-2.585859-1.810101-2.585858-1.810101-2.585859-1.810101-2.585858-1.810101c0.905051-0.387879 1.939394-0.775758 2.844444-1.163636 1.034343-0.387879 1.939394-0.905051 2.973737-1.422222s2.068687-1.163636 3.232324-1.680808c1.034343-0.646465 2.19798-1.292929 3.361616-2.068687l6.335353-4.008081 6.335354-4.008081 6.335353-4.008081 6.335354-4.00808-4.266667-6.723233-4.266666-6.723232-4.266667-6.723232-4.266667-6.723233c-1.551515-2.327273-2.973737-4.654545-4.395959-6.852525-1.422222-2.19798-2.844444-4.266667-4.137374-6.335354s-2.715152-4.008081-4.008081-5.818181-2.585859-3.620202-3.749495-5.30101c5.430303-2.068687 10.214141-3.749495 14.351515-5.171718 4.137374-1.422222 7.628283-2.456566 10.472728-3.361616s5.042424-1.292929 6.593939-1.551515c1.551515-0.258586 2.456566-0.129293 2.715152 0.258586 0.129293 0.258586 0.129293 0.646465 0 1.292929s-0.387879 1.422222-0.775758 2.456566-0.905051 2.19798-1.680808 3.490909c-0.646465 1.422222-1.551515 2.973737-2.585859 4.654545l5.818182 9.309091 5.818182 9.309091 5.818182 9.309091 5.688889 9.438384z m58.052525-39.822222c-0.129293 4.39596-0.387879 8.921212-0.905051 13.575757-0.387879 4.654545-1.034343 9.309091-1.680808 14.09293s-1.551515 9.69697-2.585858 14.739394c-1.034343 5.042424-2.19798 10.084848-3.361616 15.256565h-5.171718c0.258586-5.171717 0.387879-10.214141 0.387879-14.99798 0-4.783838 0-9.438384-0.129293-13.963636s-0.387879-8.791919-0.646464-12.929293-0.775758-8.145455-1.29293-11.894949c-0.517172-3.749495-1.163636-7.757576-2.068687-11.89495s-1.810101-8.274747-2.973737-12.670707-2.456566-8.921212-3.878788-13.575757c-1.422222-4.654545-3.10303-9.438384-4.783838-14.480809 3.232323-0.905051 6.076768-1.680808 8.791919-2.456565s5.042424-1.292929 7.111111-1.810101 3.878788-0.905051 5.430303-1.163637 2.715152-0.517172 3.749495-0.646464c0.905051-0.129293 1.810101-0.129293 2.585859-0.129293h1.939394c0.517172 0 1.034343 0.129293 1.292929 0.258586 0.387879 0.129293 0.517172 0.258586 0.775758 0.517171 0.129293 0.258586 0.258586 0.517172 0.258585 0.775758 0 0.258586-0.129293 0.646465-0.258585 1.163636s-0.387879 0.905051-0.646465 1.422223-0.646465 1.034343-1.034344 1.680808c-0.387879 0.646465-0.775758 1.422222-1.034343 2.327272s-0.517172 1.939394-0.646465 3.103031-0.258586 2.585859-0.258585 4.00808 0 3.10303 0.129292 4.913132 0.258586 3.361616 0.387879 4.783838c0.129293 1.422222 0.129293 2.715152 0.258586 3.878788s0.129293 2.19798 0.129293 2.973737 0.129293 1.551515 0.129293 2.068687l11.248485-7.111111 11.248485-7.111111 11.248484-7.111111 11.248485-7.111111 0.129293-3.490909 0.129293-3.490909 0.129293-3.490909 0.129293-3.49091c0-0.387879 0-0.775758 0.129293-1.163636 0-0.387879 0.129293-0.646465 0.258586-0.90505l0.387879-0.775758c0.129293-0.258586 0.387879-0.387879 0.517171-0.517172 0.258586-0.129293 0.517172-0.258586 1.034344-0.387878 0.517172-0.129293 1.163636-0.129293 1.939394-0.258586s1.680808-0.129293 2.715151-0.129293h14.351515c1.163636 0 2.19798 0 3.232324 0.129293 1.034343 0 1.939394 0.129293 2.844444 0.129293 0.905051 0 1.680808 0.129293 2.327273 0.129293s1.292929 0.129293 1.810101 0.258585c0.517172 0.129293 1.034343 0.258586 1.422222 0.258586 0.387879 0.129293 0.775758 0.258586 1.034343 0.387879 0.258586 0.129293 0.646465 0.258586 0.905051 0.517172s0.517172 0.387879 0.775758 0.646464 0.387879 0.517172 0.517171 0.646465c0.258586 0.387879 0.387879 0.905051 0.517172 1.292929s0 0.905051-0.129293 1.29293-0.387879 0.905051-0.646465 1.292929-0.775758 0.905051-1.292929 1.292929c-0.517172 0.387879-1.034343 0.905051-1.551515 1.551515s-1.034343 1.163636-1.422222 1.939394-0.905051 1.422222-1.422222 2.327273-0.905051 1.680808-1.29293 2.715152c-0.387879 0.905051-0.775758 1.939394-1.034343 2.973737-0.258586 1.034343-0.646465 2.068687-0.775758 3.10303s-0.387879 2.19798-0.517172 3.361616c-0.129293 1.163636-0.258586 2.327273-0.258585 3.490909-0.258586 4.39596-0.646465 8.662626-1.034344 12.670708-0.387879 4.008081-0.905051 7.886869-1.422222 11.636363s-1.163636 7.240404-1.810101 10.472727c-0.646465 3.361616-1.422222 6.464646-2.19798 9.438384 5.559596-0.129293 11.248485-0.646465 17.066667-1.422222 5.818182-0.775758 11.894949-1.939394 18.10101-3.361616s12.541414-3.232323 19.135353-5.430303 13.187879-4.525253 20.040405-7.369697l0.517171 0.90505 0.517172 0.905051 0.517172 0.90505 0.517171 0.905051c-1.810101 1.422222-3.361616 2.844444-4.783838 4.137374s-2.715152 2.456566-3.749495 3.490909-1.939394 2.068687-2.715151 2.973737-1.292929 1.680808-1.680809 2.327273c-0.387879 0.646465-0.646465 1.422222-0.90505 2.19798-0.258586 0.775758-0.387879 1.680808-0.517172 2.585858s-0.129293 1.810101-0.129293 2.844445c0 1.034343 0.129293 2.068687 0.258586 3.232323 0.129293 0.517172 0.129293 0.905051 0.129293 1.422222 0 0.387879-0.129293 0.905051-0.258586 1.163637s-0.387879 0.775758-0.646464 1.034343c-0.258586 0.258586-0.646465 0.646465-1.034344 0.90505-0.387879 0.258586-1.292929 0.517172-2.585858 0.905051s-2.973737 0.646465-5.171718 1.034343-4.783838 0.775758-7.757575 1.29293-6.464646 0.905051-10.343435 1.422222c-3.878788 0.517172-7.628283 0.905051-11.377777 1.292929-3.620202 0.258586-7.240404 0.517172-10.602021 0.646465s-6.723232 0.129293-9.955555 0-6.206061-0.258586-9.179798-0.646465c-1.422222 3.490909-2.973737 7.111111-4.783839 10.860606-1.810101 3.749495-3.878788 7.628283-6.076767 11.636364s-4.654545 8.145455-7.240404 12.412121c-2.585859 4.266667-5.430303 8.662626-8.533334 13.187879 1.551515-0.387879 3.232323-0.905051 4.783839-1.292929s3.232323-0.775758 4.783838-1.034344 3.232323-0.646465 4.783838-0.90505c1.551515-0.258586 3.232323-0.517172 4.783839-0.775758l11.248485-7.111111 11.248485-7.111111 11.248484-7.111111 11.248485-7.111111v-8.274748c0-0.387879 0-0.905051 0.129293-1.292929l0.387879-1.163636c0.129293-0.387879 0.517172-0.646465 0.775758-1.034344s0.646465-0.646465 1.034343-0.90505c0.387879-0.258586 1.034343-0.517172 1.810101-0.775758s1.810101-0.387879 3.10303-0.646465 2.585859-0.387879 4.266667-0.517171 3.490909-0.258586 5.430303-0.387879c2.068687-0.129293 3.878788-0.129293 5.430303-0.129293s2.973737 0.129293 4.137374 0.258586 2.068687 0.387879 2.844444 0.646464c0.775758 0.258586 1.163636 0.646465 1.422222 1.163637 0.258586 0.387879 0.387879 0.905051 0.387879 1.551515s-0.129293 1.292929-0.517171 2.068687-0.775758 1.551515-1.422223 2.456565c-0.646465 0.905051-1.422222 1.939394-2.327272 2.973738l5.947474 9.438384 5.947475 9.438384 5.947475 9.438383 5.947475 9.438384c0.646465 1.034343 1.292929 1.939394 1.810101 2.973738s1.163636 1.810101 1.810101 2.715151 1.163636 1.680808 1.680808 2.456566c0.517172 0.775758 1.034343 1.551515 1.551515 2.19798l1.163636 1.680808 1.163637 1.680808 1.163636 1.680808 1.163636 1.680808c0.129293 0.258586 0.258586 0.517172 0.258586 0.775757v0.905051c0 0.258586-0.129293 0.775758-0.258586 1.163636-0.129293 0.387879-0.387879 0.905051-0.646464 1.29293-0.258586 0.517172-0.517172 1.034343-0.905051 1.680808s-0.775758 1.292929-1.292929 1.939394-1.034343 1.551515-1.680808 2.327272-1.292929 1.680808-2.068687 2.715152c-0.775758 0.905051-1.422222 1.810101-2.068687 2.585858-0.646465 0.775758-1.292929 1.422222-1.810101 2.068687s-1.034343 1.034343-1.551515 1.551515c-0.517172 0.387879-0.905051 0.775758-1.163637 0.905051-0.258586 0.129293-0.517172 0.258586-0.646464 0.258586s-0.517172 0-0.646465-0.129293-0.517172-0.258586-0.646464-0.517172c-0.258586-0.258586-0.517172-0.517172-0.646465-0.90505l-2.585859-4.008081-2.585858-4.008081-2.585859-4.008081-2.585858-4.008081-11.636364 7.369697-11.636364 7.369697-11.636363 7.369697-11.636364 7.369697 2.327273 3.620202 2.327272 3.620202 2.327273 3.620202 2.327273 3.620202c0.258586 0.387879 0.387879 0.646465 0.517172 1.034344 0.129293 0.258586 0.258586 0.646465 0.387878 0.90505s0.129293 0.517172 0.129293 0.775758v0.646465c0 0.129293-0.258586 0.517172-0.517171 0.90505-0.258586 0.387879-0.646465 0.905051-1.034344 1.551515s-1.034343 1.422222-1.680808 2.19798-1.422222 1.810101-2.327273 2.844444c-0.905051 1.034343-1.680808 2.068687-2.456565 2.973738-0.775758 0.905051-1.551515 1.680808-2.19798 2.327273s-1.292929 1.292929-1.939394 1.810101c-0.517172 0.517172-1.034343 0.905051-1.551515 1.163636-0.129293 0.129293-0.258586 0.129293-0.517172 0.129293-0.129293 0-0.387879 0-0.517172-0.129293s-0.387879-0.258586-0.517171-0.387879c-0.129293-0.129293-0.387879-0.387879-0.517172-0.775757l-1.163636-2.068687-1.163637-2.068687-1.163636-2.068687-1.163636-2.068687c-0.387879-0.646465-0.775758-1.292929-1.163637-2.068687-0.387879-0.775758-0.905051-1.551515-1.422222-2.456565s-1.034343-1.810101-1.680808-2.715152-1.292929-1.939394-1.939394-3.10303l-6.723232-10.60202-6.723233-10.602021-6.723232-10.60202-6.723232-10.60202c-1.292929-2.068687-2.585859-4.008081-3.749495-5.818182s-2.19798-3.490909-3.232324-4.913131-1.939394-2.844444-2.715151-4.008081c-0.775758-1.163636-1.551515-2.19798-2.327273-3.10303-2.19798 3.232323-4.39596 6.335354-6.593939 9.438384-2.19798 3.10303-4.266667 6.076768-6.335354 8.921212s-4.137374 5.688889-6.20606 8.40404c-2.068687 2.715152-4.008081 5.30101-5.947475 7.757576l-1.034344-0.517172-1.034343-0.517172-1.034343-0.517171-2.068687 0.129293c5.430303-9.309091 10.343434-18.10101 14.739394-26.505051 4.39596-8.274747 8.40404-16.161616 11.765656-23.40202s6.464646-14.092929 8.921212-20.428283 4.525253-12.153535 5.947475-17.454545c-3.361616-1.034343-6.852525-2.327273-10.343434-3.878788s-6.981818-3.361616-10.343435-5.30101-6.981818-4.266667-10.472727-6.723233c-3.490909-2.585859-7.111111-5.171717-10.60202-8.145454z m0-12.412121c0 0.387879 0 0.775758 0.129293 1.034343V296.59798c3.878788 2.19798 7.757576 4.137374 11.636364 5.947475 3.878788 1.680808 7.757576 3.232323 11.50707 4.525252s7.628283 2.327273 11.507071 3.232323c3.749495 0.905051 7.628283 1.422222 11.377778 1.939394 0.775758-4.008081 1.422222-8.016162 1.939394-12.024242 0.517172-4.008081 0.905051-8.145455 1.034343-12.282828s0.258586-8.274747 0.258586-12.541415c0-4.266667-0.258586-8.533333-0.517172-12.8l-12.153535 7.757576-12.153535 7.757576-12.153536 7.757576-12.412121 7.49899z m80.808081 131.878787l11.636363-7.369697 11.636364-7.369696 11.636364-7.369697 11.636363-7.369697-6.464646-10.214142-6.464647-10.214141-6.464646-10.214142-6.464647-10.214141-11.636363 7.369697-11.636364 7.369697-11.636363 7.369697-11.636364 7.369697 6.464646 10.214141 6.464647 10.214142 6.464646 10.214141 6.464647 10.214141z" p-id="1887" fill="#d81e06"></path></svg>