<svg width="128" height="128" viewBox="0 0 128 128" fill="none" xmlns="http://www.w3.org/2000/svg">
<path d="M93.8398 81.17C93.8398 81.17 99.0498 75.96 104.54 77.51C110.03 79.06 113.55 81.87 113.97 87.65C114.39 93.43 113.01 97.75 108.62 100.6C102.99 104.26 96.2299 101.87 96.2299 101.87L93.8398 81.17Z" fill="#ECF0F2"/>
<path d="M60.19 42.5999C60.19 42.5999 64.27 33.7299 63.99 21.7599C63.71 9.78989 61.03 3.45989 55.03 3.68989C48.46 3.94989 46.42 14.5399 46.54 23.3099C46.68 34.0099 50.58 42.0799 50.58 42.0799L60.19 42.5999V42.5999ZM46.68 77.7399L36.64 78.5799C36.64 78.5799 36.97 79.6099 36.87 80.5499C36.78 81.4899 36.54 83.8299 36.54 83.8299L49.21 93.7799L73.33 80.3599L66.85 75.9499L46.68 77.7399V77.7399Z" fill="#A8A8A8"/>
<path d="M19.4599 64.95C19.2071 64.9498 18.9637 64.8537 18.7788 64.6812C18.5939 64.5086 18.4812 64.2725 18.4635 64.0202C18.4457 63.768 18.5242 63.5183 18.6831 63.3216C18.842 63.1249 19.0696 62.9957 19.3199 62.96C19.4299 62.94 22.0299 62.58 24.8699 62.48C28.0099 62.38 28.8499 62.35 31.5699 62.87C32.1099 62.97 32.4699 63.5 32.3599 64.04C32.2499 64.58 31.7299 64.93 31.1899 64.83C28.6999 64.35 27.9799 64.37 24.9399 64.47C22.2099 64.56 19.6299 64.93 19.5999 64.93C19.5499 64.94 19.5099 64.95 19.4599 64.95V64.95ZM18.4299 71.89C17.9799 71.89 17.5699 71.58 17.4599 71.13C17.3299 70.59 17.6599 70.05 18.1999 69.92C18.3399 69.88 21.7199 69.06 23.7999 68.69C25.8699 68.31 29.6099 67.86 29.7699 67.84C29.9003 67.8219 30.033 67.8302 30.1601 67.8644C30.2872 67.8987 30.4061 67.9581 30.5097 68.0393C30.6133 68.1205 30.6994 68.2218 30.7631 68.337C30.8267 68.4522 30.8664 68.5791 30.8799 68.71C30.8971 68.8403 30.8881 68.9726 30.8535 69.0993C30.8188 69.226 30.7593 69.3445 30.6782 69.4479C30.5972 69.5513 30.4964 69.6374 30.3816 69.7013C30.2669 69.7652 30.1405 69.8056 30.0099 69.82C29.9699 69.82 26.1699 70.29 24.1599 70.66C22.1499 71.03 18.7099 71.86 18.6799 71.87C18.5799 71.88 18.5099 71.89 18.4299 71.89V71.89Z" fill="#8E9395"/>
<path d="M80.9299 86.75L45.5499 109C45.5499 109 38.2299 117.26 39.8699 119C40.7399 119.92 44.1599 120.74 47.1399 120.08C51.4099 119.14 55.1199 110.08 55.1199 110.08C55.1199 110.08 53.2399 122.94 56.1499 123.5C59.0599 124.06 63.2799 123.36 65.1599 119.89C67.0399 116.42 67.6899 112.19 69.3799 110.41C71.0699 108.63 72.5699 107.31 72.5699 107.31C72.5699 107.31 73.5099 108.44 74.0699 109.19C74.6299 109.94 75.6699 110.97 75.6699 110.97C75.6699 110.97 71.2799 113.69 69.7599 115.85C68.2099 118.06 68.5299 120.67 70.7899 121.58C74.0699 122.89 88.2499 117.17 88.2499 117.17L85.4299 85.73L80.9299 86.75Z" fill="#A8A8A8"/>
<path d="M75.49 65.5399C75.49 65.5399 75.96 62.1599 75.3 59.0599C74.64 55.9599 72.77 52.3999 72.77 52.3999C72.77 52.3999 79.72 49.7699 84.69 45.2699C90.21 40.2699 98.39 30.9099 99.14 23.2099C99.89 15.5099 95.29 8.56993 83.18 15.8899C71.07 23.2099 62.26 41.3299 62.26 41.3299C62.26 41.3299 52.69 37.2899 44.9 41.5199C37.11 45.7499 32.98 56.6299 32.6 57.3799C32.22 58.1299 27.4 60.3199 26.78 66.9499C26.17 73.5199 29.84 77.2299 35.32 78.6799C39.14 79.6899 42.64 78.8699 42.64 78.8699C42.64 78.8699 45.55 82.1499 53.06 82.0599C60.57 81.9699 66.76 78.0199 66.76 78.0199C66.76 78.0199 65.35 83.3699 58.59 86.2799C53.52 88.4599 47.33 88.1599 42.82 86.1899C38.31 84.2199 36.72 81.9699 36.72 81.9699C36.72 81.9699 35.12 89.2899 36.72 93.6999C38.32 98.1099 41.41 104.21 41.22 108.81C41.03 113.41 38.08 116.79 39.53 118.66C40.34 119.71 43.68 120.59 46.29 117.82C50.7 113.13 50.53 107.82 52.11 107.59C55.39 107.12 53.8 116.69 53.71 118.66C53.62 120.63 53.34 123.12 55.49 123.45C60.09 124.15 60.84 122.42 62.81 117.82C64.78 113.22 64.55 110.83 66.56 108.06C68.2 105.81 70.97 104.31 70.97 104.31C70.97 104.31 70.45 98.0699 72.52 94.7799C74.58 91.4999 78.67 88.9099 81.67 90.0399C84.67 91.1699 78.06 91.9599 75.9 96.6599C74.32 100.1 74.63 103.65 76.89 106.09C79.14 108.53 81.86 110.59 81.86 110.59C81.86 110.59 71.1 114.47 70.13 118.43C69.43 121.29 70.6 122.61 77.17 121.95C83.74 121.29 92.09 119.04 95.38 114.91C98.66 110.78 102.86 97.2399 99.37 87.3599C96.55 79.3799 94.54 75.8599 87.31 70.6999C80.09 65.5399 75.49 65.5399 75.49 65.5399V65.5399Z" fill="#DFDFDF"/>
<path d="M69.8599 43.96C68.0999 42.14 71.1699 35.7 78.1199 28.29C85.0699 20.88 89.8499 18.53 92.1999 20.22C94.5499 21.91 91.1699 29.14 84.4999 36.18C78.9799 42 72.7699 46.96 69.8599 43.96Z" fill="#FFB0B1"/>
<path d="M47.6602 43.5801C50.2602 44.1401 48.0102 47.9401 45.8302 51.6001C43.6502 55.2601 42.0302 57.1601 42.5202 58.9201C43.0102 60.6801 46.8102 64.0601 46.6002 68.0701C46.3902 72.0801 43.0102 76.6601 36.6802 76.1601C30.3502 75.6601 27.8102 70.8101 28.8702 65.5301C29.7102 61.3501 34.0102 59.4101 35.1302 57.3601C36.2602 55.3201 38.1202 51.8901 40.0602 49.0501C42.8102 45.0601 45.0502 43.0201 47.6602 43.5801Z" fill="white"/>
<path d="M60.2404 59.1571C60.4967 56.5463 59.1539 54.2776 57.2412 54.0898C55.3284 53.902 53.57 55.8663 53.3137 58.4771C53.0574 61.0879 54.4002 63.3566 56.313 63.5444C58.2257 63.7321 59.9841 61.7679 60.2404 59.1571Z" fill="#2F3030"/>
<path d="M34.62 63.2399C34.62 63.2399 37.76 60.6599 38.98 61.9299C40.2 63.1999 35.27 66.2499 35.27 66.2499C35.27 66.2499 34.8 68.5499 36.21 68.7799C37.62 69.0099 37.81 66.0099 39.35 66.8099C40.9 67.6099 39.49 71.5999 36.77 71.6399C35.15 71.6699 34.19 70.4699 34.19 70.4699C34.19 70.4699 33.76 71.3599 32.31 71.2199C29.92 70.9899 28.79 66.1399 30.57 66.1999C31.98 66.2499 31.13 68.4999 32.45 68.4999C33.95 68.4999 33.34 65.8299 33.34 65.8299C33.34 65.8299 30.06 62.3999 31.51 61.1799C32.98 59.9599 34.62 63.2399 34.62 63.2399Z" fill="#2F3030"/>
<path d="M56.5298 69.2601C56.4098 69.2601 56.2998 69.2401 56.1798 69.2001C56.1398 69.1901 52.5598 67.8601 50.2598 67.3601L44.8198 66.1901C44.2798 66.0701 43.9398 65.5401 44.0498 65.0001C44.1598 64.4601 44.6998 64.1201 45.2398 64.2301L50.6798 65.4001C53.1198 65.9301 56.7198 67.2601 56.8698 67.3201C57.3898 67.5101 57.6498 68.0901 57.4598 68.6101C57.3913 68.8015 57.265 68.9669 57.0984 69.0834C56.9318 69.1999 56.733 69.2616 56.5298 69.2601V69.2601ZM55.3998 75.9301C55.2198 75.9301 55.0398 75.8801 54.8698 75.7801C54.8398 75.7601 51.7598 73.8501 48.9098 72.2901C47.1319 71.3183 45.3025 70.4436 43.4298 69.6701C43.1844 69.5707 42.9887 69.3778 42.8855 69.134C42.7824 68.8902 42.7803 68.6154 42.8798 68.3701C42.9792 68.1248 43.1721 67.929 43.4159 67.8259C43.6597 67.7227 43.9344 67.7207 44.1798 67.8201C44.2898 67.8601 46.9398 68.9401 49.8698 70.5501C52.7698 72.1401 55.8898 74.0801 55.9198 74.1001C56.3898 74.3901 56.5298 75.0101 56.2398 75.4801C56.0698 75.7601 55.7398 75.9301 55.3998 75.9301V75.9301Z" fill="#8E9395"/>
</svg>
